<svg width="256" height="256" viewBox="0 0 256 256" fill="none" xmlns="http://www.w3.org/2000/svg">
<path d="M210 114.202C214.783 114.202 219.565 114.202 224.348 114.202C226.511 114.202 227.183 113.121 226.369 115.96C225.973 117.338 225.451 119.453 225.913 121.064C226.248 122.233 227.35 123.698 227.422 124.92C227.456 125.491 228.357 128.727 228.703 129.003C229.658 129.764 230.416 131.701 231.407 132.689C232.482 133.76 233.769 134.808 234.482 136.149C234.776 136.702 235.637 137.124 236.133 137.68C236.724 138.342 236.826 139.763 237.414 140.232C238.299 140.937 237.67 145.167 237.67 146.243C237.67 149.849 239.207 153.262 239.207 156.819C239.207 160.289 239.72 163.928 239.72 167.537C239.72 169.316 240.614 177.3 239.207 178" stroke="black" stroke-width="3" stroke-linecap="round"/>
<path d="M238.463 176.065C238.463 180.218 238.975 184.723 238.975 188.599C238.975 192.797 240 196.485 240 200.65C240 208.28 238.951 215.926 236.953 222.904C236.546 224.327 236.858 226.712 234.875 226.712C232.42 226.712 232.311 225.972 230.889 224.552C230.129 223.794 227.844 226.623 226.675 227.224C226.154 227.491 223.682 229.171 223.629 228.986C223.387 228.141 222.913 227.714 222.063 227.337C221.205 226.957 220.152 227.446 219.272 227.195C218.961 227.106 218.766 225.695 218.361 225.291C216.599 223.532 214.9 223.912 212.838 224.154C211.484 224.313 210.307 226.2 208.738 226.2C207.554 226.2 204.625 225.269 203.727 224.552C202.271 223.39 202.588 222.359 202.588 220.317C202.588 218.932 201.37 217.263 200.538 216.225C199.383 214.784 200.651 212.694 199.769 211.109C199.109 209.923 199 206.367 199 204.97C199 200.877 199 196.785 199 192.692C199 187.579 198.939 181.704 200.794 176.89C201.975 173.824 200.538 169.604 200.538 166.345C200.538 160.901 199.513 155.278 199.513 149.975C199.513 145.772 199.832 141.892 201.677 138.208C202.618 136.328 204.617 135.688 205.777 133.604C206.715 131.917 208.382 130.733 209.25 129" stroke="black" stroke-width="3" stroke-linecap="round"/>
<path d="M208 116C210.728 121.777 209.873 126.148 209.873 132" stroke="black" stroke-width="3" stroke-linecap="round"/>
<path d="M200.54 143.371C207.502 143.371 213.926 144.406 220.963 144.406C223.654 144.406 226.344 144.406 229.035 144.406C231.084 144.406 233.912 140.775 233.912 145.183C233.912 147.707 234.426 150.429 234.426 152.686C234.426 154.919 236.875 156.872 236.993 158.895C237.194 162.335 233.085 161.577 231.06 160.994C228.593 160.283 226.686 159.93 223.872 159.93C217.882 159.93 211.9 162 205.931 162C204.476 162 203.022 162 201.567 162C199.553 162 200.992 160.013 201.054 158.895C201.215 155.974 200.735 153.71 199.913 151.018C199.507 149.69 199 148.114 199 146.735C199 144.93 200.35 145.441 201.824 145.441C203.244 145.441 204.459 146.476 205.931 146.476C207.3 146.476 208.669 146.476 210.038 146.476C211.261 146.476 213.295 145.337 214.403 144.809C216.155 143.972 218.735 143.889 220.678 143.889C223.497 143.889 226.16 143.537 228.379 145.326C229.316 146.082 234.365 145.586 233.884 147.77C233.642 148.868 232.461 150.543 231.973 151.651C231.504 152.715 231.673 153.955 230.946 154.871C229.889 156.202 230.748 157.113 228.236 156.797C225.06 156.397 224.897 152.078 223.901 149.868C222.398 146.536 218.61 148.881 217.226 151.392C215.368 154.763 204.133 153.97 203.621 149.581C203.406 147.741 201.567 149.214 201.567 150.357C201.567 152.477 203.279 152.5 204.134 154.008C205.032 155.592 206.426 155.273 208.013 155.273C209.114 155.273 213.395 154.087 209.782 155.503C208.48 156.013 204.68 154.953 203.735 155.905C202.211 157.441 204.473 157.65 205.56 157.975C206.259 158.184 209.527 158.112 209.24 159.125C208.937 160.193 203.776 159.274 202.908 158.924C201.56 158.381 205.709 158.161 207.101 157.745C208.315 157.383 210.54 157.753 211.436 156.94C213.416 155.144 217.041 155.79 219.537 155.79C220.693 155.79 225.789 157.099 226.211 156.567C227.013 155.556 228.778 155.291 228.778 153.951C228.778 151.89 228.778 149.83 228.778 147.77C228.778 145.079 219.209 148.41 217.996 148.546C215.253 148.853 212.705 148.546 209.782 148.546" stroke="#6B4322" stroke-width="3" stroke-linecap="round"/>
<path d="M204 141C210.53 141 216.117 139.494 222.644 139.494C225.762 139.494 227.242 139.746 229.894 140.888C231.516 141.587 231.048 138.604 230.412 137.988C229.688 137.286 227.654 137.289 227.334 136.203C226.994 135.05 226.616 133.768 226.298 132.688C225.947 131.497 224.985 130.505 224.687 129.202C224.154 126.877 220.219 126.44 218.242 126.44C215.771 126.44 213.793 125.171 211.509 126.942C209.55 128.462 215.823 132.175 210.733 132.465C209.621 132.528 210.198 134.473 208.661 134.473C206.86 134.473 207.628 136.356 206.589 136.481C205.91 136.564 205.042 138.775 205.669 139.382C206.252 139.948 208.177 137.858 208.661 137.597C211.225 136.216 214.048 136.325 216.947 136.481C217.417 136.507 224.658 139.489 224.658 137.709C224.658 136.667 221.424 135.477 220.544 135.477C218.395 135.477 216.247 135.477 214.099 135.477C212.706 135.477 210.984 134.473 213.84 134.473C216.347 134.473 218.096 134.179 220.285 132.967C221.91 132.066 217.988 131.854 217.724 131.712C215.957 130.76 215.896 130.531 215.365 128.727C215.144 127.98 213.238 131.487 213.063 131.963C212.5 133.49 212.804 135.374 212.804 136.984" stroke="#9DDE92" stroke-width="3" stroke-linecap="round"/>
<path d="M201.037 164.5C211.65 164.5 222.488 165 233.247 165C237.974 165 232.465 164.5 230.691 164.5C228.902 164.5 223.313 163.5 228.135 163.5C229.212 163.5 233.077 162.917 233.759 163.75C234.008 164.054 236.077 164.643 236.514 164.472C238.993 163.502 231.316 163 228.646 163C226.26 163 223.874 163 221.488 163C219.064 163 217 164 214.586 164C212.64 164 210.159 164.5 207.939 164.5C206.461 164.5 201.764 165.269 200.639 164.389C199.236 163.291 200.421 164.439 201.548 164.5C202.733 164.564 203.94 164.5 205.127 164.5C207.759 164.5 210.391 164.5 213.023 164.5C219.424 164.5 225.824 164.5 232.225 164.5" stroke="#C69935" stroke-width="3" stroke-linecap="round"/>
<path d="M200 197C202.436 197 203.172 197.049 205.111 197.953C206.255 198.486 207.438 198.608 208.688 198.608C210.302 198.608 214.263 198.569 215.446 199.56C216.535 200.475 221.057 199.679 222.487 199.679C224.872 199.679 227.257 199.679 229.642 199.679C230.672 199.679 236.16 200.201 236.286 199.144C236.342 198.675 239.308 198.188 237.308 198.072C236.124 198.003 234.917 198.072 233.73 198.072C231.992 198.072 225.802 198.608 230.778 198.608C232.273 198.608 233.768 198.608 235.264 198.608C237.283 198.608 233.034 198.608 232.453 198.608C227.568 198.608 222.251 198.097 217.632 199.173C215.125 199.757 212.604 199.679 209.966 199.679C207.849 199.679 204.867 200.257 202.839 199.65C202.575 199.57 201.174 198.141 201.306 198.102C202.329 197.795 203.79 198.072 204.855 198.072C207.076 198.072 209.846 197.597 212.01 198.102C218.145 199.531 225.322 198.608 231.686 198.608" stroke="#C69935" stroke-width="3" stroke-linecap="round"/>
<path d="M229.031 176.658C225.22 176.658 221.154 176.3 217.807 177.806C215.943 178.644 215.167 179.24 217.807 179.24C220.107 179.24 221.907 177.691 224.184 177.691C226.125 177.691 230.051 176.105 230.051 173.819C230.051 172.697 227.257 174.622 226.48 174.995C224.889 175.758 223.119 175.626 221.379 175.626C218.303 175.626 216.943 177.755 214.236 179.125C212.903 179.8 211.325 179.923 209.9 180.244C208.047 180.66 208.114 180.713 208.114 178.465C208.114 176.578 208.134 175.685 206.073 176.544C205.351 176.845 203.697 176.539 204.656 178.723C205.484 180.608 209.134 185.152 209.134 180.53C209.134 178.862 206.286 178.756 207.207 176.658C208.384 173.978 208.114 176.44 208.114 178.207C208.114 178.881 208.624 182.777 208.624 180.789C208.624 180.014 208.624 179.24 208.624 178.465C208.624 177.996 209.928 177.978 209.928 177.978C209.928 177.978 207.307 176.093 205.79 175.654C203.612 175.025 204.033 177.063 204.033 178.953C204.033 180.384 204.087 181.373 204.94 182.452C205.755 183.484 204.351 185.838 205.166 186.869C205.906 187.805 205.563 189.583 205.563 190.799C205.563 191.706 206.574 189.289 207.207 188.648C209.28 186.55 211.113 185.952 213.981 185.952C216.491 185.952 218.223 183.37 220.868 183.37C223.367 183.37 226.398 182.055 228.011 180.014C229.017 178.741 229.541 179.33 229.541 177.175C229.541 176.547 229.195 173.255 229.825 173.073C231.971 172.452 229.89 181.238 231.469 179.641C232.902 178.19 231.214 172.142 229.031 172.012C225.628 171.809 225.284 174.312 222.626 175.081C217.976 176.425 212.55 177.646 208.114 179.641C207.051 180.119 206.584 177.714 206.584 176.916C206.584 175.656 205.563 178.219 205.563 178.982C205.563 179.799 206.056 187.271 206.3 187.271C207.896 187.271 209.555 184.143 210.892 183.37C211.862 182.809 213.542 182.338 214.746 182.338C216.616 182.338 221.607 182.178 222.909 180.53C222.951 180.477 226.437 179.328 224.95 179.24C223.617 179.16 222.317 180.272 220.868 180.272C218.932 180.272 213.514 179.379 212.195 181.047C210.907 182.676 205.739 183.09 206.612 186.181C207.155 188.105 212.4 184.449 213.216 184.403C214.004 184.358 216.322 183.184 216.787 182.596C217.289 181.961 220.27 181.821 221.123 181.821C222.298 181.821 227.198 179.087 226.48 178.723" stroke="#C73E4A" stroke-width="3" stroke-linecap="round"/>
<path d="M213.45 181.029C216.815 181.029 219.868 180.816 222.977 179.446C224.306 178.861 225.537 178.573 226.989 178.573C227.652 178.573 229.937 177.564 229.998 178.573C230.051 179.462 229.011 180.583 228.215 181.029C226.016 182.259 221.69 180.859 220.08 182.12C217.862 183.857 215.191 184.559 212.725 185.939C211.425 186.667 207.933 189.337 207.933 187.167C207.933 185.925 207.432 184.761 207.432 183.729C207.432 182.385 206.495 181.643 206.429 180.537C206.372 179.587 203.183 174.466 204.2 174.181C205.161 173.912 207.208 173.969 208.184 174.181C209.432 174.453 208.936 177.143 208.936 178.082" stroke="#C73E4A" stroke-width="3" stroke-linecap="round"/>
<path d="M204 175.427C204.772 175.412 205.434 175.108 206.181 175.046C206.335 175.033 206.971 174.937 207.097 175.068C207.356 175.336 207.307 175.66 207.382 176.009C207.461 176.378 207.875 176.505 207.875 176.914C207.875 177.236 208 177.631 208 178.013C208 178.401 208 178.789 208 179.177C208 179.779 207.902 179.897 207.625 180.399C207.414 180.781 207.233 180.988 206.813 180.988C206.621 180.988 205.875 181.015 205.875 180.988" stroke="white" stroke-linecap="round"/>
<path d="M204 175C204.436 177.898 205.765 180.82 205.765 183.734C205.765 185.194 206 186.537 206 188" stroke="white" stroke-linecap="round"/>
<path d="M209.001 181C209.001 182.078 209.001 183.157 209.001 184.235C209.001 184.609 208.945 186.536 209.771 185.856C210.604 185.169 211 184.732 211 183.686C211 182.848 210.6 182.233 210.6 181.366" stroke="white" stroke-linecap="round"/>
<path d="M212 180C212.236 180.896 212.698 181.657 213.17 182.444C213.447 182.905 214 183.495 214 184" stroke="white" stroke-linecap="round"/>
<path d="M212 180.094C212.464 180.094 213 179.639 213 180.73C213 181.349 212.979 182 212.583 182" stroke="white" stroke-linecap="round"/>
<path d="M213 182C213.37 182.069 213.629 182.185 213.955 182.308C214.129 182.373 214.252 182.518 214.455 182.538C214.634 182.556 214.815 182.922 215 183" stroke="white" stroke-linecap="round"/>
<path d="M215.006 178C215.006 179.226 214.878 181.041 215.769 181.884C216.303 182.389 217 184.635 217 183.826" stroke="white" stroke-linecap="round"/>
<path d="M214 179C215.081 179 215.948 179 217 179" stroke="white" stroke-linecap="round"/>
<path d="M216 181C216.196 181 216.592 181 216.747 181C216.829 181 216.903 181 217 181" stroke="white" stroke-linecap="round"/>
<path d="M217 184C217.341 183.689 217.695 183.335 218 183" stroke="white" stroke-linecap="round"/>
<path d="M219 178.512C220.19 178.512 221.395 178.435 222.556 178.388C222.909 178.374 223.206 178.392 223.529 178.203C223.638 178.14 224.49 177.861 224.059 178.087C223.412 178.426 222.845 179.089 222.118 179.259C221.626 179.373 221.418 180.029 221.118 180.362C220.969 180.526 220.067 181.796 220.203 181.938C220.477 182.225 221.635 181.431 221.882 181.287C222.259 181.067 222.977 181.102 223.412 181.102C223.941 181.102 224.471 181.102 225 181.102" stroke="white" stroke-linecap="round"/>
<path d="M226.146 180C226.146 178.685 226 177.397 226 176.075C226 175.494 226 174.914 226 174.333C226 173.742 226.635 174.049 226.878 174.4C227.533 175.345 229.046 175.463 229.984 176.235C230.264 176.467 230.988 176.676 231.122 176.925C231.232 177.129 231.89 177.89 232 177.709" stroke="white" stroke-linecap="round"/>
<path d="M226 178C226.594 177.748 227.077 177.608 227.651 177.417C228.083 177.273 228.519 177 229 177" stroke="white" stroke-linecap="round"/>
<path d="M214.145 187C213.456 187.163 211.761 187.619 212.028 188.778C212.099 189.084 212.517 189.317 212.532 189.615C212.555 190.114 212.683 190.504 213.152 190.538C214.155 190.612 214.145 189.786 214.145 188.769C214.145 188.06 214.138 189.213 214.049 189.462C213.879 189.935 213.773 190.48 213.773 191C213.773 191.487 213.773 191.974 213.773 192.462C213.773 192.923 212.998 193 212.718 193C212.198 193 212.035 192.643 212.035 192.043C212.035 191.249 212.004 191.154 212.656 191.154C213.631 191.154 216.468 192.011 217 190.692" stroke="#B4A456" stroke-linecap="round"/>
<path d="M215 188.451C215.094 189.132 215.181 190.408 215.578 190.911C215.938 191.367 216.232 189.927 216.304 189.699C216.483 189.131 216.107 188.546 216.107 187.983C216.107 186.837 215.868 188.899 216.162 189.231C216.275 189.358 216.351 189.806 216.599 189.456C216.759 189.231 216.863 188.972 217.048 188.763C217.254 188.531 216.921 187.155 217.165 187.057C218.303 186.598 218.2 189.075 217.325 189.075" stroke="#B4A456" stroke-linecap="round"/>
<path d="M218.009 189C218.009 188.85 217.933 187.441 218.231 187.359C218.379 187.319 218.589 187.23 218.724 187.214C218.885 187.195 218.888 186.838 218.938 186.886C219.288 187.222 218.907 189.707 220.011 188.382C220.287 188.051 220.323 187.78 220.297 187.352C220.28 187.073 219.786 186.665 220.297 186.665C220.966 186.665 220.665 186.39 220.154 186.39C219.467 186.39 219.635 187.199 219.47 187.733C219.293 188.308 219.58 188.066 219.717 188.527C219.887 189.098 220.294 188.644 220.646 188.451C221.025 188.243 221.012 187.932 221.012 187.558C221.012 187.03 221.012 186.605 221.012 187.42C221.012 187.765 220.828 188.451 221.298 188.451C221.887 188.451 222.013 188.5 222.013 187.901C222.013 187.413 222.498 187.092 222.696 186.665C222.865 186.299 222.314 185.84 222.76 185.459C222.88 185.356 223.019 186.481 223.085 186.596C223.343 187.042 223.729 186.714 223.729 187.42C223.729 188.044 223.734 186.861 223.514 186.604C223.21 186.246 222.87 185.879 223.022 185.367C223.141 184.966 223.843 185.606 223.872 185.84C223.893 186.009 224.106 186.044 224.15 186.192C224.192 186.332 224.06 186.665 224.301 186.665C225.668 186.665 225.791 185.589 225.731 184.604C225.715 184.335 224.514 184.467 224.301 184.467C223.445 184.467 224.719 184.415 224.945 184.535C225.737 184.958 225.484 185.703 226.518 185.703C227.43 185.703 228.765 184.648 227.447 184.085C226.898 183.851 225.552 184.125 225.302 184.604" stroke="#B4A456" stroke-linecap="round"/>
<path d="M226 184H227" stroke="#B4A456" stroke-linecap="round"/>
<path d="M202 204.349C202.961 205.092 203.969 205.875 204.296 207.006C204.669 208.296 204.941 209.476 204.941 210.892C204.941 212.13 205.431 213.359 205.431 214.599C205.431 215.657 205.647 216.915 206.166 217.839C206.714 218.815 206.9 219.948 208.208 220.02C208.622 220.043 209.306 220.377 209.678 220.541C210.232 220.784 210.562 220.214 211.149 220.182C212.245 220.122 213.411 219.697 214.579 219.697C215.728 219.697 216.971 219.543 218.01 220.056C218.828 220.461 219.844 221.133 220.705 221.322C221.357 221.465 221.986 221.797 222.675 221.797C223.383 221.797 223.966 221.848 224.635 221.968C225.43 222.111 225.889 221.74 226.75 221.555C227.729 221.345 228.632 220.881 229.609 220.667C229.836 220.617 230.335 220.537 230.417 220.254C230.573 219.712 230.986 219.759 231.488 219.607C231.876 219.491 232.239 219.312 232.622 219.204C232.747 219.168 232.972 217.986 233.04 217.848C233.688 216.52 233.894 215.323 234.183 213.845C234.455 212.456 235 211.236 235 209.842C235 208.765 235 207.688 235 206.611C235 206.11 234.969 204.958 234.637 204.547C234.09 203.871 232.17 203.856 231.533 204.314C231.079 204.64 229.857 204.495 229.282 204.511C228.363 204.537 227.627 204.834 226.668 204.834C225.177 204.834 223.639 204.725 222.185 204.987C220.901 205.218 219.526 204.937 218.246 205.238C217.063 205.517 215.716 205.48 214.498 205.48C213.298 205.48 212.107 205.642 210.903 205.642C209.552 205.642 208.332 205.319 206.974 205.319C206.381 205.319 205.044 204.925 205.957 205.48C206.588 205.864 206.987 206.322 207.391 206.97C207.838 207.688 207.865 208.864 208.698 209.322C209.384 209.699 209.799 210.117 210.132 210.812C210.398 211.367 210.756 211.889 210.985 212.463C211.096 212.741 211.16 213.29 211.348 213.522C211.666 213.915 211.787 214.652 212.455 214.689C212.705 214.703 212.85 214.911 212.982 214.689C213.222 214.286 213.686 214.08 214.089 213.881C215.499 213.184 216.59 212.45 217.81 211.458C218.348 211.02 218.954 210.172 219.634 210.004C220.895 209.692 220.713 210.395 221.45 211.305C222.266 212.315 222.761 212.912 224.064 212.912C224.672 212.912 225.008 212.598 225.534 212.364C226.021 212.148 226.585 212.087 227.086 211.862C228.068 211.42 228.402 211.036 229.037 210.165C229.326 209.77 229.522 209.519 230.017 209.519C230.218 209.519 230.528 209.769 230.172 209.833C229.331 209.985 228.252 209.44 227.403 209.358C226.605 209.281 225.837 209.196 225.035 209.196C224.244 209.196 222.3 208.814 221.686 209.286C221.123 209.719 221.42 210.693 220.751 211.135C219.377 212.041 218.137 213.058 216.703 213.917C215.972 214.355 215.146 214.623 214.416 215.048C214.053 215.259 215.649 215.624 215.795 215.658C217.49 216.06 219.244 216.008 220.95 216.43C221.818 216.645 222.653 216.754 223.528 216.915C224.501 217.094 225.498 217.597 226.505 217.597C227.991 217.597 228.629 217.557 228.629 215.981" stroke="#6A4220" stroke-width="10" stroke-linecap="round"/>
<path d="M201 201.648C203.405 202.078 206.022 201.8 208.474 201.8C211.425 201.8 214.368 202.407 217.331 202.407C220.014 202.407 222.697 202.407 225.38 202.407C226.762 202.407 228.275 202.577 229.62 202.288C231.075 201.976 232.607 201.809 234.067 201.504C234.968 201.316 235.7 201.193 236.654 201.193C237.319 201.193 238.125 200.883 238.747 201.049C238.966 201.108 238.521 201.679 238.513 201.8C238.493 202.126 238.513 202.459 238.513 202.786C238.513 203.386 238.028 203.982 238.028 204.607C238.028 204.934 238.008 205.267 238.028 205.593C238.045 205.858 238.352 206.115 238.352 206.428C238.352 207.616 239.097 206.672 238.989 206.116C238.835 205.32 238.237 204.799 238.037 204.143C237.816 203.416 237.344 203.188 236.896 202.558" stroke="#6A4220" stroke-width="2" stroke-linecap="round"/>
<path d="M234.98 222.867C234.98 223.935 235.023 225.012 234.98 226.08C234.961 226.561 234.644 226.068 234.644 225.791C234.644 225.345 234.931 225.063 234.98 224.654C235.021 224.323 234.475 224.491 234.065 224.491C233.773 224.491 233.109 224.985 233.224 224.726C233.344 224.455 233.566 224.189 233.719 223.923C234.065 223.32 232.44 223.375 232.158 223.715C231.771 224.183 232.214 224.126 232.625 224.04C233.338 223.891 234.12 223.841 234.85 223.841C235.781 223.841 236.294 223.811 235.821 222.785C235.518 222.126 235.485 221.662 235.485 220.917C235.485 220.3 236.063 218.505 235.139 219.13C233.403 220.304 230.237 220.049 229.392 222.253C228.94 223.431 227.761 223.984 227.074 224.943C226.841 225.268 226.546 225.723 226.271 225.99C226.051 226.201 225.597 226.185 225.299 226.369C225.034 226.531 224.771 226.662 224.476 226.766C224.406 226.79 224.08 227.05 224.056 226.991C223.923 226.672 224.042 226.544 223.635 226.432C223.331 226.348 223.351 226.116 222.953 226.116C222.589 226.116 222.224 226.116 221.86 226.116C221.593 226.116 219.918 226.253 219.85 226.026C219.673 225.424 219.222 224.971 219 224.329" stroke="#6A4220" stroke-width="2" stroke-linecap="round"/>
<path d="M207.293 224.083C207.75 224.18 208.254 224.177 208.674 224.381C209.075 224.576 208.875 224.557 208.99 224.997C208.999 225.031 209.073 224.717 208.64 224.419C208.427 224.272 207.997 224.083 207.753 224.083C206.472 224.083 205.297 224.209 204.982 222.655C204.837 221.941 204.377 221.761 204.377 220.975C204.377 220.608 204.546 219.258 204.3 219.043C204.13 218.894 204.247 218.593 204.036 218.408C203.89 218.281 203.566 218.126 203.379 218.035C202.841 217.773 202.622 217.123 202.543 216.523C202.462 215.897 202.413 215.306 202.381 214.674C202.37 214.448 202.002 214.141 201.844 214.002C201.654 213.836 201.614 213.243 201.614 212.994C201.614 211.673 201.46 210.315 201.46 208.962C201.46 208.31 201 207.986 201 207.282C201 206.575 201.176 207.391 201.23 207.628C201.4 208.369 201.303 209.199 201.495 209.933C201.821 211.185 202.381 212.137 202.381 213.498" stroke="#6A4220" stroke-width="2" stroke-linecap="round"/>
<path d="M221 225.235C221.846 225.595 222.361 226.081 223.104 226.509C223.303 226.624 223.825 227.147 224.039 226.96C224.225 226.798 224.343 226.549 224.561 226.431C225.607 225.861 226.983 225.682 228.121 225.372C229.052 225.118 229.805 224.861 230.621 224.353C231.186 224.001 231.519 223.656 232.249 223.833C232.511 223.897 232.977 224.125 232.977 224.441C232.977 224.614 232.886 225.345 233.067 225.401C234.595 225.877 233.786 221.763 233.786 221" stroke="#6A4220" stroke-width="2" stroke-linecap="round"/>
<path d="M237.161 202.735C237.025 202.152 236.788 201.893 237.403 202.041C237.617 202.092 238 202.175 238 202.384C238 202.923 238 203.461 238 204" stroke="#6A4220" stroke-width="2" stroke-linecap="round"/>
<path d="M210.709 124.07C215.801 124.07 220.529 123.272 225.457 123.272" stroke="black" stroke-width="2" stroke-linecap="round"/>
<path d="M215.492 135.231C217.018 135.192 222.942 135.497 222.246 133.06C222.124 132.633 221.573 130.875 221.073 130.846C219.935 130.779 218.863 130.57 217.884 130.447C216.855 130.319 219.629 130.049 220.076 130.049C221.275 130.049 222.667 130.072 222.667 131.444C222.667 133.265 226.286 133.675 227.052 134.633C227.657 135.389 230.063 137.509 230.063 138.508C230.063 141.577 225.427 138.818 224.062 138.818C222.018 138.818 210.642 139.88 209.912 138.419" stroke="#9DDE92" stroke-width="7" stroke-linecap="round"/>
<path d="M222.268 128.056C223.445 129.012 224.967 131.181 225.059 132.839C225.1 133.579 224.66 135.191 224.66 133.636" stroke="#9DDE92" stroke-width="7" stroke-linecap="round"/>
<path d="M230.241 156.755C226.285 156.755 222.378 157.206 218.77 155.87C217.342 155.341 213.693 153.783 217.485 153.567C220.178 153.413 222.721 152.769 225.457 152.769C227.174 152.769 228.925 152.87 230.639 152.769C231.991 152.69 230.051 149.581 229.045 149.581C226.551 149.581 224.012 149.182 221.471 149.182C217.818 149.182 214.324 148.582 210.709 148.783C208.7 148.895 207.633 149.148 207.52 151.175C207.386 153.579 206.988 154.127 209.513 155.25C212.619 156.63 215.44 156.958 219.08 156.755C222.964 156.54 227.15 155.03 231.038 156.667C231.372 156.808 232.967 157.476 233.009 157.331C233.351 156.132 233.077 154.328 233.031 153.079C232.958 151.114 232.234 149.569 232.234 147.587" stroke="#6B4322" stroke-width="7" stroke-linecap="round"/>
</svg>
