<svg width="256" height="256" viewBox="0 0 256 256" fill="none" xmlns="http://www.w3.org/2000/svg">
<path d="M204.688 213.843C204.688 216.014 204.826 219.206 206.976 220.4C209.292 221.687 210.984 223.092 213.601 223.84C215.822 224.474 218.285 224.405 220.565 224.975C223.404 225.685 226.475 225.433 229.393 225.433C232.21 225.433 235.012 225.519 237.628 224.281C239.344 223.468 241.59 222.843 242.812 221.315C243.908 219.946 244.265 219.078 244.337 217.266C244.407 215.533 245.862 213.845 245.862 212.013" stroke="black" stroke-width="3" stroke-linecap="round"/>
<path d="M203.774 212.928C203.774 198.359 203.769 183.801 204.079 169.247C204.15 165.904 204.994 162.562 204.994 159.25C204.994 155.885 205.299 152.563 205.299 149.185" stroke="black" stroke-width="3" stroke-linecap="round"/>
<path d="M245.252 211.098C244.372 206.475 244.308 201.733 243.66 197.069C242.974 192.129 242.125 187.214 241.83 182.226C241.589 178.155 241.445 174.067 241.304 169.992C241.232 167.9 240.804 165.883 240.694 163.808C240.279 155.92 239.458 148.25 239.458 140.34" stroke="black" stroke-width="3" stroke-linecap="round"/>
<path d="M204.384 150.405C204.384 146.222 204.384 141.987 204.384 137.9" stroke="black" stroke-width="3" stroke-linecap="round"/>
<path d="M204.384 137.9C206.422 140.359 209.016 143.174 211.839 144.457C214.462 145.65 218.013 145.83 220.853 145.83C224.014 145.83 228.017 146.485 230.986 145.457C231.885 145.146 238.911 140.982 237.628 140.34" stroke="black" stroke-width="3" stroke-linecap="round"/>
<path d="M204.994 136.07C208.207 136.015 211.331 134.85 214.516 134.85C217.238 134.85 219.961 134.85 222.683 134.85C224.876 134.85 226.684 134.968 228.613 136.07C229.422 136.532 230.33 137.155 231.07 137.731C231.814 138.309 232.932 138.269 233.358 139.12" stroke="black" stroke-width="3" stroke-linecap="round"/>
<path d="M204.994 184.259C207.479 184.259 209.964 184.259 212.449 184.259C214.007 184.259 215.63 183.692 217.193 183.649C218.704 183.607 220.319 183.558 221.785 183.191C225.011 182.385 228.499 183.091 231.765 182.497C233.784 182.13 235.876 182.124 237.933 182.124" stroke="black" stroke-width="3" stroke-linecap="round"/>
<path d="M230.003 147.355C230.003 150.258 229.372 152.471 228.851 155.285C228.546 156.93 227.868 158.504 227.868 160.165C227.868 161.174 227.578 163.207 227.19 164.129C226.742 165.194 227.302 166.443 226.885 167.484C226.403 168.69 226.075 171.051 226.038 172.364C225.991 173.99 225.716 175.642 225.428 177.244C225.025 179.485 225.083 181.813 224.513 184.022C223.809 186.75 223.153 189.592 222.226 192.189C221.847 193.249 221.463 194.73 221.463 195.849C221.463 196.959 220.853 197.791 220.853 198.915C220.853 201.664 219.388 204.107 219.023 206.845C218.514 210.66 217.692 213.961 216.871 217.655C216.638 218.707 215.973 219.245 215.973 220.4C215.973 221.06 215.907 222.721 215.363 222.993" stroke="black" stroke-width="3" stroke-linecap="round"/>
<path d="M217.782 222.512C219.819 222.465 221.604 221.708 223.678 221.708C225.062 221.708 226.446 221.708 227.831 221.708C231.121 221.708 234.341 222.096 237.21 220.502C239.454 219.255 241.516 218.464 241.631 215.486C241.705 213.556 242.331 211.834 241.899 209.888C241.656 208.794 241.363 205.448 241.363 206.568C241.363 207.963 240.33 204.279 240.231 203.755C239.844 201.701 239.755 199.797 239.755 197.711C239.755 196.938 238.951 193.977 238.951 192.367C238.951 191.061 238.683 189.601 238.683 188.213C238.683 186.682 237.934 186.07 236.406 186.07C233.717 186.07 231.15 186.182 228.501 186.338C227.571 186.392 226.536 188.948 226.372 189.687C226.198 190.472 226.031 191.328 225.687 192.084C225.398 192.721 225.769 193.488 225.494 194.108C224.995 195.23 224.283 197.488 224.213 198.664C224.099 200.605 222.338 202.067 222.338 204.142C222.338 207.642 221.635 210.633 221.013 214.056C220.737 215.572 218.986 219.671 220.075 218.582C221.51 217.147 221.981 213.802 222.457 211.942C223.128 209.317 223.242 206.654 224.213 204.082C224.651 202.924 224.728 201.882 225.077 200.688C225.59 198.934 226.098 197.15 226.878 195.493C227.076 195.073 227.585 194.379 227.682 193.945C227.782 193.494 228.501 190.341 228.501 191.444C228.501 193.149 228.568 194.835 228.292 196.52C227.779 199.657 227.696 202.71 226.566 205.69C225.718 207.924 224.749 209.846 224.749 212.344C224.749 214.154 225.021 216.274 224.273 217.957C224.045 218.471 223.856 218.659 223.469 219.088C222.595 220.059 222.973 219.339 223.544 218.641C225.073 216.772 227.626 215.499 229.409 213.848C230.611 212.735 230.645 212.353 230.645 210.722C230.645 207.21 230.377 203.759 230.377 200.271C230.377 197.147 230.423 194.067 231.121 191.012C231.421 189.697 229.409 189.017 231.582 189.017C234.649 189.017 237.177 191.474 237.343 194.644C237.402 195.751 238.025 196.744 238.415 197.8C238.803 198.849 238.951 200.627 238.951 201.745C238.951 202.817 238.951 203.889 238.951 204.961C238.951 206.027 238.415 206.996 238.415 208.042C238.415 210.082 238.535 212.17 238.415 214.205C238.353 215.264 236.236 211.781 236.123 211.585C235.091 209.808 234.635 207.956 233.994 206.033C233.254 203.812 232.788 201.88 232.788 199.512C232.788 198.337 233.207 197.363 233.324 196.252C233.449 195.068 233.831 193.768 233.86 195.835C233.881 197.321 234.223 198.757 234.396 200.227C234.424 200.462 234.759 202.183 234.917 201.075C235.222 198.94 235.392 196.722 235.453 194.51C235.494 193.008 235.468 191.503 235.468 190C235.468 189.3 235.438 191.4 235.483 192.099C235.713 195.673 238.357 199.735 237.552 203.278C237.064 205.426 235.476 207.542 234.723 209.65C234.465 210.374 234.354 211.144 234.143 211.883C233.741 213.288 234.327 208.966 234.381 207.506C234.431 206.169 234.396 204.825 234.396 203.487C234.396 202.454 234.385 204.78 234.381 204.886C234.204 209.321 232.987 213.488 231.508 217.629C231.171 218.573 231.029 219.342 231.448 220.428C231.917 221.641 232.501 221.44 231.716 221.44C229.81 221.44 227.915 221.087 225.985 220.919C224.643 220.802 225.139 220.536 226.104 220.234C227.485 219.803 228.932 218.837 230.377 218.761C232.577 218.645 234.699 217.957 236.942 217.957C237.244 217.957 238.926 217.794 238.52 217.704C236.399 217.232 234.35 216.598 232.267 215.947C229.386 215.047 226.301 214.804 223.32 214.473C221.859 214.311 226.246 214.174 227.697 213.937C230.528 213.475 233.119 213.401 235.989 213.401C236.297 213.401 240.338 213.401 238.386 213.401C236.229 213.401 234.01 212.469 231.984 211.794C229.549 210.982 227.126 210.555 224.601 210.126C223.725 209.978 223.229 209.738 222.606 209.114C221.542 208.05 225.118 208.578 225.821 208.578C227.222 208.578 228.554 208.31 229.945 208.31C230.098 208.31 229.582 208.195 229.573 208.042C229.557 207.784 229.666 207.42 229.439 207.238C228.986 206.876 229.072 204.591 228.292 204.678C227.922 204.719 227.965 209.675 227.965 210.335C227.965 210.821 227.998 213.204 228.65 212.181C229.462 210.904 229.605 208.825 229.989 207.343C230.346 205.966 231.18 204.479 231.18 203.055C231.18 200.539 231.18 198.024 231.18 195.508C231.18 194.684 231.18 193.86 231.18 193.036C231.18 191.898 231.74 193.036 232.118 193.036C232.848 193.036 233.082 194.079 233.19 194.079C233.471 194.079 233.324 191.151 233.324 190.893C233.324 188.609 235.873 189.959 236.674 190.759C238.057 192.142 239.755 192.461 239.755 194.644C239.755 195.679 239.927 197.632 240.425 198.53C241.214 199.95 240.827 202.162 240.827 203.755" stroke="#0E34F8" stroke-width="3" stroke-linecap="round"/>
<path d="M238.147 213.669C238.147 214.736 238.805 218.493 237.21 218.493C235.342 218.493 233.546 218.852 231.716 219.237C231.332 219.318 230.277 219.058 230.525 219.058C231.206 219.058 228.683 219.296 228.322 219.296C226.87 219.296 225.396 219.373 223.946 219.296C223.38 219.267 223.695 218.172 224.005 217.957C225.213 217.12 226.961 217.421 228.367 217.421C230.25 217.421 230.044 218.482 228.173 218.969C227.178 219.228 217.276 218.796 217.276 220.249C217.276 220.897 218.797 222.455 219.271 221.678C219.882 220.679 220.723 219.79 221.266 218.761C221.945 217.474 221.802 216.164 221.802 214.741C221.802 214.333 221.485 212.432 222.1 212.344C222.873 212.234 223.729 212.33 224.511 212.33C226.519 212.33 228.136 211.444 230.049 210.99C230.74 210.826 231.984 211.05 231.984 210.186C231.984 209.514 231.742 208.923 231.716 208.251C231.671 207.074 231.448 209.669 231.448 209.977C231.448 212.544 230.483 215.767 231.582 218.21C232.098 219.354 232.565 220.606 233.116 221.708C234.52 224.516 236.272 220.311 236.272 218.909C236.272 217.972 236.531 217.136 235.676 216.617C234.884 216.136 231.43 215.481 234.128 216.081C235.925 216.48 238.415 217.202 238.415 214.607C238.415 213.223 238.415 211.838 238.415 210.454C238.415 209.095 238.405 207.741 238.579 206.39C238.921 203.729 240.023 201.118 240.023 198.425C240.023 197.323 239.051 197.103 238.951 196.252C238.768 194.698 238.27 193.079 238.147 191.488C238.1 190.868 237.328 189.821 236.674 189.821C235.775 189.821 233.979 189.821 233.979 189.821C233.979 189.821 238.256 189.335 237.195 189.032C235.889 188.659 234.403 188.905 233.175 188.347C232.596 188.084 226.005 188.04 225.836 188.63C225.33 190.402 229.037 190.906 229.037 188.481" stroke="#0E34F8" stroke-width="3" stroke-linecap="round"/>
<path d="M220.194 180.442C220.333 176.684 222.874 173.55 222.874 169.858C222.874 166.148 222.939 163.42 223.678 160.137C224.402 156.916 225.4 153.807 226.759 150.818C227.432 149.337 224.403 149.879 223.469 149.568C222.569 149.268 221.625 149.359 220.671 149.359C216.997 149.359 211.712 149.839 208.88 147.007C208.304 146.431 207.939 145.772 207.183 145.34C206.561 144.984 207.537 146.633 207.734 147.067C208.31 148.333 207.868 150.348 207.868 151.771C207.868 153.334 207.868 154.897 207.868 156.46C207.868 159.119 208.195 162.022 207.808 164.633C207.414 167.292 206.476 169.881 206.245 172.538C206.061 174.662 205.992 176.744 205.992 178.894C205.992 179.236 205.794 181.4 206.141 181.499C206.863 181.706 208.361 181.782 209.074 181.782C210.518 181.782 211.985 181.133 213.436 180.919C214.689 180.734 215.48 179.907 216.711 179.907C217.778 179.907 218.844 179.907 219.911 179.907C220.145 179.907 221.168 180.049 221.251 179.758C221.498 178.895 221.465 177.83 221.668 176.929C222.756 172.091 223.058 167.678 222.874 162.698C222.859 162.307 222.387 159.849 222.07 159.81C221.574 159.748 221.534 155.523 221.266 154.718" stroke="#0E34F8" stroke-width="3" stroke-linecap="round"/>
<path d="M213.495 153.379C213.204 153.143 211.366 151.039 210.816 151.622C210.186 152.289 210.469 154.413 210.562 155.254C210.672 156.241 210.959 157.218 211.069 158.202C211.196 159.35 211.292 159.496 212.155 158.41C212.47 158.015 214.309 155.004 213.704 156.386C213.124 157.706 212.127 159.02 211.902 160.479C211.552 162.754 211.971 165.158 211.679 167.461C211.47 169.113 211.029 169.536 210.384 170.826C209.919 171.755 209.355 172.703 209.223 173.758C209.199 173.948 208.978 175.806 208.999 175.828C209.634 176.462 212.828 168.701 213.093 168.012C213.57 166.772 212.378 168.219 212.14 168.563C211.23 169.884 209.672 171.964 209.744 173.684C209.765 174.186 210.799 172.931 210.83 172.895C211.731 171.875 212.505 170.674 213.108 169.456C213.315 169.039 215.043 164.973 214.001 166.419C213.584 166.998 208.499 173.233 212.155 172.612C212.609 172.535 214.799 170.879 215.043 171.123C215.798 171.878 214.177 175.087 213.912 175.857C213.841 176.063 213.338 177.95 213.242 177.614C212.991 176.736 212.83 176.959 211.768 176.959C209.603 176.959 207.566 176.982 205.456 176.483C204.337 176.217 204.68 176.831 205.471 177.108C207.752 177.906 209.319 177.946 211.351 176.751C212.745 175.931 213.218 175.553 213.644 173.729C213.921 172.54 214.176 170.842 214.969 169.873C215.882 168.757 214.825 168.435 213.763 168.116" stroke="#0E34F8" stroke-width="3" stroke-linecap="round"/>
<path d="M219.926 155.79C219.926 156.057 219.739 162.459 220.075 162.459C220.927 162.459 221.974 160.477 221.772 162.593C221.34 167.127 220.038 171.627 219.182 176.096C219.154 176.241 219.214 177.197 218.973 177.197C218.5 177.197 218.152 176.096 218.05 175.768C217.085 172.643 217.515 168.84 217.515 165.615C217.515 162.863 217.34 160.053 217.529 157.309C217.565 156.789 217.783 156.081 217.783 157.07C217.783 159.157 217.791 161.226 217.455 163.293C217.018 165.981 216.328 168.599 216.056 171.317C216.013 171.739 216.195 175.832 215.847 176.006C215.373 176.243 215.669 174.958 215.654 174.428C215.616 173.129 215.639 171.827 215.639 170.528C215.639 168.085 215.684 165.647 215.371 163.219C215.222 162.068 214.546 161.377 214.18 160.331C213.789 159.215 213.763 158.028 213.763 156.862C213.763 154.702 213.383 161.175 212.959 163.293C212.898 163.601 211.167 173.797 209.327 171.957C207.532 170.162 207.6 165.97 207.6 163.621C207.6 162.599 207.564 162.049 208.463 161.477C209.251 160.976 210.012 162.944 210.012 163.427C210.012 164.434 209.659 164.946 209.461 165.839C209.311 166.515 208.94 167.121 208.94 167.848C208.94 170.509 208.392 162.42 209.148 159.869C209.523 158.603 209.266 162.511 209.193 163.829C209.093 165.629 208.94 167.377 208.94 169.188C208.94 171.229 208.895 173.087 208.463 175.083C208.144 176.562 208.136 177.993 208.136 179.505C208.136 181.674 209.082 179.642 210.28 179.043C211.186 178.59 213.187 178.669 214.18 178.85C214.975 178.994 215.618 179.103 216.443 179.103C217.367 179.103 218.057 179.312 217.247 178.299" stroke="#0E34F8" stroke-width="3" stroke-linecap="round"/>
<path d="M216.175 175.083C216.554 172.574 217.115 170.089 217.247 167.58C217.275 167.044 217.515 166.321 217.782 165.854C218.261 165.015 218.633 166.707 218.72 166.777C219.309 167.247 219.122 168.333 219.122 168.98C219.122 169.447 219.298 172.157 219.063 170.409C218.741 168.014 217.515 165.541 217.515 163.144C217.515 161.829 216.638 154.202 219.122 155.582C220.032 156.087 221.052 156.23 221.936 155.522C222.264 155.26 222.05 154.29 222.07 153.914C222.126 152.841 221.636 153.111 220.522 153.111C219.964 153.111 214.628 153.124 214.582 152.962C214.09 151.239 221.746 152.757 219.956 152.843C217.313 152.969 214.723 152.803 212.215 151.935C211.544 151.702 211.121 151.503 210.414 151.503C209.074 151.503 209.476 150.484 209.476 149.359C209.476 148.868 209.476 148.377 209.476 147.885C209.476 147.249 211.067 149.048 211.351 149.374C211.979 150.091 212.642 150.87 213.555 151.235C215.566 152.039 218.255 152.476 220.403 152.783C222.08 153.023 225.005 153.287 226.625 152.709C227.108 152.536 227.855 152.014 227.042 151.562C225.86 150.906 223.889 151.142 222.665 151.503C220.747 152.069 219.563 154.182 217.395 154.182C216.183 154.182 214.952 156.455 215.118 157.532C215.214 158.157 215.639 158.639 215.639 159.274C215.639 159.617 215.864 158.874 215.966 158.738C216.482 158.05 217.176 157.469 217.782 156.862C219.371 155.273 220.26 155.261 221.668 156.981C222.527 158.031 221.266 158.461 221.266 159.542C221.266 161.01 221.57 162.798 221.251 164.231C220.928 165.684 219.311 164.75 218.527 165.377C217.893 165.884 217.671 159.764 217.381 159.125C216.887 158.039 214.978 156.898 213.763 156.862C212.426 156.823 210.651 157.217 209.357 156.847C207.467 156.307 213.137 155.522 215.103 155.522C216.029 155.522 217.12 156.218 218.036 156.46C219.184 156.764 220.123 157.098 221.117 157.666C222.156 158.26 222.626 160.006 223.41 160.881C224.746 162.375 223.678 165.579 223.678 167.312C223.678 168.204 223.41 169.242 223.41 170.26C223.41 170.751 223.398 173.721 223.142 173.208" stroke="#0E34F8" stroke-width="3" stroke-linecap="round"/>
</svg>
