<svg width="256" height="256" viewBox="0 0 256 256" fill="none" xmlns="http://www.w3.org/2000/svg">
<path d="M213.842 130.91C215.354 127.531 214.554 123.234 214.435 119.458C215.899 118.368 217.214 117 219.143 117C220.803 117 222.4 117.306 224.028 117.665C225.749 118.045 226.471 119.498 226.471 121.044C226.471 123.836 226.506 126.537 226.815 129.293C227.122 132.037 228.75 134.564 228.75 137.398C228.75 139.147 228.457 140.839 228.425 142.555C228.359 146.019 227.824 150.595 229.004 153.231C229.638 154.648 230.109 156.018 231.283 157.184C231.591 157.49 231.987 157.263 232.26 157.508C232.665 157.869 232.794 158.786 233.002 159.251C233.853 161.154 233.905 162.879 234.214 164.876C234.761 168.405 234.287 172.279 234.287 175.857C234.287 177.357 234.565 178.368 234.866 179.828C235.206 181.484 234.813 183.264 234.63 184.896C234.479 186.251 233.798 187.411 233.382 188.742C233.092 189.67 233.31 190.913 233.31 191.887V197.476V202.832C233.31 202.912 233.309 202.977 233.308 203.029C233.328 202.904 233.375 202.76 233.473 202.76C233.787 202.76 233.635 207.967 233.635 208.403V213.723C233.635 215.053 232.594 216.418 232.351 217.748C232.201 218.566 231.059 218.489 230.379 218.827C229.445 219.29 228.629 220.597 227.611 220.821C225.839 221.212 223.551 220.839 221.731 220.839C219.88 220.839 218.15 220.192 216.303 220.192C214.04 220.192 212.138 220.397 210.26 219.222C208.34 218.021 206.931 218.501 206.931 215.987C206.931 212.604 205.73 209.738 205.375 206.354C204.756 200.452 204 194.303 204 188.491C204 185.658 204.977 182.841 204.977 180.044C204.977 175.717 204.28 171.677 204.959 167.967C205.33 165.94 205.574 162.313 207.582 161.066C208.828 160.293 209.372 158.54 210.513 157.831C211.229 157.387 212.376 155.06 212.467 154.201C212.771 151.339 215.18 146.971 213.191 144.748C213.045 144.585 213.494 141.603 213.607 141.244C214.068 139.779 213.77 137.939 213.77 136.409C213.77 134.962 213.239 132.257 213.842 130.91Z" fill="#408F3F"/>
<path d="M214.421 118.617C214.421 122.584 215.468 127.277 213.842 130.91C213.239 132.257 213.77 134.962 213.77 136.409C213.77 137.939 214.068 139.779 213.607 141.244C213.494 141.603 213.045 144.585 213.191 144.748C215.18 146.971 212.771 151.339 212.467 154.201C212.376 155.06 211.229 157.387 210.513 157.831C209.372 158.54 208.828 160.293 207.582 161.066C205.574 162.313 205.33 165.94 204.959 167.967C204.28 171.677 204.977 175.717 204.977 180.044C204.977 182.841 204 185.658 204 188.491C204 194.303 204.756 200.452 205.375 206.354C205.73 209.738 206.931 212.604 206.931 215.987C206.931 218.501 208.34 218.021 210.26 219.222C212.138 220.397 214.04 220.192 216.303 220.192C218.15 220.192 219.88 220.839 221.731 220.839C223.551 220.839 225.839 221.212 227.611 220.821C228.629 220.597 229.445 219.29 230.379 218.827C231.059 218.489 232.201 218.566 232.351 217.748C232.594 216.418 233.635 215.053 233.635 213.723C233.635 211.949 233.635 210.176 233.635 208.403C233.635 207.967 233.787 202.76 233.473 202.76C233.219 202.76 233.31 203.721 233.31 202.832C233.31 201.047 233.31 199.262 233.31 197.476C233.31 195.613 233.31 193.75 233.31 191.887C233.31 190.913 233.092 189.67 233.382 188.742C233.798 187.411 234.479 186.251 234.63 184.896C234.813 183.264 235.206 181.484 234.866 179.828C234.565 178.368 234.287 177.357 234.287 175.857C234.287 172.279 234.761 168.405 234.214 164.876C233.905 162.879 233.853 161.154 233.002 159.251C232.794 158.786 232.665 157.869 232.26 157.508C231.987 157.263 231.591 157.49 231.283 157.184C230.109 156.018 229.638 154.648 229.004 153.231C227.824 150.595 228.359 146.019 228.425 142.555C228.457 140.839 228.75 139.147 228.75 137.398C228.75 134.564 227.122 132.037 226.815 129.293C226.506 126.537 226.471 123.836 226.471 121.044C226.471 119.498 225.749 118.045 224.028 117.665C222.4 117.306 220.803 117 219.143 117C216.408 117 214.908 119.75 212.467 120.558" stroke="#408F3F" stroke-width="7" stroke-linecap="round"/>
<path d="M215.544 180C215.571 178.918 216.354 178.065 216.354 177.094C216.354 176.562 216.629 175.888 216.759 175.329C216.995 174.313 217.569 172.939 217.569 171.96C217.569 171.082 218.312 170.124 218.378 169.301C218.436 168.579 218.568 167.537 219.143 168.225C219.418 168.554 219.593 169.386 219.593 169.829C219.593 170.711 220.739 171.847 221.302 172.541C221.843 173.206 222.427 174.726 222.427 175.544C222.427 176.055 222.798 176.544 222.832 177.094C222.853 177.442 223.145 178.408 223.338 178.741C223.799 179.535 223.17 179.613 222.528 179.613C221.866 179.613 221.44 179.335 220.965 178.881C219.941 177.901 219.272 177.639 217.974 177.051C216.873 176.552 215.583 176.324 214.937 175.243C214.582 174.648 214.117 174.326 213.419 174.177C212.667 174.017 212.497 173.541 212.058 173.069C211.69 172.671 213.168 173.025 213.723 173.025C214.431 173.025 215.14 173.025 215.848 173.025C217.623 173.025 219.82 172.75 221.516 172.251C222.362 172.001 223.264 171.669 224.147 171.669C224.664 171.669 225.332 171.902 224.811 172.401C224.036 173.143 222.958 173.355 222.123 173.994C221.205 174.697 220.403 175.931 219.391 176.47C218.748 176.811 218.448 177.548 217.861 177.869C217.543 178.043 216.577 179.846 216.354 179.419" stroke="#D63724" stroke-width="2" stroke-linecap="round"/>
<path d="M216.691 179C216.721 177.733 216.972 177.985 217.922 177.927C218.481 177.893 217.802 176.581 217.614 176.425C217.025 175.932 217.558 173.149 217.706 172.455C217.782 172.097 218.243 172.552 218.492 171.918C218.614 171.609 217.732 171.262 218.23 170.845C219.453 169.822 218.984 172.209 219.165 172.872C219.246 173.171 219.359 171.697 219.359 171.489C219.359 171.139 218.535 170.092 218.583 170.034C218.872 169.689 219.153 172.046 219.153 172.228C219.153 172.769 219.153 173.309 219.153 173.85C219.153 174.919 220.244 175.549 220.179 176.639C220.165 176.873 219.711 176.466 219.552 176.425C219.207 176.334 218.746 176.283 218.435 176.103C217.8 175.734 218.39 175.678 219.108 175.399C219.532 175.235 220.237 174.803 220.544 174.446C221.052 173.855 218.851 173.85 218.652 173.85C217.936 173.85 217.599 173.24 218.492 173.206C219.067 173.184 219.834 173.045 220.282 173.42C220.77 173.829 219.88 174.691 219.564 174.875C219.01 175.196 218.43 175.137 217.82 175.137C216.809 175.137 216.03 174.986 215.141 174.72C214.678 174.582 215.001 174.004 214.525 173.862C214.325 173.802 214.042 173.951 214.024 173.635C214.016 173.5 213.953 173.037 214.069 173.158C214.948 174.077 215.526 173.997 216.691 174.064C217.228 174.095 217.687 175.017 217.922 175.447C218.144 175.852 218.974 176.282 219.359 176.472C220.041 176.81 220.693 177.714 221 178.356" stroke="#D63724" stroke-width="2" stroke-linecap="round"/>
<path d="M222.971 173.241C221.731 173.652 220.399 174.142 219.088 174.249C218.719 174.279 218.384 174.172 218.106 174.419C217.499 174.957 219.654 173.853 220.461 173.853C221.087 173.853 221.231 173.564 221.565 173.139C221.699 172.97 222.168 172.956 222.168 173.241C222.168 173.546 221.715 173.995 221.52 174.215C221.181 174.597 220.912 175.037 220.717 175.483C220.38 176.253 220.728 176.398 221.063 177.011C221.585 177.963 222.03 178.758 222.525 179.761C222.891 180.505 222.599 179.302 222.324 178.992C221.943 178.563 221.876 177.768 221.755 177.214C221.695 176.942 221.453 175.348 221.253 175.29C220.73 175.139 220.969 174.223 221.364 174.011C222.328 173.493 224.215 172.834 221.878 172.834C221.251 172.834 220.342 173.023 219.858 172.63C219.347 172.215 220.201 171.286 219.356 171" stroke="#D63724" stroke-width="2" stroke-linecap="round"/>
<path d="M204 194C212.434 194 237.737 194 229.302 194" stroke="black" stroke-width="15"/>
<path d="M233 193.909C231.579 193.909 230.158 193.909 228.737 193.909C228.045 193.909 227 194.425 227 193" stroke="black" stroke-width="15"/>
<path d="M230 194.65C229.441 194.65 226.248 195.771 226 194" stroke="black" stroke-width="15"/>
<path d="M231 193.215C230.25 193.215 227.393 192.381 227 194" stroke="black" stroke-width="15"/>
<path d="M205 192C205 192.815 205.176 193.624 205.25 194.422C205.299 194.956 206 195.425 206 196" stroke="white" stroke-width="2"/>
<path d="M209 192C209 193.018 209 193.994 209 195" stroke="white" stroke-width="2"/>
<path d="M206 194C206.325 194 208 194 208 194" stroke="white" stroke-width="2"/>
<path d="M209 194V196" stroke="white" stroke-width="2"/>
<path d="M210.88 194.855C211.343 194.002 211.328 193.264 210.492 193.016C209.856 192.826 210.019 194.415 210.019 194.797C210.019 195.397 210.102 196.402 210.43 196.841C210.62 197.094 212 197.043 212 196.7" stroke="white" stroke-width="2"/>
<path d="M213 192C213 193.25 213 196.998 213 195.748" stroke="white" stroke-width="2"/>
<path d="M215.4 196C215.4 195.588 215.406 195.304 215.25 194.926C215.151 194.685 215 194.437 215 194.178C215 193.881 215.036 193.835 215.344 193.753C215.641 193.674 215.768 193.233 216 193.063C216.413 192.759 216.702 193.641 216.822 193.966C217.009 194.47 217 194.912 217 195.439" stroke="white" stroke-width="2"/>
<path d="M218.474 193.704C218.474 193.46 218.635 192.28 218.45 192.064C218.341 191.936 217.749 192.039 217.579 192.039C217.473 192.039 217 193.396 217 193.649C217 194.18 217.667 195.124 217.947 195.567C218.3 196.124 218.775 196.193 219 195.481" stroke="white" stroke-width="2"/>
<path d="M222 191V196" stroke="white" stroke-width="2"/>
<path d="M222 194C222.752 193.673 223.605 193.426 224.308 193.067C224.49 192.974 224.766 193.005 225 193.005" stroke="white" stroke-width="2"/>
<path d="M223 194C223.972 194.244 224.692 194.945 225 196" stroke="white" stroke-width="2"/>
<path d="M226.616 194.426C228.053 194.582 229.31 194.399 228.932 193.246C228.851 193.001 226.802 192.96 226.429 193.032C225.9 193.134 225.842 194.975 226.357 195.194C226.69 195.334 227.027 195.347 227.39 195.456C227.811 195.583 227.91 195.87 228.294 196" stroke="white" stroke-width="2"/>
<path d="M230 195.328C230 194.418 230.008 193.886 230.444 193.099C230.642 192.742 230.778 193.458 230.778 193.551C230.778 193.875 230.889 194.08 230.889 194.411C230.889 194.646 231.253 196.299 231.444 195.952C231.826 195.263 232 194.266 232 193.494" stroke="white" stroke-width="2"/>
</svg>
