<svg width="256" height="256" viewBox="0 0 256 256" fill="none" xmlns="http://www.w3.org/2000/svg">
<path d="M206.769 132.653C210.957 133.422 213.857 136.501 218.116 137.276C221.178 137.832 223.73 138.537 226.848 138.537C231.769 138.537 236.005 135.296 239.97 132.653" stroke="#FFE600" stroke-width="3" stroke-linecap="round"/>
<path d="M205.508 135.595C204.525 136.947 202.146 138.602 202.146 140.218C202.146 142.697 200.044 144.405 200.044 147.035C200.044 151.531 198.868 155.922 198.784 160.39C198.729 163.293 199.204 166.215 199.204 168.889C199.204 171.583 199.531 174.584 198.877 177.201C198.341 179.345 197.943 180.972 197.943 183.178C197.943 186.979 198.651 190.622 198.784 194.339C198.866 196.634 199.327 200.563 200.254 202.604C201.129 204.528 201.725 207.212 201.725 209.351C201.725 210.828 202.955 211.663 204.457 211.663C206.187 211.663 206.953 213.883 208.216 214.605C210.544 215.935 211.972 218.189 214.754 218.807C220.139 220.004 225.509 224.022 230.957 220.909C233.595 219.401 236.913 216.936 238.289 214.185" stroke="#FFE600" stroke-width="3" stroke-linecap="round"/>
<path d="M240.81 133.073C240.851 134.693 240.752 136.435 242.491 136.435C243.772 136.435 243.782 137.568 244.266 138.537C245.197 140.398 246.274 141.605 246.274 143.79C246.274 146.128 247.234 148.354 246.18 150.724C245.198 152.933 245.013 155.58 245.013 158.079C245.013 159.44 245.026 162.803 244.382 163.963C243.476 165.594 244.247 168.75 244.149 170.523C243.997 173.254 243.332 175.974 243.332 178.695C243.332 181.227 242.071 183.519 242.071 186.027C242.071 189.249 242.071 192.471 242.071 195.693C242.071 200.664 242.491 205.715 242.491 210.729C242.491 211.792 242.713 214.494 241.651 215.025" stroke="#FFE600" stroke-width="3" stroke-linecap="round"/>
<path d="M200.657 153.892C206.317 153.892 211.977 153.892 217.637 153.892C221.158 153.892 224.537 154.551 228.023 154.551C230.86 154.551 233.468 155.211 236.266 155.211C237.439 155.211 239.047 155.274 240.15 155.614C241.311 155.971 241.834 155.54 242.861 155.54" stroke="#FFE600" stroke-width="3" stroke-linecap="round"/>
<path d="M210.219 161.475C209.934 163.255 209.889 164.957 209.889 166.751C209.889 167.641 209.41 168.201 209.248 168.931C208.794 170.971 207.911 173.348 207.911 175.342C207.911 177.87 207.911 180.398 207.911 182.925C207.911 184.595 208.57 186.184 208.57 187.835C208.57 188.854 209.389 188.824 209.541 189.355C209.848 190.432 209.559 192.005 209.559 193.128C209.559 193.894 210.142 194.383 210.219 195.107C210.313 196.002 210.367 197.289 210.622 198.148C210.97 199.323 211.208 201.166 211.208 202.361C211.208 204.537 211.326 204.471 213.186 205.401C214.451 206.034 215.455 207.087 215.842 208.442C216.07 209.238 218.621 210.145 219.286 210.292C221.736 210.837 225.519 213.241 228.188 211.758C230.061 210.717 232.31 209.297 232.31 206.977C232.31 205.742 232.134 204.559 232.896 203.606C233.731 202.563 232.48 198.427 232.053 197.415C230.684 194.163 231.98 189.637 231.98 186.387C231.98 184.629 231.98 182.87 231.98 181.112C231.98 180.446 231.98 179.781 231.98 179.115C231.98 178.383 232.64 177.869 232.64 177.137C232.64 175.913 233.335 174.384 233.885 173.345C234.774 171.666 234.948 170.855 234.948 168.802C234.948 167.208 235.372 165.717 235.277 164.113C235.238 163.45 232.54 163.155 231.98 163.124C230.899 163.064 229.993 162.464 228.848 162.464C227.617 162.464 226.268 162.135 224.891 162.135C223.229 162.135 222.724 161.948 221.887 163.344C221.126 164.611 216.143 171.455 217.985 173.034C218.474 173.452 218.603 174.153 218.791 174.737C219.293 176.292 220.19 177.677 220.77 179.207C221.331 180.688 222.418 182.606 222.418 184.226C222.418 185.591 222.16 186.904 222.089 188.183C222.018 189.454 221.504 190.46 221.429 191.81C221.352 193.196 221.099 194.62 221.099 196.096" stroke="#FFE600" stroke-width="15" stroke-linecap="round"/>
<path d="M202.965 159.167C202.769 158.163 202.587 156.37 201.243 157.445C200.634 157.932 200.417 158.405 200.73 159.424C201.275 161.196 201.646 162.193 201.646 164.113C201.646 165.981 201.646 167.85 201.646 169.718C201.646 172.055 200.327 174.27 200.327 176.642C200.327 180.294 199.867 183.741 199.997 187.267C200.068 189.17 200.327 191.146 200.327 193.128C200.327 194.82 201.253 196.554 201.627 198.239C202.011 199.965 202.223 201.163 202.8 202.892C203.065 203.688 203.753 210.617 204.796 210.915C205.792 211.199 206.298 210.977 206.921 212.069C207.121 212.418 207.745 213.042 208.094 213.241C208.825 213.659 209.388 214.226 210.054 214.743C211.015 215.491 212.397 215.75 213.497 216.355C213.758 216.498 215.97 217.923 216.135 217.345C216.394 216.439 216.482 216.41 217.308 217.052C218.411 217.91 220.607 218.973 221.429 220.001C221.844 220.52 225.479 220.495 226.21 220.495C227.425 220.495 231.366 221.064 231.98 219.836" stroke="#FFE600" stroke-width="3" stroke-linecap="round"/>
<path d="M238.904 214.89C238.904 212.225 238.245 209.455 238.245 206.977C238.245 205.734 237.672 203.686 237.988 202.617C238.839 199.746 238.489 196.782 239.161 193.861C239.67 191.648 241.802 187.747 240.718 185.362C238.107 179.619 239.893 172.879 239.893 166.751" stroke="#FFE600" stroke-width="3" stroke-linecap="round"/>
<path d="M240.223 156.2C240.277 158.401 241.302 160.713 242.366 162.629C243.408 164.505 241.144 160.38 240.883 159.827C240.374 158.749 240.196 155.717 242.037 157.189C242.571 157.616 242.201 160.125 242.201 160.816C242.201 164.797 242.201 168.778 242.201 172.759C242.201 174.294 241.872 175.858 241.872 177.302C241.872 177.604 241.675 179.001 241.469 179.207C241.291 179.384 239.68 179.096 240.296 179.866C240.818 180.518 240.496 180.4 239.857 179.903C237.852 178.344 235.907 176.733 233.794 175.324C232.143 174.223 230.213 173.045 228.353 172.356C227.969 172.214 224.76 170.523 224.47 170.781C224.383 170.858 224.397 171.312 224.397 171.147C224.397 170.226 224.427 169.301 224.378 168.381C224.183 164.663 222.106 161.46 221.264 157.903C220.901 156.37 220.783 153.695 219.194 155.284C217.494 156.984 214.964 156.2 212.527 156.2C209.677 156.2 206.715 156.529 203.789 156.529C202.934 156.529 200.663 156.126 201.719 157.445C203.458 159.62 203.641 164.425 204.119 167.08C205.188 173.023 207.525 179.81 210.878 184.885C212.268 186.989 213.747 189.034 215.146 191.132C215.777 192.078 216.11 193.376 216.996 194.136C218.888 195.758 220.964 198.317 222.088 200.565C222.679 201.746 223.815 203.529 224.048 204.815C224.367 206.565 228.384 205.437 229.672 205.731C231.326 206.109 232.48 207.008 233.299 208.442C234.532 210.6 238.895 210.16 239.545 212.435C239.794 213.305 240.095 213.758 239.307 214.634C238.855 215.136 238.578 215.773 238.245 216.355C237.959 216.855 238.829 216.061 238.923 215.733C239.018 215.4 239.478 214.917 239.637 214.56C239.933 213.894 239.893 213.312 239.893 212.582C239.893 211.033 239.234 209.708 239.234 208.131C239.234 206.253 238.386 197.014 239.564 196.426" stroke="#FFE600" stroke-width="3" stroke-linecap="round"/>
<path d="M210.219 174.005C206.089 172.292 206.139 169.477 205.016 165.688C204.567 164.172 204.786 161.735 204.961 160.156C205.219 157.837 206.519 156.968 208.313 155.54C212.585 152.142 217.907 152.573 223.004 152.573C225.606 152.573 228.207 152.573 230.808 152.573C232.19 152.573 234.244 152.164 235.021 153.562C235.727 154.833 236.209 155.586 236.615 157.006C236.782 157.59 237.815 159.455 238.172 159.9C238.465 160.267 238.363 161.578 238.501 162.061C238.756 162.951 238.618 164.124 239.069 164.937C240.039 166.684 239.29 170.659 239.234 172.686C239.14 176.057 236.288 180.655 233.555 182.577C231.747 183.85 230.613 186.534 228.188 186.534C227.147 186.534 224.674 187.418 224.067 186.204" stroke="#D50909" stroke-width="3" stroke-linecap="round"/>
<path d="M226.375 176.313C224.285 179.741 220.728 181.775 217.546 183.896C216.03 184.907 214.745 185.873 213.259 186.864C212.706 187.232 210.732 188.321 211.373 188.677C212.03 189.042 213.108 188.842 213.845 188.842C214.849 188.842 215.344 189.502 216.318 189.502C217.161 189.502 218.073 189.814 218.865 190.088C220.808 190.76 222.232 192.469 224.397 192.469C225.744 192.469 228.437 192.983 229.672 193.531C231.248 194.232 232.797 193.783 234.288 194.777" stroke="#D50909" stroke-width="3" stroke-linecap="round"/>
<path d="M218.462 187.853C218.715 187.853 222.811 187.853 220.916 187.853C219.219 187.853 217.521 187.853 215.824 187.853C212.136 187.853 217.062 186.864 218.388 186.864C220.151 186.864 221.998 187.174 223.481 186.204C224.494 185.542 223.799 185.781 222.601 185.563C221.811 185.419 221.403 184.885 220.605 184.885C218.993 184.885 221.235 185.201 221.759 185.215C222.813 185.244 223.808 185.545 224.891 185.545C225.909 185.545 226.933 185.58 227.95 185.545C229.401 185.495 228.925 184.826 229.599 184.153C231.11 182.641 232.102 181.987 232.969 179.866C233.96 177.446 235.026 174.725 235.589 172.191C235.843 171.049 236.003 164.772 235.113 164.772C233.683 164.772 233.196 163.405 232.127 162.794C229.477 161.28 227.042 158.837 223.737 158.837C222.112 158.837 220.694 157.848 219.121 157.848C217.637 157.848 216.154 157.848 214.67 157.848C213.324 157.848 211.373 157.495 210.072 157.867C208.903 158.201 207.766 160.3 206.921 161.145" stroke="#D50909" stroke-width="3" stroke-linecap="round"/>
<path d="M207.581 157.189C212.575 157.189 217.57 157.189 222.565 157.189C224.97 157.189 227.603 156.91 229.984 157.207C234.172 157.731 234.469 162.418 235.772 165.285C237.09 168.184 236.267 172.979 236.267 176.148C236.267 176.519 236.267 178.536 236.267 177.815C236.267 174.405 236.625 170.801 236.248 167.41C236.124 166.292 235.632 165.15 235.607 164.04C235.581 162.872 236.084 160.486 234.453 160.486C233.373 160.486 233.314 159.842 232.64 159.167C232.024 158.552 231.245 158.429 230.496 158.013C228.331 156.81 225.115 157.941 222.766 157.354C220.004 156.663 217.189 156.859 214.34 156.859C213.438 156.859 212.724 156.247 211.867 156.2C210.118 156.102 213.552 155.87 214.01 155.87C220.118 155.87 226.206 155.521 232.145 156.841C232.819 156.99 233.679 157.321 234.288 157.592C234.691 157.771 234.921 157.848 235.369 157.848C236.878 157.848 232.334 157.908 230.844 157.665C229.462 157.44 226.601 157.154 225.459 156.126C224.394 155.168 228.09 155.54 228.683 155.54C230.217 155.54 232.673 155.633 233.885 156.603C234.619 157.19 234.967 158.131 235.277 158.984C235.711 160.176 236.812 161.204 237.182 162.464C237.774 164.476 239.022 166.51 239.967 168.399C240.797 170.059 240.883 172.155 240.883 174.005C240.883 176.355 241.038 169.297 240.864 166.952C240.79 165.954 240.644 165.047 239.967 164.369C238.9 163.303 236.926 161.814 236.926 160.156C236.926 159.437 236.6 156.044 237.109 157.207C237.561 158.239 238.202 159.764 238.245 160.889C238.306 162.487 238.76 163.972 239.49 165.432C241.107 168.665 241.542 171.408 241.542 174.994C241.542 176.372 240.116 177.768 239.49 178.95C239.08 179.726 238.231 182.126 237.256 182.248C236.523 182.339 234.95 185.03 234.361 185.618C233.138 186.842 231.456 186.253 230.258 187.45C229.563 188.146 226.742 188.455 225.715 188.512C224.316 188.59 221.759 189.376 221.759 187.853" stroke="#D50909" stroke-width="3" stroke-linecap="round"/>
<path d="M219.121 184.556C220.879 184.556 222.638 184.556 224.397 184.556C225.014 184.556 226.811 184.866 227.291 184.482C228.852 183.233 230.942 182.589 232.456 181.075C234.029 179.502 234.288 177.91 234.288 175.8C234.288 174.384 234.225 172.335 234.801 171.019C235.194 170.121 236.449 167.007 235.277 166.421" stroke="#D50909" stroke-width="3" stroke-linecap="round"/>
<path d="M232.969 154.551C235.213 155.919 237.137 157.029 238.831 158.911C239.486 159.638 239.718 161.068 240.223 161.951C240.422 162.299 241.43 162.788 241.799 163.197C242.815 164.326 242.531 167.271 242.531 168.729C242.531 169.701 242.202 170.638 242.202 171.532C242.202 173.439 241.542 171.483 241.542 170.378" stroke="#D50909" stroke-width="3" stroke-linecap="round"/>
<path d="M234.618 153.892C236.924 153.892 236.562 154.004 237.182 155.797C237.46 156.597 237.743 157.385 238.245 158.013C239.36 159.407 240.921 160.559 242.018 161.97C242.634 162.761 242.531 163.667 242.531 164.608C242.531 166.08 243.17 167.826 243.447 169.315C243.658 170.447 243.52 171.698 243.52 172.851C243.52 173.175 243.85 175.57 243.85 174.334" stroke="#D50909" stroke-width="3" stroke-linecap="round"/>
</svg>
