<svg width="256" height="256" viewBox="0 0 256 256" fill="none" xmlns="http://www.w3.org/2000/svg">
<path d="M206.148 217.396C206.148 227.19 220.777 232.307 228.212 227.528C230.212 226.242 231.728 224.46 233.84 223.45C234.905 222.941 237.446 221.692 238.018 220.548C238.448 219.689 237.571 218.422 237.443 217.572C236.283 209.915 237.449 201.622 237.668 193.982C238.01 181.991 238.568 169.966 238.568 157.959C238.568 153.006 238.568 148.053 238.568 143.099C238.568 140.323 238.568 137.546 238.568 134.769C238.568 133.219 236.81 136.526 236.767 137.246C236.672 138.868 234.05 139.062 233.165 139.947C231.847 141.266 229.977 140.848 228.212 140.848C224.835 140.848 221.457 140.848 218.08 140.848C216.769 140.848 214.281 141.334 213.352 140.173C212.902 139.61 213.039 138.984 212.552 138.497C212.067 138.012 211.103 137.997 210.426 137.696C209.466 137.27 207.499 135.853 207.499 134.769C207.499 133.312 207.048 138.082 207.048 138.947C207.048 146.011 206.581 153.28 204.697 160.11C203.853 163.17 204.347 166.853 204.347 170.016C204.347 173.961 204.347 177.905 204.347 181.849C204.347 190.101 204.797 198.498 204.797 206.815C204.797 210.409 203.67 216.493 205.247 219.648" stroke="black" stroke-width="3" stroke-linecap="round"/>
<path d="M207.048 134.544C211.852 133.49 217.277 129.507 222.458 131.042C226.853 132.344 231.076 133.95 234.966 135.895" stroke="black" stroke-width="3" stroke-linecap="round"/>
<path d="M221.457 149.854C221.457 157.475 221.457 165.097 221.457 172.718C221.457 174.027 221.457 175.336 221.457 176.646C221.457 177.29 221.457 178.749 221.457 177.221C221.457 174.786 221.457 172.351 221.457 169.916C221.457 167.669 221.369 167.678 220.332 166.064C217.897 162.276 214.834 160.012 213.828 155.482C213.641 154.641 213.712 149.629 213.352 150.079C211.947 151.835 211.101 153.769 211.101 156.158C211.101 163.446 211.101 170.734 211.101 178.022C211.101 182.786 210.688 187.823 211.526 192.431C211.789 193.876 211.241 193.891 212.452 194.532C213.065 194.857 213.046 196.293 212.877 196.883C212.547 198.039 211.169 199.578 211.101 200.736C211.009 202.302 210.2 203.588 210.2 205.239C210.2 206.89 210.2 208.541 210.2 210.192C210.2 212.225 209.3 214.065 209.3 216.046C209.3 217.104 209.94 219.648 211.326 219.648C213.917 219.648 215.38 223.7 217.63 223.7C219.281 223.7 220.932 223.7 222.583 223.7C224.447 223.7 225.704 222.539 227.311 222.35C228.403 222.221 230.913 221.151 230.913 220.098C230.913 218.382 230.013 217.213 230.013 215.595C230.013 211.693 230.013 207.79 230.013 203.888C230.013 197.276 229.562 192.15 229.562 185.526C229.562 179.235 230.151 173.385 230.438 167.215C230.511 165.644 232.82 151.326 232.239 151.23C229.787 150.821 228.47 150.121 227.086 152.58C224.635 156.938 225.51 161.527 225.51 166.514C225.51 172.093 225.583 177.615 225.16 183.175C224.728 188.835 225.091 194.672 224.259 200.286C223.444 205.788 220.81 210.741 222.383 216.246C222.506 216.676 224.184 216.946 224.609 216.946C224.778 216.946 222.373 217.727 221.683 217.847C220.24 218.098 218.781 218.675 217.405 217.947C216.689 217.568 216.777 216.894 216.279 216.496C215.57 215.928 215.798 213.116 215.379 212.193C214.74 210.788 215.062 208.136 215.153 206.59C215.176 206.197 215.967 205.038 216.279 204.788C216.829 204.349 216.504 202.326 216.504 201.736C216.504 198.157 216.241 194.452 216.955 190.93C217.859 186.462 219.852 181.896 220.107 177.321C220.163 176.308 220.958 175.066 220.332 176.696C219.183 179.682 218.453 183.191 217.63 186.302C215.373 194.827 215.604 203.856 215.604 212.618C215.604 216.204 215.604 205.447 215.604 201.862C215.604 194.665 216.427 186.831 215.504 179.673C215.305 178.132 215.461 176.343 215.128 174.844C214.799 173.365 213.803 175.255 213.803 173.519C213.803 172.929 213.487 170.999 214.028 170.567C214.317 170.335 215.132 168.705 215.153 168.315C215.275 166.127 215.171 162.256 216.404 160.56C217.575 158.951 215.819 157.072 215.153 155.908C213.991 153.873 209.993 150.241 210.676 147.852C211.19 146.053 218.859 147.556 220.557 146.802C221.448 146.406 224.155 146.251 225.06 146.251C226.612 146.251 228.08 145.801 229.788 145.801C231.741 145.801 233.615 145.053 233.615 147.377C233.615 149.103 233.615 150.829 233.615 152.555" stroke="black" stroke-width="7" stroke-linecap="round"/>
<path d="M233.615 152.555C233.615 159.698 234.065 166.564 234.065 173.719C234.065 178.805 236.125 184.374 234.941 189.704C233.744 195.092 234.065 200.724 234.065 206.364C234.065 209.096 233.165 211.842 233.165 214.695C233.165 216.121 233.165 217.546 233.165 218.972C233.165 220.914 230.777 220.316 230.463 218.747" stroke="black" stroke-width="7" stroke-linecap="round"/>
<path d="M218.305 189.929C218.305 192.986 217.469 197.47 218.33 200.486C218.703 201.791 218.313 205.467 219.656 206.139" stroke="black" stroke-width="7" stroke-linecap="round"/>
<path d="M225.51 212.443C225.51 211.806 226.232 203.797 224.409 204.838C223.365 205.435 224.1 211.423 224.609 212.443" stroke="black" stroke-width="7" stroke-linecap="round"/>
<path d="M217.855 183.625C217.855 180.997 217.113 179.733 216.504 177.296C215.552 173.488 215.709 169.515 215.604 165.614C215.5 161.76 215.153 157.832 215.153 153.906C215.153 152.166 215.78 150.668 214.028 150.279C212.612 149.964 212.452 148.263 212.452 147.152C212.452 146 212.973 143.974 211.351 144.901C210.905 145.156 210.429 145.593 210.225 144.675C210.121 144.207 210.651 143.3 210.651 143.3C210.651 143.3 210.888 151.878 210.651 156.158C210.586 157.32 209.605 158.128 209.325 159.11C209.013 160.2 209.3 161.775 209.3 162.912C209.3 168.184 207.048 172.527 207.048 177.671C207.048 183.615 209.086 188.747 209.3 194.532C209.396 197.139 209.75 199.827 209.75 202.537C209.75 205.725 208.399 208.725 208.399 211.993C208.399 214.147 209.16 216.659 210.551 218.397C211.205 219.215 211.742 220.62 211.976 221.674C212.062 222.06 214.246 223.223 214.703 223.25C216.492 223.355 216.482 223.628 217.655 224.801C218.308 225.454 220.577 225.051 221.457 225.051C223.899 225.051 224.984 222.35 227.311 222.35" stroke="black" stroke-width="7" stroke-linecap="round"/>
<path d="M235.867 150.754C235.736 150.087 235.883 144.967 235.616 144.7C235.154 144.238 233.816 144.682 234.716 144.425C235.385 144.234 235.337 143.364 235.867 143.099" stroke="black" stroke-width="7" stroke-linecap="round"/>
<path d="M222.808 146.702C226.399 145.229 222.762 145.351 221.007 145.351C219.523 145.351 218.483 145.801 216.955 145.801" stroke="black" stroke-width="7" stroke-linecap="round"/>
<path d="M208.849 163.813C210.625 163.813 213.803 162.927 213.803 165.163C213.803 166.63 213.958 168.454 214.278 169.891C214.458 170.702 214.767 173.229 215.379 173.719C216.404 174.539 216.132 176.708 216.604 177.771C217.695 180.226 216.955 184.301 216.955 187.002C216.955 190.379 216.955 193.756 216.955 197.134" stroke="#20E63F" stroke-width="2" stroke-linecap="round"/>
<path d="M214.253 162.011C216.955 162.011 219.656 162.011 222.358 162.011C223.897 162.011 223.259 165.281 223.259 166.514C223.259 170.22 224.609 173.365 224.609 177.096C224.609 183.775 224.609 203.813 224.609 197.134" stroke="#20E63F" stroke-width="2" stroke-linecap="round"/>
<path d="M223.709 166.514C225.86 166.514 227.671 166.064 229.788 166.064C231.437 166.064 231.04 167.516 232.039 168.315C233.098 169.163 232.264 175.43 232.264 176.871C232.264 180.248 232.264 183.625 232.264 187.002C232.264 188.42 232.181 189.865 232.264 191.28C232.338 192.529 233.165 193.905 233.165 195.332" stroke="#20E63F" stroke-width="2" stroke-linecap="round"/>
<path d="M206.513 205.676C206.513 204.694 206.507 204.083 206.893 203.215C207.195 202.536 207.534 201.824 207.949 201.178C208.368 200.526 208.428 201.569 208.428 201.915C208.428 202.392 208.628 202.882 209.005 203.184C209.549 203.619 209.366 201.618 209.385 201.3C209.396 201.109 209.534 201.227 209.628 201.133C209.655 201.105 209.664 200.819 209.765 200.92C209.91 201.065 209.795 201.77 209.795 201.984C209.795 202.599 209.795 203.215 209.795 203.83C209.795 204.204 210.197 205.33 210.069 205.266" stroke="white" stroke-linecap="round"/>
<path d="M212.667 202.394C212.421 203.002 212.253 203.344 211.71 203.693C211.471 203.847 211.3 203.875 211.3 204.172C211.3 204.386 211.171 205.422 211.376 205.539C211.971 205.88 213.409 206.363 213.898 205.813C214.612 205.009 214.855 204.046 214.855 203.009C214.855 202.042 213.222 202.12 212.53 202.12" stroke="white" stroke-linecap="round"/>
<path d="M216.086 206.086C216.086 205.983 215.881 201.835 216.466 201.908C216.601 201.925 216.473 204.999 216.496 205.403C216.508 205.595 217.279 205.785 217.454 205.95C217.857 206.33 217.864 206.61 217.864 205.95C217.864 204.764 217.864 203.579 217.864 202.394" stroke="white" stroke-linecap="round"/>
<path d="M221.146 203.215C220.09 203.215 217.804 202.919 218.244 204.582C218.532 205.673 220.274 205.805 221.146 206.193C221.588 206.389 221.693 206.596 221.693 207.112C221.693 207.627 222.103 207.901 222.103 208.411C222.103 208.81 221.402 208.933 221.078 208.753C220.787 208.591 220.373 208.138 220.052 208.138" stroke="white" stroke-linecap="round"/>
<path d="M224.975 202.667C224.975 203.693 224.975 204.719 224.975 205.744C224.975 206.108 225.356 208.044 224.838 207.18" stroke="white" stroke-linecap="round"/>
<path d="M222.513 202.941H225.932" stroke="white" stroke-linecap="round"/>
<path d="M228.257 202.804C228.257 204.315 228.667 208.828 228.667 207.317" stroke="white" stroke-linecap="round"/>
<path d="M227.847 203.351C228.679 203.351 229.463 203.214 230.308 203.214" stroke="white" stroke-linecap="round"/>
<path d="M228.941 206.086H230.582" stroke="white" stroke-linecap="round"/>
<path d="M228.804 208.548C229.342 208.548 229.797 208.685 230.308 208.685" stroke="white" stroke-linecap="round"/>
<path d="M232.496 202.667C232.496 203.862 232.569 205.071 232.633 206.223C232.671 206.902 232.77 207.458 232.77 208.138" stroke="white" stroke-linecap="round"/>
<path d="M232.496 202.804C233.232 202.822 234.821 202.954 234.821 203.83C234.821 204.222 233.693 206.018 233.317 205.266" stroke="white" stroke-linecap="round"/>
<path d="M233.043 206.223C233.386 207.05 233.776 207.274 234.381 207.758C234.611 207.942 235.219 208.36 235.095 207.864" stroke="white" stroke-linecap="round"/>
</svg>
