<svg width="256" height="256" viewBox="0 0 256 256" fill="none" xmlns="http://www.w3.org/2000/svg">
<path d="M221.086 218.497C212.326 218.497 203.365 217.082 194.682 217.082C193.442 217.082 191.853 217.599 191.853 216.034C191.853 213.983 192.381 211.762 192.822 209.774C193.4 207.175 193.268 204.486 193.268 201.758C193.268 195.982 193.739 190.226 193.739 184.549C193.739 181.582 193.902 180.047 196.83 181.72C198.038 182.41 198.967 182.023 199.973 183.03C200.682 183.738 201.124 184.467 201.755 185.256C202.944 186.743 207.017 186.435 208.827 186.435C210.084 186.435 211.342 186.435 212.599 186.435C214.209 186.435 214.478 185.713 215.69 185.02C216.722 184.43 218.116 183.997 218.729 182.925C219.041 182.377 220.571 180.036 220.615 180.777C220.776 183.527 219.672 185.849 219.672 188.321C219.672 190.733 219.176 193.751 219.698 196.1C220.353 199.049 221.086 202.503 221.086 205.53C221.086 210.167 221.086 224.076 221.086 219.44" stroke="black" stroke-width="3" stroke-linecap="round"/>
<path d="M219.2 193.979C223.485 193.979 227.435 193.507 231.695 193.507C233.361 193.507 237.912 193.212 238.06 195.865C238.159 197.65 238.416 200.037 238.034 201.758C237.618 203.628 237 205.307 235.467 206.5C234.021 207.624 231.935 207.649 230.621 208.7C228.616 210.304 224.522 211.424 222.029 211.424" stroke="black" stroke-width="3" stroke-linecap="round"/>
<path d="M195.625 180.777C200.369 178 203.914 176.533 209.403 176.533C211.08 176.533 214.957 176.045 214.957 178.184C214.957 180.237 217.026 179.729 217.786 181.248" stroke="black" stroke-width="3" stroke-linecap="round"/>
<path d="M202.226 151.072C199.496 151.072 195.127 152.157 197.275 156.023C197.881 157.114 199.116 157.183 199.973 158.04C200.919 158.986 201.034 160.68 201.99 161.445C203.217 162.427 203.995 167.104 204.112 168.623C204.22 170.026 204.982 171.486 204.557 172.971C204.215 174.169 202.048 174.214 201.283 173.704" stroke="black" stroke-width="3" stroke-linecap="round"/>
<path d="M212.128 153.43C210.217 154.878 208.827 156.456 208.827 158.852C208.827 160.386 210.267 161.261 211.289 162.284C212.575 163.569 213.184 171.347 210.713 171.347" stroke="black" stroke-width="3" stroke-linecap="round"/>
<path d="M216.377 182.573C215.968 182.653 215.556 182.666 215.144 182.743C214.755 182.815 214.339 182.958 213.942 182.969C213.86 182.972 213.518 182.973 213.614 183.07C213.717 183.173 213.429 183.273 213.347 183.309C212.718 183.589 211.859 183.706 211.163 183.706C210.69 183.706 210.257 183.649 209.785 183.649C209.764 183.649 210.014 183.649 209.904 183.649C209.209 183.649 208.518 183.706 207.824 183.706C207.164 183.706 206.503 183.706 205.842 183.706C205.482 183.706 205.127 183.762 204.766 183.762C204.439 183.762 204.224 183.665 203.916 183.58C203.737 183.53 203.436 183.436 203.293 183.309C203.185 183.213 203.023 183.049 202.897 182.982C202.68 182.868 202.454 182.765 202.217 182.699C201.974 182.631 201.941 182.494 201.735 182.403C201.213 182.171 200.808 181.74 200.319 181.468C200.111 181.353 199.956 181.149 199.769 180.999C199.672 180.922 199.632 180.873 199.542 180.773C199.427 180.645 199.562 180.704 199.696 180.704C200.618 180.704 201.489 181.029 202.412 181.103C202.702 181.127 202.976 181.157 203.271 181.157C203.69 181.157 204.095 181.044 204.514 181.044C205.146 181.044 205.777 181.044 206.408 181.044C207.694 181.044 208.977 181.016 210.26 180.987C211.254 180.964 212.399 180.71 213.319 181.157C213.633 181.31 214.068 181.553 214.423 181.553C214.693 181.553 214.958 181.765 215.188 181.881C215.496 182.035 215.783 181.97 216.119 182.066C216.546 182.188 215.261 182.346 214.817 182.346C213.94 182.346 213.063 182.346 212.186 182.346C211.464 182.346 210.827 182.555 210.122 182.683C209.412 182.812 208.645 182.755 207.925 182.843C206.548 183.013 205.203 183.083 203.815 183.083C203.455 183.083 203.121 182.896 202.783 182.799C202.644 182.76 201.964 182.373 202.104 182.233" stroke="#915107" stroke-linecap="round"/>
<path d="M201.481 181.553C202.412 181.553 203.319 181.667 204.253 181.667C204.905 181.667 205.558 181.667 206.21 181.667C206.627 181.667 207.045 181.836 207.472 181.836C208.005 181.836 208.538 181.836 209.071 181.836C209.596 181.836 210.102 181.553 210.625 181.553C210.967 181.553 211.309 181.553 211.651 181.553C212.16 181.553 212.668 181.553 213.177 181.553C213.269 181.553 212.898 181.548 212.834 181.556C212.461 181.606 212.121 181.723 211.736 181.723C211.301 181.723 210.978 181.819 210.556 181.906C209.928 182.034 209.242 182.261 208.605 182.29C208.107 182.312 207.568 182.397 207.088 182.504C206.735 182.582 206.304 182.516 205.943 182.516C205.594 182.516 205.231 182.629 204.907 182.629C204.568 182.629 204.228 182.629 203.888 182.629C203.728 182.629 203.557 182.598 203.406 182.545C203.296 182.505 203.097 182.403 202.982 182.403C202.873 182.403 202.613 182.345 202.613 182.488C202.613 182.6 202.714 182.745 202.809 182.799C202.971 182.892 203.01 183.253 203.01 183.422C203.01 183.915 202.788 183.553 202.5 183.536C202.463 183.534 202.238 183.445 202.305 183.426C202.423 183.392 202.585 183.457 202.698 183.482C202.924 183.532 203.223 183.555 203.435 183.649C203.664 183.751 203.797 184.143 204.086 184.159C204.348 184.173 204.57 184.258 204.822 184.272C205.359 184.302 205.914 184.442 206.465 184.442C207.015 184.442 207.572 184.555 208.136 184.555C208.506 184.555 208.856 184.442 209.215 184.442C209.688 184.442 210.163 184.397 210.628 184.326C211.946 184.123 213.307 183.955 214.565 183.536" stroke="#915107" stroke-linecap="round"/>
<path d="M215.981 182.913C215.578 183.461 215.214 183.874 214.621 184.203C214.527 184.255 214.387 184.316 214.282 184.329C214.189 184.34 214.11 184.471 214.024 184.496C213.766 184.569 213.392 184.782 213.12 184.782C212.765 184.782 212.393 184.861 212.073 185.021C211.936 185.089 211.769 185.072 211.619 185.109C211.367 185.172 211.126 185.287 210.88 185.373C210.521 185.499 210.085 185.462 209.706 185.462C209.262 185.462 208.835 185.518 208.391 185.518C207.964 185.518 207.607 185.521 207.201 185.405C206.909 185.321 206.711 185.292 206.396 185.292C206.145 185.292 205.894 185.292 205.644 185.292C205.424 185.292 204.988 185.371 204.794 185.263C204.669 185.194 204.506 185.255 204.369 185.207C204.187 185.142 203.982 185.129 203.79 185.122C203.466 185.11 203.101 184.742 202.868 184.555C202.786 184.489 202.791 184.408 202.698 184.357C202.575 184.288 202.454 184.283 202.33 184.228C202.251 184.193 202.079 184.185 202.022 184.127C201.964 184.069 201.962 183.847 201.934 183.762" stroke="#915107" stroke-linecap="round"/>
<path d="M211.959 183.309C211.024 183.309 210.088 183.309 209.152 183.309C209.028 183.309 208.57 183.385 208.492 183.253C208.445 183.174 208.424 183.081 208.529 183.039C208.713 182.965 209.032 183.026 209.228 183.026C209.482 183.026 209.736 183.026 209.989 183.026C210.726 183.026 211.462 183.026 212.198 183.026C212.771 183.026 213.312 182.819 213.872 182.799C213.926 182.798 214.17 182.779 214.112 182.812C213.931 182.914 213.774 183.079 213.602 183.196C213.238 183.443 212.854 183.556 212.469 183.718C211.895 183.96 211.396 184.168 210.883 184.543C210.796 184.606 210.601 184.628 210.669 184.782C210.697 184.846 210.773 185.008 210.644 185.008C209.983 185.008 209.3 184.952 208.63 184.952C208.075 184.952 207.586 185.019 207.075 185.235C206.695 185.396 206.309 185.631 205.886 185.631C205.412 185.631 205.166 185.231 204.753 185.078C204.514 184.989 204.381 184.837 204.187 184.681C203.969 184.507 203.045 184.852 202.953 184.669" stroke="#915107" stroke-linecap="round"/>
<path d="M198.762 181.044C199.133 181.325 199.606 181.498 200.008 181.711C200.136 181.779 200.24 181.889 200.376 181.95C200.55 182.027 200.594 182.24 200.744 182.334C200.966 182.473 201.132 182.681 201.367 182.812C201.532 182.903 202.16 183.165 202.16 183.366" stroke="#915107" stroke-linecap="round"/>
<path d="M215.868 183.026C216.144 182.972 216.595 182.9 216.83 182.743" stroke="#915107" stroke-linecap="round"/>
</svg>
