<svg width="256" height="256" viewBox="0 0 256 256" fill="none" xmlns="http://www.w3.org/2000/svg">
<path d="M196.065 213.214C197.407 213.999 198.306 214.473 199.295 215.521C199.755 216.008 200.118 216.678 200.68 217.008C201.983 217.775 203.078 219.496 204.474 220.033C206.353 220.756 207.485 221.446 209.549 221.52C211.958 221.606 214.352 221.981 216.83 221.981C220.759 221.981 224.36 222.517 227.699 220.392C229.059 219.526 230.786 218.957 232.287 218.29C233.805 217.615 234.54 216.077 236.21 215.521" stroke="black" stroke-width="3" stroke-linecap="round"/>
<path d="M194.681 211.83C194.681 200.552 195.143 189.347 195.143 178.094C195.143 167.998 196.065 158.091 196.065 147.922C196.065 145.538 196.065 143.154 196.065 140.77C196.065 136.138 197.128 141.087 198.014 142.616C199.524 145.224 202.714 146.152 204.833 148.153C207.441 150.617 211.021 152.348 214.522 153.126C217.563 153.802 220.639 153.69 223.751 153.69C226.455 153.69 230.672 150.835 230.672 147.922C230.672 146.943 231.604 145.837 232.287 145.154C233.521 143.92 232.98 147.38 232.98 148.178C232.98 155.41 232.518 162.757 232.518 170.045C232.518 174.874 232.015 179.97 232.877 184.708C233.703 189.25 234.364 194.291 234.364 198.91C234.364 201.557 233.944 204.584 234.723 207.113C235.121 208.407 234.755 210.025 234.825 211.368C234.884 212.483 235.748 213.439 235.748 214.598" stroke="black" stroke-width="3" stroke-linecap="round"/>
<path d="M233.441 164.303C237.106 164.303 240.266 162.918 243.823 162.918C247.305 162.918 247.745 163.232 247.745 166.636C247.745 169.334 248.207 172.099 248.207 174.685C248.207 177.959 249.591 180.706 249.591 183.913C249.591 186.278 252.492 199.833 249.129 199.833C248.097 199.833 246.588 199.553 245.669 200.063C244.664 200.621 242.855 201.678 241.747 201.678C240.422 201.678 234.825 204.937 234.825 202.601" stroke="black" stroke-width="3" stroke-linecap="round"/>
<path d="M233.441 172.147C235.594 172.147 237.748 172.147 239.901 172.147C242.381 172.147 241.238 172.789 241.772 174.659C242.564 177.431 243.592 179.361 243.592 182.529C243.592 185.528 243.592 188.528 243.592 191.527C243.592 194.097 238.056 194.297 237.132 192.45" stroke="black" stroke-width="3" stroke-linecap="round"/>
<path d="M196.527 140.77C201.842 140.681 206.684 138.463 211.985 138.463C214.984 138.463 217.983 138.463 220.982 138.463C223.539 138.463 226.35 139.75 228.006 141.59C228.655 142.311 228.365 143.726 228.365 144.692C228.365 145.603 229.249 146.479 229.75 147.23" stroke="black" stroke-width="3" stroke-linecap="round"/>
<path d="M214.522 170.763C214.522 172.954 214.061 174.905 214.061 176.992C214.061 178.36 214.41 180.268 214.035 181.581C213.576 183.188 210.116 176.174 209.934 175.172C209.627 173.484 209.371 172.451 208.524 170.968C207.671 169.476 207.891 168.07 207.242 166.61C206.717 165.428 207.375 163.811 205.858 165.328C205.35 165.836 204.558 166.663 203.91 166.969C203.367 167.224 202.71 165.947 203.448 166.251C205.401 167.055 206.217 167.715 206.217 169.84C206.217 173.07 206.217 176.3 206.217 179.53C206.217 183.346 204.833 187.043 204.833 190.835C204.833 194.273 204.371 197.811 204.371 201.114C204.371 203.043 205.09 204.094 205.294 205.831C205.364 206.427 208.725 206.514 209.447 206.754" stroke="#EAB90E" stroke-width="13" stroke-linecap="round"/>
<path d="M222.367 166.148C222.367 169.071 222.367 171.993 222.367 174.916C222.367 176.759 222.59 178.412 222.803 180.222C222.917 181.196 222.281 183.69 222.931 184.503C223.888 185.699 223.673 189.318 223.982 190.86C224.671 194.305 224.674 197.935 224.674 201.448C224.674 202.858 225.135 204.248 225.135 205.831C225.135 206.747 225.595 207.327 225.956 208.138C226.479 209.315 225.072 208.942 224.443 209.292C223.716 209.696 221.325 210.445 220.521 210.445C218.271 210.445 217.904 210.543 216.932 208.6C215.035 204.806 213.831 199.838 213.6 195.68C213.304 190.354 212.05 185.095 211.062 179.761C210.238 175.312 209.136 171.312 206.909 167.302C206.289 166.185 205.908 163.232 204.833 162.56C203.855 161.949 203.91 158.074 203.91 159.227" stroke="#EAB90E" stroke-width="13" stroke-linecap="round"/>
<path d="M207.601 160.15C213.798 160.15 219.953 161.996 226.058 161.996" stroke="#EAB90E" stroke-width="13" stroke-linecap="round"/>
<path d="M202.525 174.916C203.33 175.501 206.339 176.202 205.063 177.223C204.369 177.778 203.91 178.928 203.91 179.761C203.91 181.988 203.448 184.086 203.448 186.221C203.448 190.989 203.448 195.757 203.448 200.525C203.448 202.002 202.698 206.194 204.371 206.293C204.961 206.327 205.432 208.023 205.858 208.497C206.601 209.323 207.911 209.166 208.626 209.881C210.306 211.561 210.821 211.368 213.138 211.368C215.123 211.368 216.843 212.291 218.675 212.291" stroke="#EAB90E" stroke-width="13" stroke-linecap="round"/>
<path d="M220.06 212.291H225.135" stroke="#EAB90E" stroke-width="13" stroke-linecap="round"/>
<path d="M201.694 208.768C201.2 208.768 200.701 208.749 200.208 208.768C199.886 208.78 199.784 209.076 199.497 209.14C199.115 209.224 198.777 209.532 198.35 209.532C197.277 209.532 197.351 209.956 198.106 210.636C198.237 210.754 198.769 211.194 198.934 211.241C199.492 211.4 199.423 211.555 199.879 211.91C200.441 212.347 201.056 212.89 201.503 213.449C201.725 213.726 202.325 213.931 202.649 214.075C203.194 214.317 203.473 214.728 203.986 215.03C204.538 215.355 204.854 216.001 205.419 216.315C206.056 216.669 206.658 217.175 207.425 217.175C208.326 217.175 208.888 217.702 209.718 217.748C210.032 217.765 211.451 218.195 211.629 218.416C211.915 218.775 213.454 218.703 213.921 218.703C215.736 218.703 217.551 218.703 219.366 218.703C221.398 218.703 224.245 219.134 226.075 218.321C227.391 217.736 228.674 217.125 230.013 216.601C230.498 216.411 231.69 216.244 231.69 215.646C231.69 215.209 231.861 214.691 231.307 214.691" stroke="#EAB90E" stroke-width="3" stroke-linecap="round"/>
<path d="M233.982 214.691C232.246 214.319 232.454 214.181 232.454 212.791C232.454 211.978 232.385 211.266 232.273 210.488C232.176 209.805 231.934 208.902 231.594 208.29C231.203 207.586 231.307 206.21 231.307 205.425C231.307 204.133 231.307 202.842 231.307 201.55C231.307 200.688 230.972 199.917 230.925 199.024C230.866 197.892 231.204 196.519 230.883 195.437C230.661 194.688 230.543 193.692 230.543 192.91C230.543 192.066 230.352 191.276 230.352 190.416C230.352 189.651 230.73 187.901 230.066 187.37C229.657 187.043 229.97 185.008 229.97 184.419C229.97 183.142 229.97 181.865 229.97 180.587C229.97 180.163 229.819 179.198 229.63 178.772C229.191 177.783 229.397 176.201 229.397 175.142C229.397 174.468 229.735 172.603 229.354 172.128C228.968 171.645 229.137 170.513 229.588 170.175" stroke="#EAB90E" stroke-width="3" stroke-linecap="round"/>
<path d="M229.015 165.398C229.046 166.718 229.779 167.943 229.779 169.219" stroke="#EAB90E" stroke-width="3" stroke-linecap="round"/>
<path d="M198.446 154.89C198.663 154.89 201.544 154.89 200.123 154.89C199.182 154.89 198.241 154.89 197.299 154.89C196.091 154.89 197.297 154.89 197.873 154.89C198.728 154.89 199.587 154.866 200.441 154.89C201.954 154.933 203.571 155.509 205.09 155.697C206.696 155.895 208.36 155.993 209.952 156.27C212.313 156.681 214.586 156.801 216.978 156.801C218.761 156.801 220.545 156.801 222.328 156.801C223.004 156.801 223.517 156.759 224.143 156.62C224.753 156.485 225.455 156.781 226.043 156.514C226.556 156.281 227.343 156.538 227.677 155.952C227.814 155.712 228.664 155.845 228.919 155.845C230.252 155.845 228.333 156.61 227.868 156.61" stroke="#EAB90E" stroke-width="3" stroke-linecap="round"/>
<path d="M197.873 153.935C197.873 153.297 197.708 151.476 198.403 152.789C198.535 153.036 198.841 153.334 199.061 153.51C199.506 153.866 200.429 153.798 200.972 153.892C201.994 154.07 203.044 154.126 204.082 154.126C205.52 154.126 207.183 154.068 208.561 154.413C209.614 154.676 210.82 154.549 211.905 154.699C212.354 154.761 214.106 154.686 214.303 155.081" stroke="#EAB90E" stroke-width="3" stroke-linecap="round"/>
</svg>
