<svg width="256" height="256" viewBox="0 0 256 256" fill="none" xmlns="http://www.w3.org/2000/svg">
<path d="M99.8303 192.604C99.8303 191.318 99.2174 187.472 100.087 186.439C101.14 185.189 101.72 182.33 103.683 182.33C105.397 182.33 105.224 182.715 106.251 183.871C106.896 184.596 107.022 186.03 107.022 186.953C107.022 187.437 106.788 188.923 107.422 188.109C108.681 186.489 109.815 181.005 112.416 184.256C113.188 185.222 114.171 186.043 114.841 187.096C115.663 188.387 115.755 190.327 115.755 191.833" stroke="white" stroke-width="2"/>
<path d="M123.203 181.559C123.203 184.616 123.027 187.733 123.332 190.777C123.462 192.078 123.717 193.352 123.717 194.658" stroke="white" stroke-width="2"/>
<path d="M106.412 108.007C104.812 108.358 103.474 108.797 102.821 110.494C102.501 111.327 102.158 111.945 102.549 112.806C102.897 113.571 103.165 114.352 103.539 115.101C104.231 116.486 104.332 118.157 105.466 119.358C106.167 120.1 106.902 119.94 107.831 120.146C108.691 120.337 109.632 120.462 110.511 120.462C111.094 120.462 111.705 120.24 112.21 119.954C112.764 119.641 113.858 119.435 114.137 118.806C114.412 118.19 115.36 117.501 115.399 116.836C115.499 115.123 115.363 113.417 115.556 111.703C115.65 110.871 115.919 110.155 115.399 109.504C114.893 108.873 114.165 108.872 113.542 108.48C112.583 107.876 111.761 106.903 110.59 106.903C109.933 106.903 109.276 106.903 108.619 106.903C107.884 106.903 107.286 107.025 106.64 107.21C106.272 107.315 105.037 107.621 104.836 107.218" stroke="black" stroke-width="2" stroke-linecap="round"/>
<path d="M134.949 108.795C133.123 108.795 130.427 108.832 129.08 110.179C128.102 111.157 127.854 112.564 127.854 113.919C127.854 115.348 127.642 118.128 128.966 119.122C130.509 120.279 132.287 120.619 134.195 120.619C135.083 120.619 135.965 120.935 136.84 120.935C137.939 120.935 140.54 121.007 141.062 119.831C141.755 118.273 141.57 116.318 141.57 114.628C141.57 113.813 141.894 111.987 140.94 111.51C140.275 111.178 140.115 109.787 139.433 109.592C138.817 109.416 138.282 109.147 137.629 109.11C136.965 109.073 136.058 109.007 135.421 108.795" stroke="black" stroke-width="2" stroke-linecap="round"/>
<path d="M116.029 109.268C118.316 108.822 120.778 108.233 123.089 108.918C123.382 109.004 123.936 109.094 124.228 109.11C124.617 109.132 124.954 109.405 125.331 109.426C125.773 109.45 127.196 110.002 127.381 110.371" stroke="black" stroke-width="2" stroke-linecap="round"/>
<path d="M101.209 111.79C100.308 111.79 98.6267 112.089 97.8284 111.633C97.4009 111.388 97.1208 109.883 96.9175 109.426C96.6261 108.77 96.1642 108.352 96.1642 107.612C96.1642 106.703 95.4568 106.349 96.3219 105.484" stroke="black" stroke-width="2" stroke-linecap="round"/>
<path d="M142.201 114.628C144.77 114.628 147.173 114.155 149.768 114.155C151.185 114.155 150.57 113.05 151.31 112.228C151.894 111.579 152.606 110.265 152.606 109.426" stroke="black" stroke-width="2" stroke-linecap="round"/>
<path d="M130.97 113.449C130.103 113.644 130.895 114.409 131.205 114.797C131.614 115.308 131.957 115.826 132.449 116.264C132.666 116.456 132.976 116.5 133.259 116.581C134.043 116.805 135.434 117.095 135.434 115.955C135.434 115.611 135.386 115.305 134.99 115.25C134.329 115.159 133.582 115.18 133.011 114.78C132.752 114.599 132.484 114.428 132.223 114.249C132.015 114.107 131.352 114.091 131.288 113.801C131.142 113.144 131.094 112.353 130.205 112.353C129.692 112.353 129.652 113.349 129.891 113.684C130.222 114.147 130.596 114.579 130.853 115.093C130.975 115.337 131.148 115.535 131.223 115.798C131.304 116.082 131.448 116.472 131.64 116.699C132.214 117.377 132.932 117.892 133.789 118.13C134.155 118.231 134.514 118.46 134.903 118.46C135.471 118.46 136.04 118.46 136.608 118.46C136.961 118.46 137.302 118.382 137.666 118.382C138.096 118.382 138.245 117.806 138.488 117.521C138.645 117.336 138.71 117.081 138.884 116.886C139.102 116.64 139.419 116.328 139.567 116.033C139.697 115.772 139.725 115.217 139.78 114.924C139.866 114.464 140.054 113.956 140.054 113.488C140.054 113.038 139.876 112.588 139.836 112.135C139.805 111.778 139.897 111.041 139.662 110.747C139.486 110.528 139.204 110.082 138.914 110.082C138.513 110.082 138.181 110.317 137.779 110.317C137.284 110.317 136.79 110.317 136.295 110.317C135.525 110.317 134.755 110.317 133.985 110.317C133.398 110.317 132.811 110.317 132.223 110.317C131.899 110.317 131.523 110.264 131.205 110.334C131.021 110.375 130.745 110.338 130.579 110.412C129.904 110.712 129.888 111.591 129.448 112.157C128.988 112.748 129.248 114.059 129.248 114.763C129.248 115.485 129.298 116.025 129.761 116.62C129.968 116.886 130.185 117.061 130.261 117.403C130.314 117.639 130.603 118.039 130.44 118.243C130.182 118.565 130.943 118.539 131.049 118.539C131.323 118.539 131.819 118.451 132.049 118.635C132.658 119.121 133.8 119.475 134.572 119.561C135.478 119.662 136.306 119.843 137.235 119.792C137.489 119.778 137.941 119.493 138.174 119.383C138.459 119.248 138.749 119.245 138.997 119.052C139.559 118.615 139.617 117.923 140.036 117.347C140.331 116.942 140.16 115.882 140.132 115.407C140.121 115.214 139.969 114.92 139.936 114.697C139.86 114.178 139.843 113.644 139.701 113.136C139.557 112.617 139.447 112.55 138.958 112.235C138.549 111.973 138.411 111.94 137.94 111.822C137.232 111.645 136.568 111.648 135.843 111.648C135.115 111.648 134.457 111.812 133.755 111.878C133.42 111.91 133.069 111.883 132.732 111.883C132.339 111.883 131.946 111.883 131.553 111.883C131.35 111.883 131.08 111.759 131.17 111.965C131.378 112.44 131.758 112.744 132.267 112.744C133.092 112.744 133.598 113.4 134.042 113.997C134.401 114.481 134.944 114.82 135.277 115.311C135.661 115.877 136.059 116.521 136.452 117.012C136.724 117.352 136.753 116.752 136.961 116.659C137.366 116.479 137.585 116.086 137.879 115.781C138.268 115.376 138.409 115.296 138.409 114.702C138.409 114.029 138.409 113.356 138.409 112.683C138.409 112.438 138.215 112.509 138.018 112.509C137.5 112.509 137.205 112.794 136.765 113.014C136.291 113.251 135.647 113.371 135.121 113.371C134.608 113.371 134.414 113.407 134.947 113.762C135.341 114.025 135.502 114.138 135.943 114.236C136.139 114.28 136.352 114.341 136.547 114.406C136.772 114.481 136.744 114.513 136.882 114.623C137.089 114.789 136.947 115.432 136.53 115.015" stroke="black" stroke-width="2" stroke-linecap="round"/>
<path d="M132.302 116.424C131.732 116.424 131.335 116.443 130.853 116.777C130.598 116.953 130.251 117.186 129.952 117.268C129.641 117.355 129.375 117.521 129.052 117.521C128.998 117.521 128.75 117.533 128.908 117.634C129.197 117.817 129.893 117.737 130.222 117.791C132.045 118.084 133.56 119.237 135.46 119.317C135.802 119.332 136.199 119.26 136.53 119.365C136.972 119.506 137.416 119.639 137.879 119.696C138.361 119.755 138.775 119.819 139.232 119.718C139.461 119.667 139.658 119.478 139.897 119.478" stroke="black" stroke-width="2" stroke-linecap="round"/>
<path d="M114.448 111.178C114.116 110.899 113.839 110.581 113.525 110.299C113.376 110.164 113.186 110.2 113.038 110.082C112.707 109.817 112.193 109.699 111.824 109.494C111.622 109.382 111.37 109.416 111.159 109.333C110.93 109.245 110.732 109.121 110.493 109.068C110.328 109.031 110.146 108.99 110.023 108.868C109.945 108.789 109.611 108.521 109.514 108.516C109.178 108.496 108.833 108.516 108.496 108.516C108.052 108.516 107.634 108.672 107.204 108.672C106.437 108.672 105.127 109.181 104.699 109.847C104.413 110.29 104.233 110.803 103.911 111.217C103.769 111.4 103.563 111.955 103.563 112.196C103.563 112.591 103.719 112.82 103.876 113.175C104.119 113.72 104.437 114.241 104.677 114.78C104.985 115.473 104.772 116.396 105.251 117.012C105.699 117.588 106.185 118.404 106.93 118.617C107.691 118.834 108.473 118.774 109.279 118.774C109.67 118.774 110.074 118.617 110.454 118.617C110.768 118.617 111.156 118.575 111.433 118.421C111.599 118.329 111.738 118.397 111.903 118.269C112.02 118.178 112.172 118.063 112.299 117.991C112.649 117.79 112.588 117.562 112.821 117.303C113.009 117.094 113.21 116.925 113.386 116.699C113.603 116.42 113.677 116.121 113.839 115.798C114.237 115.002 114.037 114.067 113.86 113.253C113.836 113.142 113.861 112.716 113.699 112.67C113.543 112.625 113.443 112.475 113.351 112.335C113.178 112.07 113.219 112.058 112.882 112.039C112.715 112.03 112.474 111.658 112.373 111.535C112.048 111.138 111.737 110.931 111.633 110.36C111.566 109.992 111.573 109.434 111.298 109.159C111.007 108.868 110.871 108.686 110.493 108.476C110.177 108.301 110.297 109.628 110.297 109.864C110.297 110.306 110.402 110.732 110.376 111.178C110.356 111.513 109.659 111.261 109.597 110.982C109.57 110.861 109.472 110.776 109.44 110.665C109.399 110.52 109.473 110.348 109.432 110.204C109.362 109.961 108.295 110.082 108.087 110.082C107.829 110.082 107.288 109.982 107.087 110.16C106.771 110.441 106.127 110.352 105.756 110.591C105.237 110.924 105.068 111.141 104.99 111.822C104.933 112.32 104.945 112.868 104.973 113.371C104.979 113.481 105.811 112.58 105.947 112.435C106.012 112.366 106.312 112.048 106.256 112.135C106.168 112.271 105.792 113.169 105.964 112.962C106.052 112.857 106.756 111.858 106.887 111.896C107.063 111.946 106.459 113.181 106.4 113.353C106.341 113.523 106.484 113.006 106.495 112.979C106.708 112.48 107.131 112.065 107.557 111.744C107.874 111.504 109.059 110.8 108.757 111.73C108.587 112.257 108.016 112.546 107.835 113.062C107.54 113.906 107.958 113.057 108.201 112.744C108.438 112.437 108.764 112.065 109.166 111.978C109.377 111.933 109.267 112.655 109.262 112.735C109.2 113.704 108.889 116.6 108.966 115.633C109.041 114.693 110.305 114.232 111.124 114.232C111.689 114.232 111.597 114.935 111.276 115.206C110.972 115.464 111.059 115.207 111.198 115.176C111.428 115.125 111.56 115.777 111.611 115.937C111.75 116.369 111.754 115.558 111.785 115.407C111.839 115.142 112.067 114.055 112.529 114.158C112.66 114.187 112.654 114.363 112.642 114.467C112.612 114.738 112.309 114.798 112.085 114.854C111.436 115.016 110.38 115.1 109.915 114.506C109.557 114.05 109.638 113.261 109.675 112.718C109.714 112.163 109.92 112.261 109.967 112.779C110.006 113.217 109.984 113.662 109.984 114.101C109.984 114.244 109.942 114.444 110.097 114.258C110.23 114.1 110.908 113.133 111.22 113.388C111.374 113.514 111.424 113.729 111.159 113.588C110.865 113.432 110.537 112.786 110.215 112.827C108.935 112.987 107.741 113.139 106.652 113.836C106.254 114.091 105.144 114.266 105.46 115.015C105.698 115.58 105.832 115.888 106.382 116.224C106.696 116.416 106.966 116.425 107.322 116.425C107.973 116.425 108.61 116.623 109.201 116.894C109.51 117.036 109.833 116.957 110.158 116.912C110.453 116.871 111.875 116.865 112.003 116.564C112.176 116.155 111.7 115.565 111.394 115.363C110.861 115.011 109.991 115.172 109.393 115.172C108.533 115.172 107.639 115.098 106.782 115.176C106.422 115.209 106.344 115.524 106.182 115.781C106.07 115.958 105.983 116.254 106.182 116.407C106.615 116.741 106.957 117.022 107.322 117.438C107.799 117.983 110.182 117.834 109.458 117.834C109.205 117.834 108.426 117.94 108.348 117.59C108.195 116.898 108.828 116.93 109.279 116.72C110.488 116.159 111.549 115.161 112.534 114.284C112.799 114.048 113.205 113.88 112.764 113.684C112.615 113.617 112.505 113.439 112.373 113.336C112.252 113.242 111.944 113.267 111.785 113.214" stroke="black" stroke-width="2" stroke-linecap="round"/>
<path d="M111.394 112.039C110.983 111.967 110.571 111.84 110.15 111.887C109.828 111.923 109.906 112.446 109.906 112.666C109.906 113.209 109.862 113.414 110.298 112.979" stroke="black" stroke-width="2" stroke-linecap="round"/>
</svg>
