<svg width="256" height="256" viewBox="0 0 256 256" fill="none" xmlns="http://www.w3.org/2000/svg">
<path d="M99.8303 192.604C99.8303 191.318 99.2174 187.472 100.087 186.439C101.14 185.189 101.72 182.33 103.683 182.33C105.397 182.33 105.224 182.715 106.251 183.871C106.896 184.596 107.022 186.03 107.022 186.953C107.022 187.437 106.788 188.923 107.422 188.109C108.681 186.489 109.815 181.005 112.416 184.256C113.188 185.222 114.171 186.043 114.841 187.096C115.663 188.387 115.755 190.327 115.755 191.833" stroke="white" stroke-width="2"/>
<path d="M123.203 181.559C123.203 184.616 123.027 187.733 123.332 190.777C123.462 192.078 123.717 193.352 123.717 194.658" stroke="white" stroke-width="2"/>
<path d="M102.78 114.988C105.804 114.988 108.831 115.183 111.764 115.183" stroke="black" stroke-width="2" stroke-linecap="round"/>
<path d="M130.124 115.378C132.615 115.378 135.592 115.769 137.936 114.988" stroke="black" stroke-width="2" stroke-linecap="round"/>
<path d="M16.7866 75C22.0554 75 27.1046 76.0106 32.2493 77.0395C33.6269 77.3151 35.2398 77.9882 36.6366 77.9882C38.3345 77.9882 36.6271 77.9346 35.9015 78.083C32.7634 78.7249 29.374 80.0473 26.6998 81.8301C23.7977 83.7649 20.5704 86.2198 17.3084 87.4744C16.712 87.7038 10.9884 90.6066 11 90.6998C11.0444 91.055 20.4238 90.7829 21.0555 90.7946C26.1434 90.8889 30.9143 92.0753 35.9963 92.0753" stroke="#5CB3E4" stroke-width="2" stroke-linecap="round"/>
<path d="M29.1663 101.894C32.5094 101.894 35.665 102.32 38.9845 102.32C40.5813 102.32 42.7646 101.906 44.2969 102.344C44.9853 102.541 40.434 104.891 40.0755 105.119C38.0156 106.43 35.5949 107.364 33.6722 108.937C32.9867 109.498 30.9452 110.979 31.0635 112.044C31.1721 113.021 34.4966 111.298 34.7157 111.285C36.4423 111.183 38.2035 111.285 39.9332 111.285C40.9652 111.285 43.9192 112.44 42.8265 111.712" stroke="#5CB3E4" stroke-width="2" stroke-linecap="round"/>
<path d="M45.3877 119.823C46.4039 119.823 53.9253 119.293 53.9253 120.463C53.9253 122.183 52.0756 121.056 51.2692 121.862C50.4633 122.668 50.0524 123.885 49.3245 124.613C49.0116 124.926 47.0073 125.652 46.4549 125.775C45.9982 125.877 45.3584 126.434 45.9094 126.985C46.2492 127.325 47.3415 126.717 47.7355 126.629C50.6164 125.989 52.4659 126.593 55.206 127.506" stroke="#5CB3E4" stroke-width="2" stroke-linecap="round"/>
</svg>
