<svg width="256" height="256" viewBox="0 0 256 256" fill="none" xmlns="http://www.w3.org/2000/svg">
<path d="M99.8303 192.604C99.8303 191.318 99.2174 187.472 100.087 186.439C101.14 185.189 101.72 182.33 103.683 182.33C105.397 182.33 105.224 182.715 106.251 183.871C106.896 184.596 107.022 186.03 107.022 186.953C107.022 187.437 106.788 188.923 107.422 188.109C108.681 186.489 109.815 181.005 112.416 184.256C113.188 185.222 114.171 186.043 114.841 187.096C115.663 188.387 115.755 190.327 115.755 191.833" stroke="white" stroke-width="2"/>
<path d="M123.203 181.559C123.203 184.616 123.027 187.733 123.332 190.777C123.462 192.078 123.717 193.352 123.717 194.658" stroke="white" stroke-width="2"/>
<path d="M132.171 113.636C128.173 113.717 126.017 117.191 126.229 120.993C126.287 122.049 127.751 124.452 128.492 125.237C129.228 126.017 129.942 126.797 130.599 127.642C131.338 128.593 131.682 127.698 132.469 127.501C135.402 126.768 137.855 125.868 140.377 124.247C142.008 123.198 141.449 120.141 139.968 119.295C138.442 118.423 137.021 117.086 135.44 116.182C134.879 115.862 134.606 114.961 134.089 114.547C133.742 114.27 132.874 113.846 132.454 113.636" stroke="black" stroke-width="2" stroke-linecap="round"/>
<path d="M105.573 112.787C104.24 112.787 101.04 112.358 100.259 113.919C99.9048 114.627 99.6518 115.448 99.2846 116.182C98.6575 117.436 98.5706 119.095 98.7973 120.568C99.0069 121.931 100.188 124.105 101.611 124.105C103.231 124.105 106.502 124.783 107.978 123.964C109.488 123.124 109.622 123.019 110.084 121.401C110.383 120.354 111.752 118.133 111.169 117.031C110.561 115.883 109.259 115.777 108.261 115.333C107.317 114.914 106.634 113.246 106.138 112.378C105.983 112.106 105.24 112.953 105.007 113.07" stroke="black" stroke-width="2" stroke-linecap="round"/>
<path d="M135.149 124.14C134.879 124.14 133.769 124.305 133.582 123.978C133.307 123.497 133.117 122.965 132.873 122.468C132.561 121.831 132.159 121.103 132.118 120.377C132.076 119.62 131.79 118.725 131.41 118.078C131.083 117.522 130.115 118.008 129.766 118.287C129.632 118.395 129.466 118.946 129.377 119.123C129.252 119.374 129.11 119.579 128.936 119.802C128.523 120.334 128.669 121.212 128.669 121.841C128.669 122.264 129.402 123.323 129.795 123.49C130.361 123.729 130.732 124.299 131.021 124.82C131.254 125.24 131.518 125.917 132.066 125.917C132.803 125.917 133.486 125.555 134.186 125.313C134.85 125.083 135.467 124.596 136.09 124.268C136.336 124.139 136.719 123.786 136.979 123.728C137.213 123.676 137.773 123.328 137.914 123.147C138.127 122.873 139.33 122.28 139.33 121.997C139.33 121.246 138.616 121.18 137.972 121.109C137.438 121.05 136.953 119.901 136.613 119.541C136.367 119.281 136.128 118.923 135.829 118.757C135.555 118.605 135.215 118.457 134.993 118.234C134.546 117.788 134.263 117.167 133.738 116.876C133.275 116.618 132.85 116.357 132.385 116.092C132.119 115.939 131.8 115.774 131.572 115.592C131.348 115.413 131.037 115.883 130.812 115.883C130.378 115.883 129.618 116.333 129.377 116.719C128.829 117.597 127.713 118.937 128.048 120.11C128.136 120.418 128.753 120.984 128.983 121.213C129.25 121.481 129.368 121.657 129.557 121.997C129.703 122.259 129.808 122.533 129.946 122.781C130.254 123.335 130.689 123.805 130.992 124.349C131.168 124.667 131.652 124.558 131.956 124.558C132.522 124.558 132.5 124.231 132.327 123.722C132.131 123.144 131.764 122.785 131.543 122.247C131.354 121.785 131.335 121.251 131.073 120.819C131.013 120.719 130.889 120.518 130.87 120.412C130.827 120.178 130.7 118.825 131.178 119.227C131.683 119.653 132.431 119.813 132.954 120.279C133.766 121 134.275 122.056 135.254 122.491C135.51 122.605 135.881 123.021 135.881 122.52C135.881 121.888 135.925 121.365 135.568 120.819C135.359 120.5 135.128 120.444 134.836 120.215C134.575 120.01 134.096 119.756 133.947 119.489C133.82 119.259 133.47 118.222 133.558 118.31C133.72 118.472 134.15 118.86 134.366 118.908C134.65 118.971 134.943 119.107 135.254 119.123C135.627 119.143 135.939 119.437 136.299 119.437" stroke="#F50B0B" stroke-width="2" stroke-linecap="round"/>
<path d="M138.181 123.199C137.885 123.084 136.849 122.761 136.694 122.468C136.562 122.218 136.455 122 136.253 121.794C135.251 120.774 134.303 119.702 133.233 118.751C133.154 118.681 132.625 118.07 132.455 118.205C132.341 118.296 132.164 118.33 132.014 118.264C131.195 117.9 129.994 118.456 129.319 118.914C129.015 119.12 128.602 119.42 128.437 119.75C128.288 120.048 128.308 120.378 128.17 120.691C127.877 121.349 128.332 122.152 128.669 122.758C128.852 123.087 129.019 123.461 129.296 123.722C129.468 123.884 129.612 123.722 129.819 123.722C131.163 123.722 132.416 124.336 133.709 124.686C134.492 124.898 135.491 125.505 136.09 124.872C136.516 124.422 136.949 124.016 137.449 123.641C137.879 123.318 137.963 123.132 138.262 122.758C138.445 122.529 138.235 121.927 138.366 121.632C138.487 121.361 138.503 120.377 138.181 120.377C137.787 120.377 137.653 120.113 137.344 119.959" stroke="#F50B0B" stroke-width="2" stroke-linecap="round"/>
<path d="M107.973 118.809C107.011 118.309 106.332 117.879 105.883 116.928C105.777 116.704 105.567 116.277 105.755 116.069C105.934 115.87 106.04 115.709 105.778 115.592C105.571 115.5 105.295 115.518 105.128 115.383C104.968 115.255 104.617 115.064 104.419 114.965C104.06 114.785 103.249 114.942 102.846 114.942C102.516 114.942 102.187 114.942 101.858 114.942C101.437 114.942 101.606 115.009 101.44 115.308C101.211 115.721 101.088 116.345 100.918 116.823C100.753 117.284 100.447 117.752 100.447 118.234C100.447 118.633 100.447 119.032 100.447 119.431C100.447 119.879 100.75 119.919 100.947 120.273C101.175 120.683 101.363 121.186 101.388 121.632C101.429 122.368 101.881 122.468 102.515 122.468C103.509 122.468 104.399 122.259 105.412 122.259C105.841 122.259 106.459 122.409 106.608 121.887C106.741 121.421 106.997 120.667 107.45 120.4C107.678 120.267 107.854 119.543 107.996 119.274C108.178 118.93 108.553 118.534 108.862 118.287C109.015 118.164 107.686 117.239 107.555 117.137C106.792 116.544 105.477 116.823 104.576 116.823C103.578 116.823 103.267 117.075 102.59 117.602C102.304 117.824 102.456 116.933 102.485 116.945C102.66 117.015 102.538 118.284 102.538 118.519C102.538 119.204 102.576 119.902 102.538 120.586C102.51 121.092 101.93 120.029 101.911 119.982C101.799 119.71 101.537 119.287 101.806 119.018C101.969 118.855 102.253 120.245 102.305 120.435C102.409 120.809 102.633 120.778 102.956 120.795C103.65 120.832 104.315 121.201 104.988 121.324C105.331 121.386 105.36 121.465 105.36 121.051C105.36 120.758 105.435 120.329 105.302 120.064C105.149 119.758 104.826 119.699 104.681 119.378C104.569 119.133 104.479 118.364 104.158 118.293C103.903 118.236 103.836 118.709 103.955 118.862C104.125 119.081 104.581 119.198 104.843 119.28C105.323 119.43 105.803 119.555 106.248 119.802C106.66 120.031 106.458 120.301 106.533 120.795C106.631 121.446 106.804 122.429 107.474 121.759C107.748 121.484 108.001 121.221 108.083 120.848C108.184 120.393 108.51 120.024 108.606 119.593C108.725 119.057 108.805 118.518 108.914 117.973" stroke="#F50B0B" stroke-width="2" stroke-linecap="round"/>
</svg>
