<svg width="256" height="256" viewBox="0 0 256 256" fill="none" xmlns="http://www.w3.org/2000/svg">
<path d="M99.8303 192.604C99.8303 191.318 99.2174 187.472 100.087 186.439C101.14 185.189 101.72 182.33 103.683 182.33C105.397 182.33 105.224 182.715 106.251 183.871C106.896 184.596 107.022 186.03 107.022 186.953C107.022 187.437 106.788 188.923 107.422 188.109C108.681 186.489 109.815 181.005 112.416 184.256C113.188 185.222 114.171 186.043 114.841 187.096C115.663 188.387 115.755 190.327 115.755 191.833" stroke="white" stroke-width="2"/>
<path d="M123.203 181.559C123.203 184.616 123.027 187.733 123.332 190.777C123.462 192.078 123.717 193.352 123.717 194.658" stroke="white" stroke-width="2"/>
<path d="M99.3431 111.634C107.584 111.634 115.719 109.613 124.034 110.369C128.411 110.767 132.773 112.273 137.184 112.273C139.474 112.273 141.935 112.911 144.255 112.911" stroke="black" stroke-linecap="round"/>
<path d="M98.7045 112.273C98.7045 115.348 99.2287 117.39 100.407 120.042C101.365 122.197 102.481 124.546 104.239 126.108C106.643 128.245 111.464 128.125 114.136 126.64C115.571 125.843 116.728 124.4 117.388 122.915C117.669 122.283 118.625 120.148 119.351 120.148C120.031 120.148 120.587 120.361 121.267 120.361C122.221 120.361 122.331 120.34 122.331 121.319C122.331 122.634 123.363 123.658 124.566 124.192C125.616 124.659 127.101 124.61 127.913 125.422C128.741 126.25 131.369 126.065 132.335 125.635C133.39 125.166 134.901 124.888 136.06 124.63C137.513 124.307 138.87 122.979 139.88 121.969C140.417 121.432 141.099 121.089 141.583 120.468C142.013 119.914 141.914 119.352 141.914 118.658C141.914 117.352 142.472 115.905 143.191 114.827" stroke="black" stroke-linecap="round"/>
<path d="M143.191 115.891C143.191 114.428 143.108 113.538 144.208 112.438C144.522 112.124 144.44 113.564 144.042 113.763" stroke="black" stroke-linecap="round"/>
<path d="M144.042 113.763C144.999 114.095 145.89 115.02 146.821 115.253C148.014 115.551 149.312 115.656 150.428 116.151C151.017 116.413 154.23 116.515 152.556 115.678" stroke="black" stroke-linecap="round"/>
<path d="M142.765 117.807C143.642 117.807 144.711 117.644 145.532 118.02C145.971 118.22 146.588 118.621 147.069 118.658C147.974 118.728 148.681 119.46 149.576 119.51C149.955 119.531 151.663 119.866 151.705 119.51C151.769 118.965 153.139 117.779 152.343 117.381" stroke="black" stroke-linecap="round"/>
<path d="M98.9174 118.233C96.7972 118.233 94.5592 117.392 93.5961 115.466" stroke="black" stroke-linecap="round"/>
<path d="M98.066 113.124C97.1893 113.124 95.7941 113.157 94.9914 112.698C94.5164 112.427 94.981 111.58 95.2989 111.421" stroke="black" stroke-linecap="round"/>
<path d="M137.869 117.218C135.859 117.185 133.99 116.546 131.986 116.546C130.838 116.546 129.69 116.546 128.541 116.546C127.414 116.546 126.431 116.207 125.348 115.873C123.982 115.453 122.787 114.529 121.315 114.529C120.108 114.529 118.94 114.025 117.701 114.025C116.301 114.025 114.97 113.857 113.668 113.857C111.735 113.857 109.803 113.857 107.87 113.857C106.329 113.857 104.789 113.857 103.248 113.857C101.673 113.857 101.781 115.666 102.277 116.714C102.6 117.394 102.914 118.166 103.416 118.73C103.554 118.886 104.082 119.131 104.089 119.235C104.108 119.57 104.069 119.908 104.089 120.243C104.125 120.855 104.945 121.871 105.265 122.39C105.655 123.024 105.741 123.279 106.311 123.735C106.673 124.025 107.006 124.493 107.366 124.781C107.664 125.019 108.874 125.12 109.214 124.855C110.438 123.903 111.997 123.842 113.332 123.175C114.032 122.824 114.725 122.34 115.096 121.672C115.48 120.981 115.446 120.177 115.937 119.468C116.644 118.446 116.409 118.135 115.265 117.881C114.377 117.684 113.037 117.745 112.239 117.302C111.568 116.929 110.783 117.299 110.139 117.013C109.562 116.756 108.18 116.731 107.618 117.013C106.906 117.368 105.34 117.722 105.34 117.722C105.34 117.722 106.429 118.034 106.946 118.264C107.592 118.551 108.741 118.444 108.794 119.403C108.82 119.868 110.149 119.952 110.101 120.075C109.991 120.359 109.599 121.14 109.84 120.953C110.117 120.737 110.655 120.761 110.979 120.616C111.257 120.493 111.697 120.576 111.95 120.374C112.224 120.154 112.332 119.882 112.66 119.702C113.984 118.973 115.393 118.394 116.945 118.394C117.988 118.394 118.902 118.138 119.802 117.638C121.102 116.916 123.447 118.277 124.321 119.151C124.71 119.54 125.177 120.536 125.255 121.083C125.356 121.794 126.322 121.757 127.029 121.914C127.693 122.062 128.422 121.83 129.045 122.176C129.711 122.546 129.958 123.268 130.81 123.268C132.505 123.268 134.194 122.69 135.814 122.129C136.185 122.001 136.453 121.63 136.86 121.588C137.272 121.544 137.835 121.473 138.205 121.289C138.739 121.021 139.234 120.264 139.512 119.739C139.805 119.185 139.885 118.386 139.885 117.722C139.885 116.816 140.467 116.309 139.755 115.668C139.462 115.405 138.255 115.049 137.831 115.033C137.062 115.004 136.284 114.865 135.478 114.865C133.896 114.865 131.676 115.757 130.222 114.949C128.952 114.244 127.438 113.521 125.852 113.521C125.126 113.521 124.525 113.185 123.836 113.185C123.107 113.185 122.379 113.185 121.651 113.185C120.281 113.185 119.026 112.848 117.617 112.848C117.066 112.848 117.443 112.819 117.739 113.016C118.347 113.422 118.741 113.832 119.214 114.361C119.736 114.944 120.53 115.071 121.193 115.537C122.18 116.231 122.655 117.473 123.752 118.021C124.473 118.382 125.139 118.905 125.899 119.197C126.839 119.559 127.339 120.163 128.42 120.243C129.146 120.297 129.874 120.411 130.642 120.411C131.426 120.411 132.211 120.411 132.995 120.411C133.693 120.411 134.198 120.075 134.843 120.075" stroke="black" stroke-width="4" stroke-linecap="round"/>
<path d="M141.914 114.41C141.957 114.41 142.867 114.315 142.629 114.613C142.49 114.787 142.208 114.922 141.987 114.922C141.922 114.922 141.713 115.014 141.699 114.95C141.646 114.71 141.752 114.425 141.841 114.207C141.929 113.994 142.392 113.836 142.061 113.696C141.603 113.503 140.572 113.703 140.104 113.842C139.638 113.98 138.841 113.986 138.407 113.769C137.976 113.554 137.677 113.387 137.181 113.387C136.055 113.387 134.929 113.387 133.803 113.387C133.049 113.387 132.368 113.022 131.594 113.022C131.244 113.022 130.264 113.178 130.076 112.803" stroke="black" stroke-width="2" stroke-linecap="round"/>
<path d="M130.076 112.803C129.672 112.556 129.231 112.145 128.724 112.145C128.376 112.145 127.991 112.139 127.661 112.035C127.182 111.886 126.598 112.056 126.13 111.869C125.857 111.76 125.341 111.853 125.05 111.853C124.172 111.853 123.417 111.457 122.586 111.272C122.047 111.152 121.347 111.268 120.796 111.268" stroke="black" stroke-width="2" stroke-linecap="round"/>
<path d="M99.5305 112.583C99.6149 113.053 99.7818 113.382 100.188 113.643C100.537 113.867 100.806 113.682 101.134 113.497C101.951 113.037 102.793 112.807 103.659 112.474C103.987 112.348 104.441 112.334 104.792 112.255C105.103 112.184 105.426 112.136 105.742 112.088C105.967 112.054 106.221 112.118 106.436 112.035C107.213 111.737 108.243 111.707 109.067 111.707C110.2 111.707 111.332 111.707 112.465 111.707C113.53 111.707 114.692 111.836 115.737 111.65C116.577 111.5 117.471 111.69 118.311 111.504C118.818 111.391 119.398 111.341 119.919 111.341" stroke="black" stroke-width="2" stroke-linecap="round"/>
<path d="M101.503 112.949C101.339 112.879 101.077 112.803 101.065 112.584C101.058 112.452 101.014 112.391 100.878 112.478C100.615 112.645 100.457 112.866 100.245 113.079C99.9711 113.353 99.6766 113.887 99.6766 114.301C99.6766 114.801 99.7497 115.263 99.7497 115.762C99.7497 116.421 99.6808 117.142 100.042 117.715C100.265 118.069 100.428 118.565 100.594 118.957C100.789 119.419 101.096 119.93 101.227 120.403C101.339 120.803 101.609 121.297 101.832 121.645C101.977 121.871 102.105 122.058 102.267 122.266C102.438 122.486 102.61 122.689 102.819 122.887C103.065 123.12 103.179 123.44 103.403 123.691C103.724 124.05 103.994 124.579 104.463 124.787C104.835 124.953 105.305 125.296 105.632 125.55C106.002 125.838 106.503 125.864 106.911 126.046C107.5 126.307 108.382 126.297 109.014 126.322C109.245 126.331 109.411 126.468 109.651 126.468C109.894 126.468 110.136 126.468 110.378 126.468C110.879 126.468 111.294 126.424 111.771 126.318C112.254 126.21 112.713 125.791 113.196 125.737C113.75 125.676 114.336 125.234 114.876 125.079C115.215 124.983 116.119 124.738 116.119 124.276" stroke="black" stroke-width="2" stroke-linecap="round"/>
<path d="M116.119 124.276C116.135 123.594 116.796 123.182 116.979 122.522C117.13 121.98 117.467 121.525 117.722 121.028C117.912 120.658 118.086 120.525 118.092 120.11C118.099 119.606 118.311 119.152 118.311 118.649C118.311 118.149 118.311 117.65 118.311 117.151C118.311 116.892 118.118 116.317 117.872 116.18C117.731 116.102 117.479 116.184 117.324 116.16C116.997 116.11 116.704 116.018 116.362 116.018C113.297 116.018 110.232 116.018 107.167 116.018C106.132 116.018 105.096 116.018 104.061 116.018C103.635 116.018 103.634 116.159 103.915 116.457C104.111 116.664 104.426 116.753 104.573 117.009C104.896 117.574 104.897 118.2 105.084 118.795C105.277 119.408 105.429 120.008 105.856 120.512C106.307 121.046 106.685 121.826 107.35 122.14C107.58 122.25 107.942 122.303 108.19 122.303C108.606 122.303 108.624 122.554 108.884 122.814" stroke="black" stroke-width="2" stroke-linecap="round"/>
<path d="M118.603 119.087C119.347 119.232 119.971 119.818 120.722 119.818C121.393 119.818 122.254 120.035 122.825 120.403C123.058 120.552 123.241 120.772 123.353 121.024C123.447 121.236 123.552 121.657 123.702 121.807C124.09 122.195 124.377 122.767 124.847 123.066C124.982 123.152 125.141 123.069 125.286 123.11C125.4 123.143 125.525 123.22 125.655 123.248C126.516 123.44 127.335 123.828 128.209 123.987C129.201 124.168 130.099 124.349 131.132 124.349C131.266 124.349 131.403 124.341 131.538 124.349C131.651 124.355 131.651 124.634 131.538 124.641C131.26 124.657 130.976 124.641 130.697 124.641C130.191 124.641 129.696 124.714 129.199 124.714C128.799 124.714 128.275 124.471 127.884 124.349" stroke="black" stroke-width="2" stroke-linecap="round"/>
<path d="M136.361 121.06C136.361 120.848 136.303 120.514 136.365 120.297C136.398 120.182 136.587 120.067 136.637 119.907C136.718 119.642 136.782 119.333 136.945 119.087" stroke="black" stroke-width="2" stroke-linecap="round"/>
<path d="M138.553 117.48C139.035 117.48 139.516 117.48 139.998 117.48C140.154 117.48 140.349 117.519 140.469 117.423C140.56 117.35 141.084 117.337 141.184 117.333C141.757 117.311 142.33 117.119 142.897 117.041C143.446 116.965 144.064 116.893 144.618 116.972C145.01 117.028 145.383 117.187 145.771 117.187C146.569 117.187 147.236 117.482 147.89 117.918C148.263 118.166 148.528 118.103 148.93 118.247C149.457 118.435 150.599 118.799 151.081 118.316C151.31 118.087 151.282 117.766 151.524 117.524C151.726 117.322 152.554 117.26 151.796 117.26C151.3 117.26 150.658 117.37 150.229 117.057C150.105 116.967 149.758 116.999 149.604 116.952C149.4 116.889 149.211 116.844 148.999 116.818C148.396 116.742 147.879 116.422 147.29 116.314C146.787 116.223 146.224 116.093 145.731 115.929C145.241 115.766 144.828 115.675 144.436 115.36C144.176 115.153 144.039 114.776 143.668 114.776" stroke="black" stroke-width="2" stroke-linecap="round"/>
<path d="M98.4343 114.191C97.7513 114.191 96.1798 114.442 95.6574 113.789C95.5012 113.594 95.2228 113.756 95.0566 113.623C94.9637 113.549 94.6487 113.274 94.6343 113.533C94.626 113.684 94.7266 114.234 94.5978 114.337C94.4751 114.435 94.384 114.8 94.4192 114.958C94.5168 115.398 95.2228 115.448 95.5681 115.563C96.251 115.791 97.0141 116.091 97.736 116.091C97.8676 116.091 98.394 116.01 98.4911 116.107C98.6342 116.25 98.4343 116.721 98.4343 116.895C98.4343 117.403 97.582 116.968 97.2975 116.968C97.0461 116.968 96.6869 116.878 96.4612 116.765C96.2437 116.656 96.1563 116.414 95.9497 116.31" stroke="black" stroke-width="2" stroke-linecap="round"/>
<path d="M140.307 113.533C140.072 113.533 139.301 113.659 139.211 113.387" stroke="black" stroke-width="2" stroke-linecap="round"/>
<path d="M121.755 121.457C122.022 122.1 122.975 123.956 123.737 124.173C124.466 124.382 125.129 125.502 125.897 125.598C127 125.736 128.025 126.554 129.242 126.554C130.257 126.554 131.654 126.795 132.622 126.519C133.743 126.198 134.952 126.072 136.021 125.766C136.816 125.539 137.831 124.682 138.445 124.129C138.758 123.847 139.232 123.458 139.596 123.244C139.882 123.076 139.919 122.043 140.074 121.696C140.189 121.435 140.288 120.648 140.472 120.501C140.665 120.346 140.946 119.794 141.029 119.545" stroke="black" stroke-width="2" stroke-linecap="round"/>
<path d="M123.659 111.067C125.123 111.067 126.586 111.067 128.049 111.067C128.766 111.067 129.919 110.831 130.574 111.122C131.134 111.371 132.187 111.561 132.797 111.561C133.124 111.561 134.593 111.707 134.772 111.932C134.887 112.075 136.409 112.302 136.624 112.302C137.44 112.302 138.081 112.365 138.847 112.535C139.828 112.754 141.162 112.175 142.058 112.673C142.507 112.922 143.893 113.043 144.404 113.043" stroke="black" stroke-width="2" stroke-linecap="round"/>
</svg>
