<svg width="256" height="256" viewBox="0 0 256 256" fill="none" xmlns="http://www.w3.org/2000/svg">
<path d="M99.8303 192.603C99.8303 191.318 99.2174 187.472 100.087 186.439C101.14 185.189 101.72 182.33 103.683 182.33C105.397 182.33 105.224 182.715 106.251 183.871C106.896 184.596 107.022 186.03 107.022 186.953C107.022 187.437 106.788 188.923 107.422 188.109C108.681 186.489 109.815 181.005 112.416 184.256C113.188 185.221 114.171 186.043 114.841 187.096C115.663 188.386 115.755 190.326 115.755 191.833" stroke="white" stroke-width="2"/>
<path d="M123.203 181.559C123.203 184.616 123.027 187.733 123.332 190.777C123.462 192.078 123.717 193.352 123.717 194.658" stroke="white" stroke-width="2"/>
<path d="M93.4893 140.983C93.4893 138.653 92.9017 136.466 92.9017 134.16C92.9017 132.637 92.9017 131.114 92.9017 129.59C92.9017 126.763 92.3226 122.739 93.424 120.123C93.8715 119.06 94.4928 117.964 94.9583 116.826C95.4586 115.603 96.3573 114.039 96.4273 112.778C96.5436 110.685 97.9521 108.195 98.8431 106.314C99.3182 105.311 99.7734 104.162 100.377 103.213C101.044 102.165 101.135 100.08 102.157 99.2626C102.998 98.5896 103.678 96.908 104.36 96.0307C106.063 93.8418 108.206 92.272 110.383 90.5789C111.132 89.9966 111.68 88.9793 112.734 88.9793C114.509 88.9793 116.413 87.8583 118.153 87.5103C122.721 86.5966 127.323 86.6288 131.978 86.6288C136.662 86.6288 138.256 90.0957 141.086 93.0926C143.563 95.7152 145.545 98.3767 147.55 101.385C149.945 104.977 150.947 111.258 149.46 115.422C148.77 117.353 148.431 120.275 148.431 122.327C148.431 123.149 148.306 124.435 148.121 125.265C147.882 126.34 147.859 127.804 147.403 128.807C146.451 130.901 146.219 133.448 145.053 135.548C144.567 136.421 144.506 137.567 144.302 138.486C144.081 139.479 143.73 140.249 143.73 141.277" stroke="black" stroke-width="2"/>
<path d="M103.386 90.7095C103.386 90.0283 104.038 86.1509 102.64 86.2331C101.082 86.3248 101.07 88.8894 101.189 89.9635C101.287 90.8387 103.317 95.9568 104.878 95.0201C105.72 94.5149 104.878 93.1415 104.878 93.6938C104.878 94.0281 105.624 95.9972 105.624 95.103C105.624 91.5842 103.803 93.6938 105.997 93.6938C109.682 93.6938 108.138 86.6348 109.52 84.9068C109.554 84.8643 111.787 89.1453 113.085 89.2174C115.596 89.3569 112.255 93.6109 112.007 93.6109C111.204 93.6109 113.085 92.2588 113.085 91.4556C113.085 91.0862 112.389 90.0464 111.966 90.0464C111.265 90.0464 111.629 91.2878 112.09 91.4556C114.715 92.4101 117.631 93.0773 120.38 93.528C124.575 94.2158 123.451 94.6179 125.022 91.0826C126.39 88.0055 135.901 87.0639 138.866 86.9792C140.025 86.9461 129.646 85.9253 128.918 87.8911C126.911 93.3106 130.311 102.91 132.441 107.703C134.861 113.147 134.416 111.023 136.586 107.164C140.095 100.926 152.252 102.195 158.263 101.32C163.546 100.552 155.506 98.2431 153.538 98.1702C150.858 98.0709 152.257 100.39 151.839 102.274C151.136 105.436 148.448 101.486 147.57 101.486C147.227 101.486 147.404 99.4295 147.404 100.035C147.404 102.415 146.658 102.793 146.658 104.18C146.658 105.7 146.658 107.22 146.658 108.739C146.658 111.268 146.61 103.682 146.658 101.154C146.727 97.4834 150.457 100.408 150.057 100.408C145.669 100.408 141.435 100.126 141.435 105.631C141.435 106.829 141.455 108.347 143.093 108.284C145.723 108.182 145.34 103.939 145.539 102.232C145.733 100.563 145.166 89.254 145.166 95.3517C145.166 102.004 145.023 97.4016 143.674 93.8596C142.307 90.271 142.928 99.7016 142.928 98.709C142.928 95.0778 143.614 88.4362 141.767 95.559C141.586 96.2553 141.022 100.002 140.316 100.284C139.916 100.444 139.885 95.9604 139.777 95.5175C139.359 93.791 138.912 102.435 138.617 101.403C137.846 98.705 138.684 95.2385 139.031 92.5332C139.084 92.1278 139.943 88.0361 139.943 90.4194C139.943 90.8586 139.636 95.4555 138.451 94.6885C136.701 93.5564 137.705 87.0754 137.705 85.2798C137.705 82.8606 137.705 83.8337 137.705 85.6529C137.705 88.4762 137.91 91.8225 136.213 94.2741C133.974 97.5079 135.062 81.7374 133.56 89.6733C133.173 91.721 132.645 95.5802 130.659 96.8438C129.401 97.644 129.498 88.7686 129.498 88.0569C129.498 78.9261 129.498 89.7225 129.498 89.3832C129.498 86.2454 129.952 94.0638 129.042 94.7714C124.596 98.2301 123.11 84.1003 121.706 82.2956C121.066 81.4727 122.038 86.0531 122.038 82.5028C122.038 80.6376 122.038 86.2331 122.038 88.0983C122.038 89.7238 121.499 94.4772 122.95 95.7662C124.724 97.3435 121.17 85.9643 120.587 90.0464C120.497 90.678 120.161 94.1083 121.292 94.1083C122.6 94.1083 122.038 88.9406 122.038 88.2226C122.038 83.3826 119.799 90.3616 119.799 92.0359C119.799 93.6201 121.212 88.4161 121.25 87.7253C121.347 85.9871 121.292 80.7619 121.292 82.5028C121.292 83.922 121.915 89.8717 121.996 89.5075C122.603 86.7757 117.914 87.2802 118.349 88.8029C118.629 89.7826 121.082 85.0151 119.468 84.1607C116.726 82.7091 112.805 90.3133 114.743 92.0359C115.158 92.4051 118.091 85.4871 114.577 85.4871C112.575 85.4871 110.826 89.6941 111.759 91.4556C112.879 93.5723 110.087 92.5855 108.235 94.0254C107.22 94.8149 104.305 95.1859 103.013 95.1859C95.1201 95.1859 87.3766 96.3222 80.631 92.5747C78.4131 91.3425 75.35 88.1603 75.0355 85.4871C74.9075 84.3985 74.8036 82.7783 76.9007 84.4094C78.2008 85.4206 79.832 85.845 81.3357 86.2746C88.057 88.195 93.4037 90.7095 100.775 90.7095C102.339 90.7095 112.256 90.4235 112.256 91.8286C112.256 93.5583 99.3942 91.4222 97.4175 90.5437C93.7848 88.9292 88.725 86.9792 84.6929 86.9792C81.9982 86.9792 79.7501 86.8259 77.2737 85.6529C76.559 85.3143 72.2668 81.8691 74.2895 81.7567C78.8432 81.5038 81.3266 86.0976 85.1074 86.9378C89.2649 87.8616 94.42 88.3431 98.9096 88.4713C100.047 88.5038 110.764 90.28 110.764 89.5075C110.764 85.7355 101.207 84.0682 98.4952 83.9949C95.2426 83.907 93.619 82.8442 90.8687 81.0107C88.9216 79.7126 88.2128 79.5185 85.8535 79.5185C83.2005 79.5185 83.4488 79.4253 86.0607 79.5185C89.1184 79.6277 92.3636 81.8223 95.1793 82.9173C99.5706 84.625 104.181 85.392 108.567 87.3108C110.183 88.0176 112.073 88.4713 113.831 88.4713C116.278 88.4713 112.737 88.4713 112.214 88.4713C108.25 88.4713 104.287 88.6555 100.402 87.7253C94.9286 86.4148 90.0084 83.8814 84.3614 82.9173C82.0087 82.5156 73.5434 82.9383 73.5434 79.1455C73.5434 72.8937 84.5528 82.4891 86.3923 83.2489C92.404 85.7319 104.729 89.5754 111.261 86.6062C113.185 85.7315 118.072 85.606 113.334 84.9068C107.035 83.9775 101.021 83.9604 94.8477 82.5028C90.2333 81.4133 82.3487 82.2653 78.4343 79.0626C76.4162 77.4115 74.9643 73.1717 78.8073 76.5343C84.8821 81.8498 94.0911 82.5028 101.894 82.5028C107.362 82.5028 112.84 82.4016 118.307 82.5028C119.683 82.5283 127.799 83.991 122.452 83.0831C117.969 82.3219 113.372 81.524 108.94 80.6376C100.889 79.0274 92.3141 79.6791 84.1541 78.7725C79.1075 78.2117 81.0098 78.4526 84.7344 80.2646C90.046 82.8487 96.2398 83.6695 101.894 85.3213C111.482 88.1224 141.465 90.8181 131.612 89.1759C127.83 88.5456 124.634 87.7253 120.711 87.7253C118.796 87.7253 112.459 86.5888 111.012 87.8911C109.038 89.6677 115.812 89.9763 116.069 90.0049C120.143 90.4576 123.95 92.4407 128.006 92.9477C131.648 93.4029 135.36 94.5867 139.031 94.4399C141.561 94.3387 135.985 92.2795 135.757 92.2017C132.328 91.0306 128.838 90.6452 125.354 89.7977C119.381 88.3448 129.009 83.0191 130.825 87.5595C132.435 91.5855 126.961 90.1414 123.986 89.5904C119.058 88.6779 121.216 88.4781 124.98 87.7253C126.14 87.4933 130.429 86.0028 131.571 87.145C132.585 88.1594 131.14 90.4443 132.317 91.6214C132.935 92.2396 136.851 93.1886 133.477 91.7043C130.585 90.4317 128.176 88.2516 125.188 87.145C123.79 86.6274 126.752 86.9792 127.26 86.9792C131.599 86.9792 136.406 88.7679 140.524 89.9635C143.934 90.9537 145.948 91.5624 143.508 94.2741C142.257 95.6634 143.222 97.3353 143.674 98.9163C144.618 102.22 146.333 100.408 148.523 100.408C152.5 100.408 149.339 99.0961 147.57 97.2583C144.72 94.2993 149.117 93.6938 143.674 93.6938C135.453 93.6938 127.233 93.6938 119.012 93.6938C111.567 93.6938 103.065 93.8217 95.9668 91.4556C92.6764 90.3588 89.1595 85.7674 86.8068 83.4147C83.9673 80.5752 80.8584 78.5319 78.4343 75.4152C75.1043 71.1338 74.6053 66.3005 72.6316 61.613C71.9597 60.0174 73.3673 58.3854 73.502 59.1261C74.1318 62.5904 72.921 65.9009 72.7973 69.2394C72.687 72.219 72.9845 76.6175 76.1546 78.0264C79.2875 79.4188 82.8176 82.2631 85.3147 84.5752C85.8408 85.0623 87.9797 85.4871 87.2627 85.4871C85.6739 85.4871 84.085 85.4871 82.4962 85.4871C75.9986 85.4871 75.9853 81.3544 73.1289 76.8659C70.1821 72.2351 69.067 66.6218 69.067 61.2399C69.067 59.5818 71.2665 64.4649 71.3052 65.5091C71.3794 67.5134 71.2594 70.5199 72.7973 72.0579C75.4826 74.7431 80.3068 79.5185 84.3614 79.5185C85.2318 79.5185 86.1022 79.5185 86.9726 79.5185C87.6369 79.5185 88.9616 80.758 88.8792 80.0988C88.6297 78.1027 83.0886 75.5755 81.9159 73.55C80.3869 70.9089 79.1472 68.1593 78.0198 65.2604C77.4519 63.8001 72.1885 51.5803 76.1132 52.7016C77.1809 53.0067 78.2298 58.9182 78.6001 59.955C80.6772 65.7709 85.0293 70.5994 88.2989 75.7882C90.8039 79.7635 93.0166 85.4797 96.3399 88.8029C97.4547 89.9178 101.313 89.8012 99.2412 87.3522C97.1488 84.8794 93.6304 83.5466 92.3608 80.4304C90.5013 75.866 87.8126 71.4414 85.9778 66.7525C84.4263 62.7875 85.3755 59.0792 84.3614 55.0227C83.3926 51.1477 85.972 53.6433 86.9726 55.6444C91.938 65.5752 96.7317 75.1948 100.029 85.8187C101.22 89.6575 100.967 89.8504 104.298 90.8753C106.343 91.5046 108.707 91.779 110.847 91.2898C112.423 90.9296 117.669 89.9969 114.494 88.0569C110.176 85.4177 105.577 84.0684 101.106 81.7153C96.1298 79.096 83.2423 73.3951 83.2423 66.0894C83.2423 64.2683 85.9236 66.0894 86.5996 66.0894C89.0128 66.0894 88.9928 69.9983 89.2522 71.6849C89.5818 73.827 90.2185 75.8026 89.9569 78.0264C89.7616 79.6863 86.1718 77.979 85.4805 77.5705C82.9274 76.0619 81.8009 73.2104 80.4238 70.7316C79.8332 69.6685 78.9466 66.1261 79.0975 67.3328C79.2923 68.8918 80.7404 71.0131 81.4185 72.4309C82.82 75.3612 85.1554 78.3646 87.3871 80.5962C89.1707 82.3798 94.341 83.0387 96.6714 84.1607C99.9058 85.718 104.214 88.1789 107.904 86.5647C109.706 85.7765 115.767 85.7589 116.649 83.9949C118.109 81.0756 114.247 77.1709 112.173 75.7882C110.85 74.9059 101.977 73.6581 101.977 73.6744C101.977 74.5589 105.332 79.5185 103.386 79.5185C99.4133 79.5185 98.284 71.1493 96.6714 68.4934C95.5822 66.6994 96.5079 65.3433 94.0602 65.3433C92.1538 65.3433 90.0106 64.5135 91.8635 67.9545C95.0938 73.9537 100.644 76.9481 105.458 81.591C109.814 85.791 118.08 86.7419 123.903 88.0569C126.939 88.7425 130.115 89.2174 133.229 89.2174C135.713 89.2174 127.415 87.8186 125.934 86.9792C122.683 85.1373 118.447 84.8826 114.826 84.0778C114.673 84.0438 119.667 83.9498 121.292 83.9949C128.046 84.1826 135.511 85.8018 142.057 87.3522C143.7 87.7413 147.042 88.2673 147.984 89.9635C148.451 90.8035 147.922 91.7484 148.564 92.5747C149.181 93.3668 154.278 97.8426 152.461 97.2583C147.275 95.5917 142.943 91.7765 137.705 89.9635C133.165 88.392 128.036 87.6857 123.654 85.8601C122.733 85.4762 130.01 86.3535 130.576 86.1917C132.114 85.7522 127.787 83.3969 127.633 83.3318C125.764 82.5387 124.013 82.5028 122.038 82.5028C122.026 82.5028 125.032 81.0211 126.514 82.5028C129.394 85.3829 121.72 85.8758 120.214 85.4456C119.823 85.3339 126.979 84.9923 128.296 84.6996C128.891 84.5675 128.919 83.3548 128.669 82.9173C128.004 81.752 123.162 82.5028 121.955 82.5028C117.923 82.5028 130.338 82.8557 133.809 84.9068C134.367 85.2367 141.185 89.4818 139.529 87.3522C137.091 84.2176 137.379 93.0367 139.902 94.7714C141.554 95.9075 142.971 95.0712 143.839 95.7662C146.305 97.739 145.172 91.8641 146.326 97.9629C146.692 99.8938 148.067 102.575 148.067 104.47C148.067 105.239 144.079 102.281 143.674 102.066C137.777 98.9444 142.391 102.182 144.42 100.989C146.257 99.908 145.166 93.0404 145.166 91.1655C145.166 90.0789 144.273 96.9356 146.285 97.3827C149.984 98.2048 143.862 93.1364 146.658 95.932C148.829 98.1034 148.449 92.5592 147.984 91.4556C145.824 86.3261 133.755 94.7005 142.14 93.6523C145.012 93.2934 145.596 90.0416 145 87.7253C143.942 83.6119 137.669 84.1623 136.379 87.8911C135.74 89.7376 139.862 86.7203 135.757 85.114C133.113 84.0793 130.21 83.2254 127.426 82.6686C126.919 82.5672 124.295 82.5028 126.141 82.5028C129.393 82.5028 125.593 81.3733 124.11 81.9225C121.707 82.8125 120.113 88.5699 120.711 83.3318C120.789 82.6529 121.871 75.0524 121.126 74.9593C120.369 74.8647 120.534 81.427 120.587 82.0883C120.971 86.8921 123.45 84.0221 121.126 82.5028C119.494 81.4355 110.662 80.5362 110.142 82.8758C109.696 84.8844 114.155 84.741 109.769 84.741C108.035 84.741 108.765 87.3357 107.116 88.3055C103.81 90.2504 111.33 85.3925 112.339 84.9068C119.073 81.6646 126.894 81.0107 134.223 81.0107C135.868 81.0107 141.726 80.0575 143.176 81.5081C144.269 82.6009 143.618 85.5846 144.088 87.0621C144.359 87.9131 146.564 96.6273 146.658 94.2741C146.786 91.0588 147.556 91.3452 148.73 93.6938C149.672 95.577 147.404 85.4125 147.404 87.518C147.404 88.5234 148.896 93.6971 148.896 90.6681C148.896 85.1418 149.474 92.1278 150.72 94.2741C151.584 95.7627 160.08 104.707 157.103 99.4965C156.113 97.7651 156.49 93.9097 155.196 92.6161C153.556 90.9763 147.231 93.9632 146.699 91.0411C146.013 87.2668 146.74 84.9669 144.005 81.5081C141.655 78.5363 142.527 82.2288 143.301 83.6219C145.194 87.0295 137.35 86.2331 135.881 86.2331C132.662 86.2331 106.132 87.9192 105.956 84.741C105.901 83.7458 113.359 79.97 111.924 79.56C110.096 79.0377 111.231 84.8326 110.432 85.8601C108.439 88.4225 104.473 88.3299 102.225 90.7095C101.86 91.0969 102.078 92.8648 101.521 92.8648C100.509 92.8648 101.67 91.4865 102.474 91.4556C107.379 91.267 108.988 86.2331 114.204 86.2331C123.492 86.2331 132.125 84.7811 141.352 84.1607C144.801 83.9289 149.639 85.6891 150.43 82.1298C151.217 78.5858 152.626 83.1587 152.626 84.368C152.626 88.2226 152.626 92.0773 152.626 95.932C152.626 97.4027 152.626 102.18 152.626 98.1702" stroke="#FFF500" stroke-width="2"/>
</svg>
