<svg width="256" height="256" viewBox="0 0 256 256" fill="none" xmlns="http://www.w3.org/2000/svg">
<path d="M99.8303 192.603C99.8303 191.318 99.2174 187.472 100.087 186.439C101.14 185.189 101.72 182.33 103.683 182.33C105.397 182.33 105.224 182.715 106.251 183.871C106.896 184.596 107.022 186.03 107.022 186.953C107.022 187.437 106.788 188.923 107.422 188.109C108.681 186.489 109.815 181.005 112.416 184.256C113.188 185.221 114.171 186.043 114.841 187.096C115.663 188.386 115.755 190.326 115.755 191.833" stroke="white" stroke-width="2"/>
<path d="M123.203 181.559C123.203 184.616 123.027 187.733 123.332 190.777C123.462 192.078 123.717 193.352 123.717 194.658" stroke="white" stroke-width="2"/>
<path d="M93.4893 140.983C93.4893 138.653 92.9017 136.466 92.9017 134.16C92.9017 132.637 92.9017 131.114 92.9017 129.59C92.9017 126.763 92.3226 122.739 93.424 120.123C93.8715 119.06 94.4928 117.964 94.9583 116.826C95.4586 115.603 96.3573 114.039 96.4273 112.778C96.5436 110.685 97.9521 108.195 98.8431 106.314C99.3182 105.311 99.7734 104.162 100.377 103.213C101.044 102.165 101.135 100.08 102.157 99.2626C102.998 98.5896 103.678 96.908 104.36 96.0307C106.063 93.8418 108.206 92.272 110.383 90.5789C111.132 89.9966 111.68 88.9793 112.734 88.9793C114.509 88.9793 116.413 87.8583 118.153 87.5103C122.721 86.5966 127.323 86.6288 131.978 86.6288C136.662 86.6288 138.256 90.0957 141.086 93.0926C143.563 95.7152 145.545 98.3767 147.55 101.385C149.945 104.977 150.947 111.258 149.46 115.422C148.77 117.353 148.431 120.275 148.431 122.327C148.431 123.149 148.306 124.435 148.121 125.265C147.882 126.34 147.859 127.804 147.403 128.807C146.451 130.901 146.219 133.448 145.053 135.548C144.567 136.421 144.506 137.567 144.302 138.486C144.081 139.479 143.73 140.249 143.73 141.277" stroke="black" stroke-width="2"/>
<path d="M118.801 40C117.502 40.2446 115.221 40.2932 114.042 40.9408C113.335 41.3287 112.345 42.0382 111.567 42.2579C110.085 42.6763 107.524 43.2726 106.322 44.2231C105.603 44.7917 103.216 46.3973 102.24 46.3973C100.855 46.3973 99.1477 46.9717 98.2419 48.0907C97.8047 48.631 96.8538 48.6412 96.4229 49.4078C95.9046 50.33 95.5769 51.4514 95.5769 52.502C95.5769 53.9139 96.0621 57.2633 94.6462 58.063C93.6018 58.6529 92.5311 62.1891 92.5311 63.3314C92.5311 65.6271 92.2457 68.1156 92.1504 70.565C92.0688 72.6621 91.2916 74.8258 91.0294 76.8996C90.8232 78.5297 91.7697 79.7465 91.7697 81.3108C91.7697 82.639 92.1504 83.8508 92.1504 85.1576C92.1504 86.7803 93.3559 89.2222 94.2655 90.635C95.3179 92.2696 95.7322 94.3596 96.9306 95.8825C97.7868 96.9707 98.7898 98.9123 99.8494 99.7502C100.871 100.558 103.219 100.21 104.524 100.21C107.125 100.21 109.727 100.21 112.329 100.21C113.217 100.21 114.105 100.21 114.994 100.21C116.484 100.21 117.786 100.886 119.182 100.963C123.539 101.202 127.457 100.21 131.745 100.21C134.855 100.21 137.964 100.21 141.073 100.21C142.273 100.21 144.173 98.738 145.261 98.1404C146.435 97.4958 148.254 97.6182 148.497 95.6944C148.698 94.1023 150.369 92.3551 150.76 90.6141C151.602 86.8713 153.679 84.1282 153.827 80.1819C153.872 78.9783 155.285 77.8753 154.948 76.7115C154.766 76.0816 153.868 75.3292 153.447 74.809C152.195 73.2624 150.694 71.8216 149.259 70.4814C148.268 69.557 148.36 69.2139 148.095 68.0353C147.85 66.9437 145.841 65.9272 144.901 65.5893C142.357 64.6749 141.613 62.1713 139.931 60.5091C138.989 59.5783 137.833 58.6848 137.076 57.6031C136.307 56.5054 135.165 56.0468 134.41 54.9689C133.707 53.9645 133.116 52.9291 132.507 51.8748C132.012 51.0195 129.754 50.2775 128.911 49.596C127.576 48.5165 126.039 47.6705 124.808 46.481C123.397 45.1178 122.042 43.3404 120.324 42.3415C118.923 41.5272 117.795 40.7526 116.136 40.7526" stroke="#F5C653" stroke-width="2"/>
<path d="M111.115 43C110.692 43.6784 110.197 43.8862 109.769 44.4078C109.604 44.6093 109.274 44.9268 109.203 45.169C108.909 46.1748 107.912 47.6164 107.269 48.4225C106.524 49.3571 106.891 50.6767 106.543 51.7803C106.379 52.3002 106.382 52.6151 106.115 53.1359C105.959 53.4412 105.557 54.1389 105.538 54.4498C105.329 57.925 104 61.3382 104 64.8882C104 66.5323 104.192 68.2573 104.192 69.8414C104.192 71.7989 104.338 74.0384 104.62 75.9939C104.829 77.4489 105.207 78.9975 105.827 80.3423C105.944 80.5955 106.308 80.7529 106.308 81.0306C106.308 81.4966 106.214 82.0549 106.318 82.5113C106.618 83.8262 107.251 85.2588 108.038 86.3592C108.673 87.2461 109.533 88.1246 110.389 88.7994C110.939 89.2328 110.731 90.2358 110.731 90.8641C110.731 91.5897 110.58 92.4995 110.741 93.2104C110.949 94.1237 111.512 94.833 111.885 95.6505C112.214 96.3743 112.491 97.1101 112.889 97.8091C113.456 98.8061 113.627 99.9081 114 101" stroke="#F5C653" stroke-width="2"/>
<path d="M116 42C115.136 42.5097 114.809 43.0253 114.156 43.6337C113.999 43.7796 113.703 43.9635 113.5 44.0473C113.17 44.1838 113.32 44.4416 113.1 44.6057C112.131 45.3272 112.044 46.5789 111.5 47.4905C110.548 49.085 110.608 51.0096 109.844 52.6088C109.45 53.4355 109.068 54.4807 108.811 55.3179C108.536 56.2149 108 57.1575 108 58.0994C108 59.9295 108 61.7597 108 63.5899C108 65.7134 108 67.7287 108 69.8353C108 70.5955 108.226 71.4379 108.5 72.1514C108.728 72.7449 108.545 73.4357 108.644 74.054C108.819 75.1389 109.461 76.1088 109.589 77.1767C109.753 78.5552 109.727 79.9266 110.2 81.2713C110.593 82.3893 110.979 83.2748 111 84.456C111.021 85.6737 111.536 86.725 111.811 87.8786C111.878 88.1588 112.188 88.2576 112.2 88.5713C112.223 89.1609 112.188 89.6784 112.4 90.2464C112.877 91.5227 112.884 93.0803 113.6 94.279C113.923 94.8196 113.772 95.5181 114.1 96.0678C114.339 96.4679 114.571 97.195 114.6 97.6498C114.683 98.9557 115.437 99.9526 116 101" stroke="#F5C653" stroke-width="2"/>
<path d="M125 49C124.497 49.796 123.903 50.5814 123.478 51.4212C123.324 51.7233 123.066 52.1864 123.066 52.5236C123.066 52.8795 123.17 53.5002 123.03 53.8218C122.725 54.5232 122.098 55.3497 122.098 56.14C122.098 56.9745 122.098 57.8091 122.098 58.6436C122.098 59.5183 121.78 60.1532 121.624 60.9618C121.477 61.7193 121.615 62.688 121.615 63.4655C121.615 65.2513 121.669 66.9414 121.328 68.6582C121.094 69.838 120.845 70.9843 121.122 72.0994C121.331 72.9387 121.511 73.9995 121.812 74.7782C122.015 75.304 122.111 76.7553 121.857 77.2818C121.437 78.15 121.829 79.9466 121.651 80.8982C121.292 82.8036 121.225 84.6388 122.018 86.4618C122.78 88.2154 122.344 89.9882 122.869 91.7988C123.348 93.4523 123.131 95.3943 123.558 97.1152C123.791 98.0537 124.355 98.9181 124.355 100" stroke="#F5C653" stroke-width="2"/>
<path d="M125.667 50C125.667 52.1918 125.419 54.4305 125.009 56.5197C124.756 57.8142 124.167 58.9183 124.167 60.2992C124.167 62.3796 124 64.628 124 66.7769C124 68.8675 124.333 70.8103 124.333 72.8661C124.333 74.716 124.5 76.6557 124.5 78.4409C124.5 79.3645 124.833 80.3042 124.833 81.2756C124.833 82.4094 124.833 83.5433 124.833 84.6772C124.833 86.9764 124.833 89.2756 124.833 91.5748C124.833 92.5337 124.794 93.2456 125.333 94.0315C125.688 94.5485 126.112 95.2521 126.296 95.8793C126.519 96.6354 126.588 97.3 127 98" stroke="#F5C653" stroke-width="2"/>
<path d="M143.487 67C143.487 72.4444 143.983 77.7973 143.983 83.2644C143.983 85.2021 144.021 87.1448 143.983 89.0819C143.95 90.7878 143.174 92.4251 142.661 93.9981C142.026 95.9452 142 97.9362 142 100" stroke="#F5C653" stroke-width="2"/>
<path d="M145.333 67C145.333 69.068 145.515 71.2312 145.324 73.292C145.222 74.3863 145 75.3294 145 76.443C145 79.0894 145.35 80.9288 146.167 83.2934C146.925 85.4872 147 87.7473 147 90.0741C147 91.9259 145.5 93.2738 145.5 95" stroke="#F5C653" stroke-width="2"/>
<path d="M132 50.6976C130.327 49.4817 129.475 47.0614 127.093 48.3842C126.189 48.8861 126.095 49.6998 125.477 50.4714C125.07 50.98 124.548 52.3315 124.397 53.0109C124.156 54.0954 123.667 55.1242 123.667 56.2599C123.667 57.8002 123.466 60.0418 122.926 61.4931C122.526 62.5672 122 63.458 122 64.6701C122 66.5516 122 68.4331 122 70.3147C122 72.7606 122.027 75.1092 122.545 77.4397C122.762 78.4129 122.503 79.4864 122.556 80.4933C122.636 82.0274 123.852 83.5069 123.852 85.0275C123.852 86.4395 123.378 87.5618 124.13 88.9139C124.365 89.3377 124.196 90.0132 124.222 90.4869C124.261 91.1766 124.741 91.8236 124.778 92.5227C124.811 93.1455 124.752 95.4628 125.241 95.8539C125.419 95.9965 125.712 97.0631 125.848 97.3344C126.048 97.7345 125.889 98.5547 125.889 99" stroke="black" stroke-width="2"/>
<path d="M120 40.0252C118.433 40.0252 116.79 39.8176 115.46 40.595C114.402 41.2135 113.363 42.3533 112.798 43.4445C112.253 44.4987 111.523 45.746 110.621 46.4839C110.357 46.7002 110.373 47.8923 110.157 48.278C109.859 48.812 109.737 49.7758 109.373 50.241C109.006 50.7099 108.894 51.5661 108.527 52.0351C108.141 52.5287 108.419 53.3909 108.29 53.9875C108.153 54.6155 107.743 55.2671 107.743 55.8871C107.743 56.529 107.603 57.5865 107.413 58.2195C107.226 58.8399 107.371 59.7031 107.371 60.3513C107.371 61.1203 107 61.8214 107 62.6308C107 63.4857 107 64.3405 107 65.1953C107 65.7825 107.371 66.315 107.371 67" stroke="black" stroke-width="2"/>
<path d="M107 67C107 68.3532 107 69.7063 107 71.0595C107 72.3675 108.2 73.5699 108.2 74.8423C108.2 76.4071 108.837 78.5424 109.3 80.0807C109.466 80.6309 109.8 81.3865 109.8 81.9464C109.8 82.6682 110.358 83.272 110.4 83.9762C110.482 85.3411 110.8 86.6612 110.8 88.0767C110.8 88.8011 110.8 89.5256 110.8 90.25C110.8 91.0189 111.32 91.3721 111.7 92.003C112.268 92.9469 112.76 93.7293 113.011 94.7708C113.187 95.4998 113.24 97.6494 114 98" stroke="black" stroke-width="2"/>
<path d="M102 47C98.8803 47.7105 96.4521 50.8874 95 53.533C94.4728 54.4934 94.2536 55.4858 93.8182 56.4774C93.4136 57.3989 92.9091 58.3935 92.9091 59.4117C92.9091 60.6987 92.7273 62.0439 92.7273 63.3682C92.7273 65.6761 92 67.8607 92 70.1773C92 72.5982 92.3636 74.7215 92.3636 77.1806C92.3636 79.1185 92.6747 80.9682 92.7273 82.8854C92.7585 84.0248 92.7291 84.7393 93.2929 85.8094C93.5174 86.2353 93.8182 86.807 93.8182 87.3021C93.8182 88.9273 95.1809 88.8964 95.8586 90.0625C96.3654 90.9345 96.8588 92.0404 96.9091 93.0069C96.978 94.3326 97.7424 95.8797 98.3232 97.0556C98.6055 97.6269 99.0056 98.2574 99.4545 98.7118C99.7941 99.0555 100.173 99.8114 100.545 100" stroke="black" stroke-width="2"/>
<path d="M141 59C142.279 59.8446 143.256 61.2177 143.664 62.8275C143.834 63.4998 144.426 64.0054 144.65 64.6996C144.899 65.472 145.469 66.2736 145.775 67.0502C146.208 68.149 145.812 70.4241 145.812 71.637C145.812 73.9585 146.807 75.8972 146.807 78.1895C146.807 79.2518 146.973 80.2932 146.973 81.3721C146.973 81.8429 147.075 82.5246 146.881 82.9635C146.738 83.2866 146.508 83.7524 146.475 84.0868C146.368 85.1741 145.912 86.1351 145.812 87.2694C145.723 88.2662 145.5 89.4715 145.231 90.4417C145.068 91.0288 144.715 92.7446 144.245 92.8962C143.998 92.9758 143.758 94.9637 143.618 95.3196C143.113 96.6025 142.991 98.6241 142.991 100" stroke="black" stroke-width="2"/>
<path d="M150.171 69C152.226 71.6608 153.895 74.1038 154.806 77.3312C155.232 78.8384 154.823 80.0298 154.823 81.3922C154.823 82.5317 153.583 83.7643 153.583 85C153.583 87.7627 152.441 90.6877 151.705 93.2963C151.296 94.7419 149.828 95.4288 149.241 96.7647C148.735 97.9157 148 99.742 148 101" stroke="black" stroke-width="2"/>
<path d="M131.601 56.1221C131.305 58.0096 131.345 59.9016 132.044 61.6988C132.179 62.047 131.372 61.8979 131.103 61.8979C130.776 61.8979 130.227 61.1733 130.207 61.4996C130.194 61.7002 130.056 62.3774 129.908 62.4954C129.395 62.9063 129.651 64.5084 129.565 65.0846C129.453 65.844 129.494 66.8864 129.111 67.5742C128.845 68.0537 129.13 68.5916 128.813 69.068" stroke="#F5C653" stroke-width="10" stroke-linecap="round"/>
<path d="M128.813 69.068C128.813 70.8816 129.168 72.1917 129.654 73.8922C130.15 75.6292 130.008 77.4383 130.008 79.2255C130.008 80.6064 130.406 81.9187 130.406 83.3085C130.406 84.5756 131.133 85.9423 131.203 87.1922C131.257 88.1736 131.365 89.1432 131.402 90.1355C131.421 90.6593 131.789 91.2218 131.557 91.7731C131.292 92.4009 131.512 92.6414 131.048 93.0124C130.363 93.56 131.097 93.1471 131.192 93.4771C131.488 94.5157 132.651 94.1631 133.593 94.1631C134.018 94.1631 134.316 94.2639 134.633 94.5172C134.882 94.7166 135.765 94.5614 136.082 94.5614C136.597 94.5614 136.293 92.3564 136.68 91.8837C137.17 91.2844 138.129 89.7911 138.174 88.9847C138.294 86.8106 138.373 84.6611 138.373 82.5007C138.373 81.2799 138.373 80.0591 138.373 78.8382C138.373 77.0827 137.428 75.1862 137.134 73.4496C136.882 71.9697 137.007 70.5345 137.189 69.079C137.254 68.5554 137.377 68.1266 137.377 67.5742C137.377 67.0705 137.775 66.9521 137.775 66.4788" stroke="#F5C653" stroke-width="10" stroke-linecap="round"/>
<path d="M137.775 66.4788C137.815 68.1097 138.373 69.6134 138.373 71.2588" stroke="#F5C653" stroke-width="10" stroke-linecap="round"/>
<path d="M120.448 47.3587C120.417 48.6336 119.722 49.6931 118.755 50.5343C118.221 50.998 117.824 51.346 117.67 52.0391C117.559 52.5424 117.163 52.9505 117.073 53.4444C116.967 54.0263 116.979 54.6646 116.763 55.2258C115.763 57.8268 115.756 61.0661 115.258 63.8011C115.123 64.5449 114.91 65.4054 114.572 66.0804C114.349 66.5266 113.875 67.2124 113.875 67.6849C113.875 68.7102 113.875 69.7355 113.875 70.7609C113.875 71.5359 114.121 72.2178 114.285 72.9517C114.473 73.8007 114.412 74.6384 114.959 75.3418C116.081 76.7832 116.066 78.8982 116.066 80.6197C116.066 81.6155 116.066 82.6114 116.066 83.6072C116.066 84.2744 116.042 85.5951 116.309 86.1964C116.488 86.5988 116.422 86.9968 116.619 87.3914C116.759 87.6707 117.232 88.1521 117.261 88.3872C117.29 88.6223 117.763 89.1038 117.903 89.3831C118.08 89.7374 118.093 90.4724 118.301 90.733C118.67 91.1947 118.456 92.3636 118.456 92.9681C118.456 93.3664 118.456 93.7648 118.456 94.1631C118.456 94.7039 118.704 94.7087 118.854 95.159" stroke="#F5C653" stroke-width="10" stroke-linecap="round"/>
<path d="M101.328 54.927C101.328 59.1482 100.929 63.2724 100.929 67.4746C100.929 71.0499 100.322 74.5923 101.483 78.0748C102.377 80.7566 103.749 83.5505 103.917 86.3956C104.074 89.0634 105.909 91.6693 105.909 94.3623" stroke="#F5C653" stroke-width="10" stroke-linecap="round"/>
<path d="M148.929 73.0513C148.929 75.0532 149.087 77.0424 149.88 78.8272C150.73 80.7394 149.622 82.9246 149.117 84.6916C148.627 86.4072 148.562 88.3375 147.933 90.0691C147.581 91.0353 147.209 91.7743 146.981 92.7689C146.828 93.4415 147.02 94.8187 146.339 95.1589" stroke="#F5C653" stroke-width="3" stroke-linecap="round"/>
<path d="M150.323 75.2422C150.36 77.3918 151.319 79.3337 151.319 81.5159C151.319 82.713 151.631 84.3976 151.274 85.5546C150.994 86.4678 150.185 87.226 149.936 88.0995C149.683 88.9823 150.05 90.1911 149.526 90.9764" stroke="#F5C653" stroke-width="3" stroke-linecap="round"/>
<path d="M151.916 79.2255C151.898 79.0927 151.827 75.5153 151.606 75.4524C150.893 75.2487 151.707 77.0605 151.717 77.2338C151.737 77.5978 151.636 77.7371 152.005 77.8424C152.101 77.8701 151.442 77.332 151.208 77.0347C150.809 76.5266 150.089 75.9678 149.913 75.3528C149.834 75.0753 149.169 74.4194 148.973 74.2021C148.66 73.8548 148.038 72.7776 147.944 72.3542C147.708 71.294 148.117 72.9829 148.132 73.2505C148.157 73.69 148.519 75.4355 148.929 75.6405" stroke="#F5C653" stroke-width="3" stroke-linecap="round"/>
<path d="M136.182 59.3087C136.619 59.8382 137.3 60.2965 137.62 60.9021C137.809 61.2576 137.902 61.7597 137.576 61.1898C136.828 59.8813 135.5 57.9939 134.235 57.1179C133.317 56.4824 132.599 55.3373 131.601 54.8385C130.676 54.3762 129.658 53.9455 128.968 53.1788C128.846 53.0434 128.291 51.2468 127.817 51.8399C127.39 52.3734 127.02 53.2227 127.02 53.9312C127.02 54.6134 127.047 55.7026 126.522 56.1221C126.007 56.5342 126.224 57.9182 126.224 58.5121" stroke="#F5C653" stroke-width="3" stroke-linecap="round"/>
<path d="M117.261 44.172C116.007 43.6824 115.915 43.8867 115.314 44.9686C115.166 45.235 114.89 45.9828 114.672 46.1194C113.883 46.6124 113.697 48.0032 113.322 48.7528C112.373 50.6506 111.746 52.6079 111.297 54.6283C111.096 55.532 110.83 56.6243 110.39 57.4166C109.952 58.2054 110.091 59.2913 110.091 60.205C110.091 61.2672 110.091 62.3294 110.091 63.3917C110.091 63.7332 109.792 64.0878 109.704 64.3986C109.582 64.8251 109.693 65.437 109.693 65.8813" stroke="#F5C653" stroke-width="3" stroke-linecap="round"/>
<path d="M119.85 61.4996C119.85 64.3201 120.21 67.1333 120.049 69.8646C119.925 71.9749 119.247 75.2284 120.049 77.2338" stroke="#F5C653" stroke-width="3" stroke-linecap="round"/>
<path d="M107.9 44.7695C107.567 45.9245 107.307 47.5532 106.406 48.4541C105.929 48.9314 105.429 49.321 104.957 49.7929C104.699 50.0504 104.016 50.9437 103.618 50.9437C103.268 50.9437 103 51.2366 102.633 51.1318C102.313 51.0404 102.336 50.7445 101.925 50.7445C101.012 50.7445 100.765 49.7813 101.626 49.4499C102.125 49.2582 103.76 49.6796 103.718 48.952C103.702 48.6881 103.352 48.6166 103.319 48.3545C103.249 47.7896 103.12 49.4747 103.12 49.6491C103.12 51.131 102.298 51.5482 101.372 52.3821C100.953 52.7593 100.682 53.6679 100.221 53.9312C99.6136 54.2783 98.8268 54.8387 98.34 55.3254C97.4129 56.2525 97.4459 57.887 96.5918 58.9547C96.2762 59.3492 96.2906 60.1582 96.1603 60.6144C95.991 61.2068 95.7536 62.0937 95.3968 62.5397C95.0239 63.0058 95.1534 63.8001 95.1534 64.3875C95.1534 65.0665 94.9542 65.8002 94.9542 66.3792C94.9542 69.0816 94.5559 71.9763 94.5559 74.7442C94.5559 77.8221 94.3672 81.236 95.8504 83.906C96.5876 85.2328 96.7387 86.9252 97.3442 88.2877C97.6026 88.869 97.7278 89.5638 98.0966 90.0248C98.4676 90.4886 98.4613 91.8701 98.838 92.1714C99.2041 92.4643 99.2611 93.3309 99.4908 93.7648C99.779 94.3092 100.397 95.0255 100.83 95.4577C101.377 96.0053 101.194 96.8341 101.571 97.3055C101.808 97.6022 101.726 99.5245 101.726 98.3456" stroke="#F5C653" stroke-width="3" stroke-linecap="round"/>
<path d="M98.9376 89.1839C98.5308 86.0651 96.6421 83.5846 95.9611 80.5201C95.8308 79.9337 95.7045 79.4967 95.3526 80.2214C94.9812 80.986 94.5559 81.8446 94.5559 82.711C94.5559 83.6824 94.9768 82.6613 95.253 82.3237C95.8602 81.5815 97.2174 81.1888 98.0967 80.8631C99.031 80.5171 100.029 80.4205 101.029 80.4205C101.924 80.4205 102.12 80.5797 102.478 79.823C103.123 78.4613 103.465 77.0037 103.729 75.552C103.864 74.8065 105.121 72.8437 105.499 74.5451C105.696 75.4293 105.402 76.3444 106.063 77.0789C106.681 77.765 107.453 79.5378 107.502 80.4205C107.555 81.3764 107.502 82.3509 107.502 83.3085C107.502 84.4843 108.506 85.8191 108.796 86.982C109.333 89.1295 108.697 90.9769 108.697 93.123C108.697 94.6934 109.219 96.6574 109.991 98.0469C110.201 98.4233 110.709 98.7949 110.689 99.1423C110.666 99.5194 109.342 99.3415 108.996 99.3415C107.951 99.3415 106.843 99.1423 105.709 99.1423C104.842 99.1423 101.709 99.688 101.328 98.5448" stroke="#F5C653" stroke-width="3" stroke-linecap="round"/>
<path d="M118.257 99.1423C120.376 99.546 122.217 99.939 124.331 99.939C125.455 99.939 126.546 99.7993 127.618 99.7398C128.014 99.7178 128.422 99.3749 128.713 99.1423C129.213 98.7426 127.847 98.744 129.311 98.744C130.605 98.744 131.9 98.744 133.194 98.744C134.058 98.744 135.764 99.0624 136.58 98.6997C137.061 98.486 137.547 98.5448 138.074 98.5448C138.612 98.5448 138.517 99.1202 138.871 99.1202C138.968 99.1202 139.559 98.4944 139.568 98.3456C139.595 97.8752 139.562 97.5374 139.369 97.1506" stroke="#F5C653" stroke-width="3" stroke-linecap="round"/>
<path d="M141.161 65.0846C141.716 65.8478 141.886 66.6419 142.754 67.0763" stroke="#F5C653" stroke-width="3" stroke-linecap="round"/>
<path d="M148.929 76.0388C148.901 77.1591 148.293 78.4076 148.541 79.5243C148.722 80.3355 149.128 81.1788 149.128 82.0139" stroke="#F5C653" stroke-width="3" stroke-linecap="round"/>
<path d="M147.933 75.6405C147.933 73.9531 147.535 72.2315 147.535 70.6613" stroke="#F5C653" stroke-width="3" stroke-linecap="round"/>
<path d="M139.767 58.9104C138.881 58.2184 138.142 57.6751 137.421 56.8745C137.044 56.4556 136.387 55.8188 135.872 55.5246C135.062 55.0614 135.084 53.9927 134.279 53.5329C133.452 53.0606 133.762 51.8632 132.796 51.5412" stroke="#F5C653" stroke-width="3" stroke-linecap="round"/>
<path d="M120.647 40.7861C121.839 41.9784 122.949 42.9924 123.944 44.2716C124.693 45.2338 126.081 45.8777 126.622 46.9603" stroke="#F5C653" stroke-width="3" stroke-linecap="round"/>
<path d="M147.335 64.4871C148.561 64.9656 149.2 65.1869 149.537 66.3681C149.64 66.7277 149.626 67.1757 149.736 67.5631C149.815 67.8372 149.646 68.5206 149.327 67.9615C148.829 67.0895 147.994 66.3817 147.933 65.2838C147.884 64.3995 147.109 64.432 146.738 63.6904" stroke="#F5C653" stroke-width="3" stroke-linecap="round"/>
<path d="M146.097 63.3529C145.962 63.1798 145.086 61.8866 144.906 61.8642C144.491 61.8122 144.111 61.0689 144.758 61.7153" stroke="#F5C653" stroke-linecap="round"/>
<path d="M145.353 63.7995C145.172 63.5508 145.04 63.3217 144.906 63.0552" stroke="#F5C653" stroke-linecap="round"/>
<path d="M104.711 47.4236C104.793 47.0527 105.278 46.0367 105.24 46.4146C105.194 46.8739 104.492 47.2132 104.207 47.4981C103.966 47.739 105.29 47.8946 105.422 47.5725C105.576 47.1997 104.07 46.8281 103.743 46.8281C103.538 46.8281 103.609 47.4679 103.818 47.5725" stroke="#F5C653" stroke-linecap="round"/>
<path d="M108.135 48.168C108.135 48.565 108.135 48.962 108.135 49.359C108.135 49.7124 108 49.5282 107.837 49.7311C107.684 49.9231 107.703 50 107.689 50.2522C107.672 50.539 107.311 50.2726 107.25 50.4838C107.014 51.3112 107.322 52.3165 107.085 53.1469C106.987 53.4889 106.818 53.8793 106.795 54.2717C106.788 54.3997 106.537 55.339 106.465 55.4296C106.119 55.8612 106.439 57.8447 105.902 57.8447" stroke="#F5C653" stroke-linecap="round"/>
<path d="M124.958 86.2792C125.145 86.7599 125.377 87.1318 125.404 87.619C125.415 87.8108 125.506 88.3329 125.586 88.5123C125.806 89.0063 126.042 87.4913 126 87.5446C125.443 88.2401 125.404 86.8297 125.404 87.098C125.404 87.6817 125.553 88.3322 125.553 88.9589C125.553 89.3724 125.628 90.3923 125.884 90.7122C126.047 90.9165 125.933 91.305 126.116 90.8942C126.262 90.5638 126.36 90.1301 126.438 89.7777C126.517 89.4214 126.149 88.1536 126.149 88.8927C126.149 89.2454 126.238 89.7267 126.14 90.0671C126.068 90.3196 125.851 90.4491 125.851 90.7453" stroke="#F5C653" stroke-linecap="round"/>
<path d="M94.1412 84.3438C94.2631 84.9685 94.2885 85.231 94.5548 85.6837C94.6924 85.9177 94.9677 86.2392 95.0262 86.5025C95.1798 87.1938 94.7964 87.5744 95.4811 87.9168" stroke="#F5C653" stroke-linecap="round"/>
<path d="M98.4585 95.6581C98.9357 96.2689 100.294 98.1379 99.9472 97.4446" stroke="#F5C653" stroke-linecap="round"/>
<path d="M118.705 42.6597C118.068 42.6597 116.659 42.7366 116.323 42.0642" stroke="#F5C653" stroke-linecap="round"/>
<path d="M128.233 50.5499C127.769 50.5499 127.42 50.5902 127.042 50.4011" stroke="#F5C653" stroke-linecap="round"/>
</svg>
