<svg width="256" height="256" viewBox="0 0 256 256" fill="none" xmlns="http://www.w3.org/2000/svg">
<path d="M99.8303 192.603C99.8303 191.318 99.2174 187.472 100.087 186.439C101.14 185.189 101.72 182.33 103.683 182.33C105.397 182.33 105.224 182.715 106.251 183.871C106.896 184.596 107.022 186.03 107.022 186.953C107.022 187.437 106.788 188.923 107.422 188.109C108.681 186.489 109.815 181.005 112.416 184.256C113.188 185.221 114.171 186.043 114.841 187.096C115.663 188.386 115.755 190.326 115.755 191.833" stroke="white" stroke-width="2"/>
<path d="M123.203 181.559C123.203 184.616 123.027 187.733 123.332 190.777C123.462 192.078 123.717 193.352 123.717 194.658" stroke="white" stroke-width="2"/>
<path d="M93.4892 140.983C93.4892 138.653 92.9016 136.466 92.9016 134.16C92.9016 132.637 92.9016 131.114 92.9016 129.59C92.9016 126.763 92.3225 122.739 93.4239 120.123C93.8714 119.06 94.4927 117.964 94.9582 116.826C95.4585 115.603 96.3572 114.039 96.4273 112.778C96.5435 110.685 97.9521 108.195 98.843 106.314C99.3182 105.311 99.7734 104.162 100.377 103.213C101.044 102.165 101.135 100.08 102.157 99.2626C102.998 98.5896 103.678 96.908 104.36 96.0307C106.063 93.8418 108.206 92.272 110.383 90.5789C111.132 89.9966 111.68 88.9793 112.734 88.9793C114.509 88.9793 116.413 87.8583 118.153 87.5103C122.721 86.5966 127.323 86.6288 131.978 86.6288C136.662 86.6288 138.256 90.0957 141.086 93.0926C143.563 95.7152 145.545 98.3767 147.55 101.385C149.945 104.977 150.947 111.258 149.46 115.422C148.77 117.353 148.431 120.275 148.431 122.327C148.431 123.149 148.306 124.435 148.121 125.265C147.882 126.34 147.859 127.804 147.403 128.807C146.451 130.901 146.219 133.448 145.053 135.548C144.567 136.421 144.506 137.567 144.302 138.486C144.081 139.479 143.73 140.249 143.73 141.277" stroke="black" stroke-width="2"/>
<path d="M98.5084 102.974C95.8751 102.664 90.5707 101.191 89.2514 104.563C88.1399 107.404 89.7759 109.278 92.253 110.339C94.9469 111.494 97.3813 112.054 100.299 112.054C102.803 112.054 102.359 105.886 102.494 104.235C102.533 103.751 102.968 96.5486 101.434 97.8032C101.17 98.0196 98.7101 100.522 98.7101 100.704C98.7101 101.015 99.3396 100.662 99.6434 100.729C100.138 100.839 100.454 101.255 101.005 101.133C101.753 100.966 101.736 99.9635 101.661 99.3671C101.524 98.269 100.075 98.3352 99.2146 98.232C95.6987 97.8101 93.3178 104.787 97.6003 104.311C99.7413 104.073 100.921 103.039 101.686 101.057C102.265 99.5586 102.841 97.3655 100.678 97.5258C99.2103 97.6344 95.8266 108.441 105.42 102.671C111.255 99.1613 116.3 93.4889 117.779 86.7302C118.189 84.856 115.904 83.9807 114.424 85.0907C112.591 86.4655 113.639 92.7866 117.098 89.3282C121.035 85.3913 112.102 83.9209 111.271 89.53C110.186 96.8589 125.876 89.8848 128.65 88.1932C129.849 87.462 132.106 84.1524 132.106 86.6293C132.106 87.9973 132.196 88.7481 132.661 89.9084C133.596 92.2463 135.327 94.6454 136.873 96.5925C138.101 98.139 139.904 100.944 141.64 101.965C142.151 102.265 142.629 103.94 143.229 103.806C144.283 103.572 144.872 100.066 145.272 99.1653C145.409 98.8579 137.627 97.0717 136.242 97.0717C134.063 97.0717 136.043 98.9964 137.1 99.3418C139.204 100.03 141.996 99.5955 143.91 100.603C145.069 101.213 145.272 103.176 145.272 104.336C145.272 106.621 146.012 109.068 146.634 111.247C146.697 111.466 147.972 116.064 148.652 115.384C149.622 114.414 148.904 110.189 148.904 108.876C148.904 106 148.919 102.771 145.272 102.974C143.81 103.055 143.701 105.543 143.961 106.581C144.427 108.446 148.519 108.262 149.787 107.691C150.463 107.387 153.211 104.26 151.881 103.529C148.968 101.927 145.024 103.455 143.507 106.152C142.486 107.967 141.65 111.066 144.011 112.054C145.698 112.76 147.919 113.706 149.257 111.853C150.591 110.006 151.036 105.462 149.081 103.932C146.55 101.952 143.305 103.416 142.195 106.152C141.602 107.612 139.994 111.317 142.573 111.575C146.579 111.976 149.458 105.59 149.762 102.318C150.094 98.7459 149.878 96.6954 145.726 97.1726C142.762 97.5134 138.838 100.674 138.487 103.832C138.168 106.706 150.436 103.6 146.987 97.0717C145.448 94.1583 140.569 93.49 137.604 93.49C135.519 93.49 135.913 96.5019 137.554 96.9708C139.835 97.6227 140.896 95.9725 140.707 93.8936C140.452 91.0903 136.684 90.5309 134.376 90.7407C133.638 90.8077 130.492 91.9517 131.753 93.3387C133.184 94.9138 135.826 92.3051 136.394 91.1695C138.955 86.0471 132.979 86.8514 130.845 89.8075C129.694 91.4008 130.108 92.5316 131.929 92.5316C134.506 92.5316 136.387 91.6535 136.999 88.8994C137.849 85.0723 125.295 84.3087 125.295 88.8994C125.295 93.0138 131.576 93.8931 132.534 89.5804C133.169 86.7245 133.22 84.057 129.836 83.199C126.662 82.3943 122.174 82.6466 119.393 84.3845C117.05 85.8489 112.375 90.831 115.988 93.6414C118.971 95.9613 121.285 83.4914 119.292 82.0892C114.853 78.9654 110.869 87.0767 112.23 90.6146C112.651 91.7104 116.314 91.2965 117.123 90.8921C118.946 89.9805 120.251 87.5146 120.251 85.4943C120.251 82.8669 112.752 83.8963 111.473 83.9052C105.384 83.9478 97.695 84.2389 92.934 88.6472C88.7636 92.5087 95.2207 98.2165 99.4164 97.4249C102.658 96.8133 105.505 94.0158 107.816 91.8758C109.169 90.6232 111.221 89.2708 111.221 87.1842C111.221 84.9468 108.747 85.1459 107.135 85.2925C103.505 85.6225 102.595 90.2333 102.595 93.1874C102.595 94.5015 102.094 96.0523 103.603 96.5168C105.689 97.1585 106.353 95.8816 106.908 94.0954C107.817 91.1654 108.026 88.5698 104.411 88.0923C101.289 87.68 101.232 92.1644 101.232 94.2467C101.232 98.2448 106.442 98.3293 107.236 94.4485C108.4 88.7544 97.1463 92.2974 97.1463 98.1816C97.1463 99.4004 96.6549 101.756 98.0543 102.419C98.621 102.687 100.988 102.816 101.434 102.242C102.351 101.064 102.684 96.909 101.586 95.8106C99.7143 93.9393 96.4847 95.708 95.4311 97.4249C94.5591 98.8459 93.2783 103.264 96.2383 103.428C98.8269 103.572 100.384 99.9617 101.686 98.0807C104.418 94.1347 102.038 91.6235 97.3985 91.6235C96.1611 91.6235 92.0043 92.8189 93.7916 95.0034C96.7727 98.647 106.738 94.5835 109.329 93.7423C117.276 91.1627 127.125 87.2626 132.459 80.2731C133.876 78.4166 131.467 78.1268 130.037 78.0282C128.152 77.8982 124.452 77.8589 123.025 79.3651C122.153 80.2863 122.291 83.3567 123.126 84.2584C124.204 85.4219 125.114 85.7213 126.632 85.7213C127.716 85.7213 128.61 84.7325 128.574 84.8133C127.124 88.1284 133.88 86.5653 135.006 84.8133C135.927 83.3818 134.787 82.5993 133.468 83.5521C132.12 84.5256 130.557 86.7528 130.315 88.4454C130.014 90.5502 136.968 88.3814 137.655 87.0834C138.375 85.7222 137.03 85.4498 135.965 85.0403C134.118 84.3299 133.857 86.6947 133.569 87.9914C133.31 89.1544 133.015 90.7155 134.451 90.7155C138.071 90.7155 141.568 91.1073 144.768 89.1517C146.119 88.3261 146.016 86.8623 145.272 88.1932C143.98 90.5061 142.357 92.6976 142.119 95.4322C141.867 98.3372 147.524 94.2471 142.901 94.3476C138.358 94.4464 135.765 99.8418 142.094 98.7869C144.301 98.4191 146.954 97.6121 148.854 96.3907C149.727 95.8294 149.799 93.7987 149.157 94.6251C147.889 96.2542 148.406 99.5826 148.551 101.36C148.941 106.116 150.248 111.544 151.83 116.065C152.658 118.429 150.109 114.48 149.812 113.87C149.388 112.999 149.012 111.323 148.223 110.692C146.889 109.625 145.473 107.35 148.249 107.085C150.22 106.898 152.271 107.06 154.252 107.06C155.979 107.06 155.191 105.303 153.999 104.891C151.505 104.028 154.681 109.655 156.068 106.051C157.5 102.326 145.167 102.493 146.659 107.716C146.877 108.477 149.027 107.892 149.358 107.413C150.539 105.707 151.079 103.392 150.468 101.385C150.176 100.423 148.48 98.2809 147.189 99.4427C146.464 100.095 148.92 101.158 149.358 101.158C151.035 101.158 148.433 98.78 148.173 98.6356C145.372 97.0796 142.743 95.6072 139.572 94.9025C138.279 94.6152 138.122 96.5193 138.739 97.2735C140.951 99.977 145.542 97.4602 147.441 95.861C150.773 93.0551 155.616 88.029 156.37 83.5017C156.698 81.5369 151.837 82.0039 150.72 82.1901C148.892 82.4947 145.839 83.6299 145.323 85.6961C145.042 86.819 144.995 89.1794 145.978 89.984C147.094 90.8968 148.929 91.0006 149.711 89.7066C150.513 88.3811 152.351 84.0477 151.301 82.5936C148.952 79.3413 139.095 80.2731 135.738 80.2731C132.828 80.2731 125.87 80.0284 125.749 84.3592C125.645 88.1277 133.152 89.2352 133.014 85.3682C132.924 82.8668 127.406 83.4512 125.825 83.4512C124.938 83.4512 124.841 83.7089 124.841 84.561C124.841 85.7496 126.996 85.949 127.818 86.1501C129.241 86.4986 133.448 87.4971 134.729 86.0744C135.432 85.293 133.696 84.9916 133.266 85.5447C130.832 88.6743 138.722 88.8994 140.051 88.8994C140.71 88.8994 141.61 88.2189 141.64 89.0003C141.712 90.8836 141.357 92.9168 141.867 94.7512C142.036 95.3604 142.903 96.9694 143.809 96.0628C144.856 95.0155 143.526 94.6731 145.827 95.1548C146.937 95.3871 149.461 96.8804 150.468 96.5925C150.894 96.471 150.72 94.6801 150.72 95.2557C150.72 97.3388 150.615 99.2003 151.376 101.158C152.411 103.82 150.678 102.238 149.358 102.091C147.913 101.931 146.731 102.52 145.373 102.52C142.946 102.52 141.823 98.9129 141.438 97.0465C140.725 93.5823 141.374 91.101 145.323 90.8164C150.16 90.4678 152.461 92.6633 153.344 97.1726C153.58 98.3796 153.862 100.315 152.511 100.906C151.81 101.212 148.765 102.179 148.097 101.511C146.074 99.4883 156.943 99.1005 153.596 101.839C151.052 103.921 147.041 101.291 147.088 98.3329C147.152 94.2906 152.001 94.7708 154.126 96.8952C157.684 100.453 160.001 106.094 161.163 110.944C162.205 115.297 156.981 113.66 154.907 112.155C153.695 111.275 151.225 109.34 151.225 107.539C151.225 107.066 151.805 106.853 151.982 107.363C152.234 108.093 152.113 109.114 152.082 109.885C152.046 110.804 151.394 107.849 152.587 106.657C154.698 104.546 157.934 105.663 157.934 108.624C157.934 110.633 156.775 113.428 154.252 112.307C150.407 110.598 150.72 104.487 150.72 101.082C150.72 95.8696 159.861 98.3754 158.792 100.603C157.884 102.495 149.954 100.848 148.551 100.225C147.963 99.9634 144.103 97.4284 145.373 96.2646C146.941 94.8271 151.566 95.8313 153.394 96.1637C155.055 96.4656 156.17 97.9829 153.798 98.3329C150.685 98.7921 146.602 98.7525 143.961 96.8447C143.22 96.3098 141.529 92.5945 143.103 92.5316C145.677 92.4286 145.547 95.4808 147.088 92.7838C147.296 92.4197 149.65 92.6022 149.157 92.0775C147.295 90.0997 141.957 90.248 139.597 89.8075C137.912 89.4929 130.123 86.8254 128.574 88.0923C126.86 89.4949 130.469 90.9152 131.198 91.0686C133.508 91.5549 134.649 89.1126 135.032 87.3104C135.195 86.539 134.879 82.9878 134.83 84.2584C134.735 86.731 136.053 87.5647 138.462 87.9662C141.138 88.4121 143.74 89.6065 146.382 89.984C146.996 90.0718 144.553 85.1793 144.162 84.7124C142.919 83.2272 140.457 83.0366 138.689 83.7287C137.756 84.0936 134.529 86.2184 134.578 87.4365C134.656 89.4015 141.608 87.1976 142.548 86.0744C145.26 82.8357 141.642 82.5019 138.941 81.8621C138.531 81.7649 133.501 81.0365 134.83 81.736C136.331 82.5259 139.375 82.6664 140.404 84.107C140.536 84.2916 136.812 84.3512 136.444 84.334C133.885 84.215 131.441 83.3378 128.902 83.0476C126.711 82.7972 127.704 85.2673 129.382 85.2673C131.573 85.2673 131.881 81.2518 131.601 79.6425C130.995 76.1574 125.535 79.0089 124.589 80.7271C123.96 81.8694 122.62 88.512 125.951 86.2258C128.49 84.4836 129.626 80.0568 125.724 79.4407C122.396 78.9152 118.987 81.5839 118.132 84.8133C117.797 86.0792 118.781 84.799 118.99 84.4854C119.997 82.9736 120.918 81.3772 121.411 79.6173C121.969 77.6237 120.762 78.2249 119.847 79.4659C118.402 81.4272 118.031 83.2903 118.031 85.6709C118.031 87.8203 118.556 89.823 120.301 86.7807C121.882 84.0263 123.707 79.2796 119.116 79.4407C115.61 79.5637 112.129 81.8952 112.129 85.7213C112.129 88.3454 115.167 86.6434 115.963 85.4691C119.642 80.0381 109.859 81.5931 109.859 85.015C109.859 86.666 113.919 86.0265 114.853 85.7213C118.363 84.5739 116.578 82.3987 113.541 82.6441C111.484 82.8103 108.477 83.1768 108.976 85.9231C109.461 88.5928 111.94 83.9858 112.028 83.1485C112.35 80.0935 109.506 78.9479 107.664 81.7108C106.641 83.2464 106.681 85.2427 106.681 87.0077C106.681 87.9277 106.922 89.0937 107.336 87.4365C107.554 86.5645 108.353 81.6351 106.58 81.6351C104.582 81.6351 104.692 84.2876 104.89 85.6709C105.174 87.6617 108.363 84.7071 108.648 84.2079C109.337 83.0019 107.401 82.9758 106.681 83.0981C105.025 83.3793 103.737 84.579 102.595 85.7213C101.943 86.3733 99.6579 88.9219 101.056 90.0092C102.49 91.1244 104.505 90.1438 104.411 88.4454C104.232 85.2308 91.3303 93.4032 100.299 92.5063C101.986 92.3377 103.613 88.9594 102.292 87.6383C99.8735 85.2199 94.2568 86.9988 92.2026 88.9246C90.9666 90.0833 88.9595 93.5922 91.2441 94.8017C92.0864 95.2476 94.3544 96.1254 95.3302 95.6088C97.1118 94.6656 93.2005 94.266 92.6061 94.3981C91.2887 94.6909 90.5237 96.8961 92.0512 97.4249C94.4398 98.2517 95.3862 94.5784 95.986 93.036C96.4094 91.9474 95.4844 91.9334 94.6492 92.4054C92.932 93.376 91.8575 96.3059 91.3197 98.0807C91.1605 98.6061 90.6136 99.9473 90.8909 100.502C91.3872 101.495 92.1834 99.923 92.253 99.5941C93.0736 95.7151 92.8795 93.036 88.1164 93.036C85.29 93.036 83.8337 95.7076 84.5347 98.4338C84.7273 99.1829 86.1895 100.825 86.7039 99.7958" stroke="black" stroke-width="2"/>
</svg>
