<svg width="256" height="256" viewBox="0 0 256 256" fill="none" xmlns="http://www.w3.org/2000/svg">
<path d="M99.8303 192.603C99.8303 191.318 99.2174 187.472 100.087 186.439C101.14 185.189 101.72 182.33 103.683 182.33C105.397 182.33 105.224 182.715 106.251 183.871C106.896 184.596 107.022 186.03 107.022 186.953C107.022 187.437 106.788 188.923 107.422 188.109C108.681 186.489 109.815 181.005 112.416 184.256C113.188 185.221 114.171 186.043 114.841 187.096C115.663 188.386 115.755 190.326 115.755 191.833" stroke="white" stroke-width="2"/>
<path d="M123.203 181.559C123.203 184.616 123.027 187.733 123.332 190.777C123.462 192.078 123.717 193.352 123.717 194.658" stroke="white" stroke-width="2"/>
<path d="M93.4892 140.983C93.4892 138.653 92.9016 136.466 92.9016 134.16C92.9016 132.637 92.9016 131.114 92.9016 129.59C92.9016 126.763 92.3225 122.739 93.4239 120.123C93.8714 119.06 94.4927 117.964 94.9582 116.826C95.4585 115.603 96.3572 114.039 96.4273 112.778C96.5435 110.685 97.9521 108.195 98.843 106.314C99.3182 105.311 99.7734 104.162 100.377 103.213C101.044 102.165 101.135 100.08 102.157 99.2626C102.998 98.5896 103.678 96.908 104.36 96.0307C106.063 93.8418 108.206 92.272 110.383 90.5789C111.132 89.9966 111.68 88.9793 112.734 88.9793C114.509 88.9793 116.413 87.8583 118.153 87.5103C122.721 86.5966 127.323 86.6288 131.978 86.6288C136.662 86.6288 138.256 90.0957 141.086 93.0926C143.563 95.7152 145.545 98.3767 147.55 101.385C149.945 104.977 150.947 111.258 149.46 115.422C148.77 117.353 148.431 120.275 148.431 122.327C148.431 123.149 148.306 124.435 148.121 125.265C147.882 126.34 147.859 127.804 147.403 128.807C146.451 130.901 146.219 133.448 145.053 135.548C144.567 136.421 144.506 137.567 144.302 138.486C144.081 139.479 143.73 140.249 143.73 141.277" stroke="black" stroke-width="2"/>
<path d="M119.516 93.8599C118.868 91.6106 118.012 89.2911 117.888 86.9409C117.827 85.7818 117.595 84.0161 117.277 82.871C116.295 79.3356 115.406 75.5036 114.722 71.8821C114.55 70.9707 112.793 63.5989 113.637 63.3579C114.45 63.1255 117.582 66.5433 118.204 66.9982C123.625 70.9592 122.647 79.2041 124.309 84.8155C124.833 86.5827 124.521 90.6796 125.824 91.9832C126.334 92.4933 126.842 86.6445 126.842 85.9461C126.842 83.7394 126.028 81.5355 126.028 79.208C126.028 76.3725 126.107 73.4871 126.457 70.6838C126.541 70.0144 127.13 69.003 127.452 68.4227C128.402 66.7129 128.861 64.8664 129.691 63.1091C131.075 60.1778 130.505 65.0748 130.505 66.1842C130.505 68.6314 131.547 71.189 132.133 73.5327C133.014 77.0574 133.983 80.5594 134.891 84.092C135.391 86.0362 135.796 87.5588 135.796 89.5864C135.796 90.6261 135.778 88.0294 135.886 87.6645C136.19 86.6388 136.203 85.7691 136.203 84.7025C136.203 82.715 137.311 80.8349 137.424 78.8011C137.529 76.8996 138.881 73.5838 140.046 72.0856C141.38 70.3712 141.635 67.3486 142.624 65.3702C144.506 61.6073 144.343 64.9357 144.343 67.2243C144.343 71.6452 143.529 75.8925 143.529 80.4064C143.529 82.4561 142.793 83.9914 142.715 86.0365C142.649 87.7426 141.387 92.7149 141.494 91.0109C141.642 88.6436 143.292 85.1078 144.365 83.0293C146.476 78.9393 149.042 75.1134 151.171 71.0681C151.83 69.8167 152.63 63.7875 154.291 63.7875C155.645 63.7875 153.548 69.495 153.116 70.0507C151.784 71.7625 150.963 75.105 150.854 77.1731C150.746 79.224 149.889 80.4616 149.226 82.2831C147.745 86.3575 144.343 89.2519 144.343 93.8599" stroke="#2400FF" stroke-width="2"/>
<path d="M122.772 93.8599C122.377 91.6858 122.32 89.8005 121.234 87.8454C120.859 87.1693 120.33 85.9755 120.33 85.1773C120.33 83.9188 120.737 87.6722 120.737 88.9307C120.737 89.3174 120.611 91.501 120.239 90.016C119.706 87.882 119.35 85.4406 119.131 83.2554C119.049 82.4323 119.554 80.375 119.018 79.7055C118.506 79.0651 118.046 78.3787 117.707 77.6027C117.623 77.41 116.9 75.9973 117.3 75.9973C117.862 75.9973 118.186 76.0124 117.797 75.1381C117.132 73.6418 117.504 71.7466 116.757 70.2542C116.525 69.79 116.11 69.878 115.762 69.5306C115.29 69.0585 115.559 68.6271 115.423 68.0157C115.148 66.7786 115.071 67.3753 115.355 68.4001C115.731 69.7519 116.083 70.8611 116.848 72.063C117.549 73.1651 117.69 73.9005 118.611 74.8215C119.932 76.1419 118.787 71.6611 118.498 70.9099C117.473 68.244 118.806 72.6829 119.018 73.5101C119.373 74.8886 119.69 76.1202 120.33 77.3992C120.598 77.9349 120.226 79.4506 120.94 80.022C122.478 81.2521 122.976 85.4216 123.97 87.0992C124.04 87.2178 125.238 89.2758 124.942 89.3603C124.079 89.607 123.018 88.7938 122.455 88.2524C120.817 86.677 119.126 83.879 118.385 81.7405C117.843 80.1738 118.915 80.4948 119.131 81.8987C119.553 84.6357 120.43 86.5533 121.641 88.9759C122.1 89.8938 122.894 91.1342 123.156 92.051C124.198 95.6987 118.477 85.9048 117.277 82.3057C116.629 80.3605 116.667 78.8273 116.667 76.7661C116.667 76.5859 116.468 71.6309 118.204 73.1936C119.718 74.5557 119.001 76.9366 120.33 78.5975C121.01 79.4476 122.274 80.1117 123.088 80.9265C124.434 82.2718 125.979 83.3846 127 85.0869C127.319 85.6178 128.545 87.9059 127.972 88.4785C127.125 89.3262 125.17 85.8313 124.897 85.313C124.305 84.1876 123.977 82.9237 123.382 81.8535C123.279 81.668 123.11 80.1341 123.495 80.5195C124.158 81.1825 124.581 82.827 125.01 83.685C125.671 85.0074 125.901 86.5058 126.525 87.7549C126.848 88.3999 127.656 85.3855 127.656 84.906" stroke="#2400FF" stroke-width="2"/>
<path d="M128.877 67.4052C128.963 70.9493 130.59 74.7563 131.545 78.1679C132.28 80.7922 131.962 83.3553 132.449 86.0365C133.619 92.4709 132.764 81.6065 133.444 80.9265C133.618 80.753 133.761 84.235 133.761 84.7251C133.761 85.5315 133.761 86.338 133.761 87.1444C133.761 88.2894 130.166 83.6127 129.781 82.871C129.006 81.376 128.399 78.7432 128.899 76.9922C129.022 76.5629 130.774 80.5298 130.912 81.2204C131.127 82.2982 133.133 84.4544 132.042 84.3181C130.993 84.187 129.038 79.8091 128.651 78.8915C128.299 78.059 127.872 77.0276 127.678 76.1556C127.556 75.6057 127.288 72.5797 127.656 72.7866C128.083 73.0271 130.042 79.4577 128.289 75.9521C127.895 75.1637 127.249 71.1325 127.249 73.9171C127.249 75.864 127.775 78.6897 127.226 80.6099C127.069 81.1611 126.435 81.1662 126.435 81.8535C126.435 82.7496 126.764 83.3033 127.158 84.092C127.592 84.9596 128.354 86.7669 129.08 87.3479C129.404 87.607 129.284 84.796 129.284 84.092" stroke="#2400FF" stroke-width="2"/>
<path d="M119.516 83.278C119.519 83.282 121.313 86.1447 121.37 85.6295C121.446 84.9451 120.737 84.1912 120.737 83.4815C120.737 81.7766 119.923 80.3143 119.923 78.5976C119.923 77.743 119.373 75.9361 119.018 75.1381C118.61 74.2197 117.534 72.3772 117.481 71.4751C117.445 70.8672 115.305 67.9845 116.463 68.2418C117.737 68.5249 118.424 71.4165 118.724 72.47C118.904 73.0994 122.299 78.3941 121.551 78.3941" stroke="#2400FF" stroke-width="2"/>
<path d="M139.459 90.6039C141.048 86.5303 139.768 81.989 140.702 77.7836C141.106 75.9681 141.494 74.4201 141.494 72.4926C141.494 72.0133 141.825 70.3084 141.991 70.6612C142.792 72.3641 142.715 74.6057 142.715 76.4495C142.715 78.6282 143.122 80.6479 143.122 82.871C143.122 83.8741 142.419 88.8536 141.494 86.3078C141.053 85.0966 140.75 83.3195 140.68 82.057C140.558 79.8608 140.37 82.6234 140.295 83.4815C140.275 83.7135 140.213 87.1076 139.956 86.8505C138.792 85.6869 139.459 82.3282 139.459 80.836C139.459 78.2545 137.818 83.5997 137.65 84.2503C137.214 85.9313 137.733 87.214 138.554 84.9964C139.083 83.5693 139.82 81.8032 139.82 80.2708C139.82 79.4017 138.75 78.6651 138.238 79.8185C136.861 82.9149 139.866 77.8207 139.866 77.3766C139.866 76.3513 140.627 75.6813 140.68 74.7311C140.732 73.7881 140.68 72.8268 140.68 71.8821C140.68 71.2299 141.23 68.137 142.217 69.1236C143.285 70.192 141.901 72.2588 141.901 73.7136C141.901 75.1462 142.396 77.747 141.697 79.0046C140.747 80.7151 141.742 83.3123 140.68 84.906" stroke="#2400FF" stroke-width="2"/>
<path d="M128.063 86.5339C128.063 83.1703 126.953 80.601 126.457 77.3766C126.118 75.174 127.378 73.121 128.063 71.0681" stroke="#2400FF" stroke-width="2"/>
<path d="M142.308 95.8948C142.308 94.4766 142.012 92.4597 143.031 91.3274C143.616 90.678 144.295 89.0128 144.343 88.1619C144.401 87.1058 144.769 85.8616 145.247 84.906C145.569 84.2627 146.711 83.5315 146.784 82.871C147.02 80.7515 149.137 77.4227 150.131 75.5451C150.852 74.1821 152.075 70.1547 152.075 73.7136C152.075 77.7786 151.105 81.8932 150.063 85.5391C149.475 87.5968 149.66 89.568 149.204 91.6214C149.007 92.5094 149.048 94.0996 148.616 94.8773C148.109 95.7895 148.929 97.4881 148.322 98.2463C147.924 98.7445 147.637 100.117 147.598 100.779C147.531 101.92 146.396 99.0023 146.287 98.7438C145.728 97.4166 144.84 93.1366 146.061 91.9153C147.048 90.9284 146.84 91.2227 146.784 91.9153C146.637 93.7625 146.378 95.5259 146.378 97.4324C146.378 98.0105 146.474 98.4214 146.061 98.8342C146.018 98.8775 145.971 96.0503 145.971 95.4878C145.971 94.0714 145.328 91.1993 146.581 90.1969C146.94 89.9098 146.784 89.1889 146.784 88.7724C146.784 87.7417 146.7 89.4613 146.536 89.7899C145.381 92.0997 144.823 93.9657 144.365 96.4827C144.098 97.9502 143.005 97.5615 142.715 96.2566C142.41 94.884 142.034 93.6784 141.878 92.2771C141.777 91.367 141.037 91.4101 140.68 90.7848C139.587 88.8729 137.686 88.5689 135.592 88.5689C133.449 88.5689 137.705 88.5689 138.26 88.5689C140.526 88.5689 142.505 89.7899 144.75 89.7899C146.75 89.7899 148.362 92.6389 145.564 92.6389C143.122 92.6389 140.68 92.6389 138.238 92.6389C137.007 92.6389 135.885 92.9345 135.796 91.4179C135.753 90.6903 133.519 91.0109 132.947 91.0109C131.019 91.0109 127.109 90.1775 126.457 92.458C126.038 93.9248 123.134 94.6738 121.754 94.6738C119.813 94.6738 121.746 94.0199 122.568 93.8372C123.819 93.5593 124.906 93.4529 126.231 93.4529C128.861 93.4529 131.643 93.0459 134.371 93.0459C135.992 93.0459 137.612 93.0459 139.232 93.0459C139.914 93.0459 143.078 94.1408 141.403 93.0459C138.232 90.9727 133.923 90.1969 130.188 90.1969C128.176 90.1969 126.334 92.0009 124.807 92.9554C123.405 93.8317 121.645 95.2904 120.42 96.3923C119.663 97.074 121.986 96.7629 122.274 96.3018C122.762 95.5212 124.112 94.4437 125.01 94.2442C127.195 93.7588 129.644 92.6389 131.929 92.6389C134.1 92.6389 136.27 92.6389 138.441 92.6389C141.197 92.6389 143.295 93.1149 143.958 96.0983C144.442 98.2764 144.577 100.779 147.191 100.779" stroke="#2400FF" stroke-width="2"/>
<path d="M147.599 94.6738C147.027 93.2081 146.682 91.5935 146.061 90.1969C145.419 88.7513 143.789 90.3122 142.33 90.6039C139.89 91.0919 137.48 91.0109 134.982 91.0109C133.335 91.0109 130.446 90.9055 129.6 89.3829C129.239 88.732 126.776 88.5689 127.52 88.5689C129.027 88.5689 130.322 88.8108 131.726 88.9759C132.119 89.0222 133.573 89.7562 132.359 89.7899C130.041 89.8543 127.714 89.7899 125.395 89.7899C123.986 89.7899 119.078 89.1416 122.365 90.7848C127.137 93.1709 133.894 91.8249 139.052 91.8249C141.105 91.8249 142.431 91.2411 144.343 90.6039" stroke="#2400FF" stroke-width="2"/>
</svg>
