<svg width="256" height="256" viewBox="0 0 256 256" fill="none" xmlns="http://www.w3.org/2000/svg">
<path d="M99.8303 192.603C99.8303 191.318 99.2174 187.472 100.087 186.439C101.14 185.189 101.72 182.33 103.683 182.33C105.397 182.33 105.224 182.715 106.251 183.871C106.896 184.596 107.022 186.03 107.022 186.953C107.022 187.437 106.788 188.923 107.422 188.109C108.681 186.489 109.815 181.005 112.416 184.256C113.188 185.221 114.171 186.043 114.841 187.096C115.663 188.386 115.755 190.326 115.755 191.833" stroke="white" stroke-width="2"/>
<path d="M123.203 181.559C123.203 184.616 123.027 187.733 123.332 190.777C123.462 192.078 123.717 193.352 123.717 194.658" stroke="white" stroke-width="2"/>
<path d="M93.4893 140.983C93.4893 138.653 92.9017 136.466 92.9017 134.16C92.9017 132.637 92.9017 131.114 92.9017 129.59C92.9017 126.763 92.3226 122.739 93.424 120.123C93.8715 119.06 94.4928 117.964 94.9583 116.826C95.4586 115.603 96.3573 114.039 96.4273 112.778C96.5436 110.685 97.9521 108.195 98.8431 106.314C99.3182 105.311 99.7734 104.162 100.377 103.213C101.044 102.165 101.135 100.08 102.157 99.2626C102.998 98.5896 103.678 96.908 104.36 96.0307C106.063 93.8418 108.206 92.272 110.383 90.5789C111.132 89.9966 111.68 88.9793 112.734 88.9793C114.509 88.9793 116.413 87.8583 118.153 87.5103C122.721 86.5966 127.323 86.6288 131.978 86.6288C136.662 86.6288 138.256 90.0957 141.086 93.0926C143.563 95.7152 145.545 98.3767 147.55 101.385C149.945 104.977 150.947 111.258 149.46 115.422C148.77 117.353 148.431 120.275 148.431 122.327C148.431 123.149 148.306 124.435 148.121 125.265C147.882 126.34 147.859 127.804 147.403 128.807C146.451 130.901 146.219 133.448 145.053 135.548C144.567 136.421 144.506 137.567 144.302 138.486C144.081 139.479 143.73 140.249 143.73 141.277" stroke="black" stroke-width="2"/>
</svg>
