<svg width="256" height="256" viewBox="0 0 256 256" fill="none" xmlns="http://www.w3.org/2000/svg">
<path d="M99.8303 192.603C99.8303 191.318 99.2174 187.472 100.087 186.439C101.14 185.189 101.72 182.33 103.683 182.33C105.397 182.33 105.224 182.715 106.251 183.871C106.896 184.596 107.022 186.03 107.022 186.953C107.022 187.437 106.788 188.923 107.422 188.109C108.681 186.489 109.815 181.005 112.416 184.256C113.188 185.221 114.171 186.043 114.841 187.096C115.663 188.386 115.755 190.326 115.755 191.833" stroke="white" stroke-width="2"/>
<path d="M123.203 181.559C123.203 184.616 123.027 187.733 123.332 190.777C123.462 192.078 123.717 193.352 123.717 194.658" stroke="white" stroke-width="2"/>
<path d="M93.4892 140.983C93.4892 138.653 92.9016 136.466 92.9016 134.16C92.9016 132.637 92.9016 131.114 92.9016 129.59C92.9016 126.763 92.3225 122.739 93.4239 120.123C93.8714 119.06 94.4927 117.964 94.9582 116.826C95.4585 115.603 96.3572 114.039 96.4273 112.778C96.5435 110.685 97.9521 108.195 98.843 106.314C99.3182 105.311 99.7734 104.162 100.377 103.213C101.044 102.165 101.135 100.08 102.157 99.2626C102.998 98.5896 103.678 96.908 104.36 96.0307C106.063 93.8418 108.206 92.272 110.383 90.5789C111.132 89.9966 111.68 88.9793 112.734 88.9793C114.509 88.9793 116.413 87.8583 118.153 87.5103C122.721 86.5966 127.323 86.6288 131.978 86.6288C136.662 86.6288 138.256 90.0957 141.086 93.0926C143.563 95.7152 145.545 98.3767 147.55 101.385C149.945 104.977 150.947 111.258 149.46 115.422C148.77 117.353 148.431 120.275 148.431 122.327C148.431 123.149 148.306 124.435 148.121 125.265C147.882 126.34 147.859 127.804 147.403 128.807C146.451 130.901 146.219 133.448 145.053 135.548C144.567 136.421 144.506 137.567 144.302 138.486C144.081 139.479 143.73 140.249 143.73 141.277" stroke="black" stroke-width="2"/>
<path d="M117.236 88.1321C117.236 84.9482 117.236 81.7643 117.236 78.5804C117.236 74.1972 115.749 69.8271 115.749 65.4095C115.749 63.2723 115.154 61.0477 115.154 58.8489C115.154 58.1642 114.809 56.8374 115.451 57.8574C116.245 59.1173 116.646 60.5792 117.434 61.8565C121.398 68.2797 125.733 74.8404 127.482 82.3152C127.872 83.9834 128.177 85.5711 128.771 87.1737C129.282 88.554 129.128 84.2697 129.118 83.9512C129.011 80.4118 127.419 77.3833 126.755 73.9532C125.938 69.7337 125.416 65.2644 125.284 60.9642C125.245 59.7087 124.746 56.0863 125.334 57.1963C125.757 57.9966 126.232 58.7618 126.606 59.5925C127.552 61.6955 129.077 63.4322 130.176 65.4591C132.562 69.8598 134.417 74.8299 135.679 79.6711C135.958 80.7424 136.165 83.5282 137.017 84.3808C137.095 84.459 136.959 81.6709 136.868 81.2906C135.266 74.5961 134.606 68.0818 134.257 61.1955C134.248 61.0111 133.968 56.6345 134.34 56.6345C134.812 56.6345 135.078 58.7873 135.084 59.1133C135.19 65.1643 135.303 71.4639 136.868 77.3575C137.241 78.7607 137.384 80.5347 137.463 81.8855C137.547 83.3152 138.571 85.0805 138.653 86.6448C138.697 87.4716 139.092 88.6411 139.546 89.322" stroke="#FF0000" stroke-width="2"/>
<path d="M136.274 58.6836C136.274 62.0875 137.104 65.0737 138.505 68.1858C139.183 69.6926 139.565 71.5088 140.438 72.8956C142.478 76.1351 143.374 79.6437 144.751 83.2241C145.784 85.9095 145.495 89.2794 145.495 92.1313C145.495 93.6131 144.478 95.0497 144.008 96.461" stroke="#FF0000" stroke-width="2"/>
<path d="M123.483 84.8601C122.704 80.8665 120.943 77.0908 120.508 72.9617C120.428 72.1956 120 72.0292 119.318 72.0693C118.74 72.1033 118.969 74.2686 119.037 74.7465C119.322 76.7352 119.174 73.2984 119.087 72.7965C118.939 71.9408 118.426 71.285 118.426 70.4168C118.426 68.8534 116.939 67.952 116.939 66.7151C116.939 66.0923 117.162 65.3977 116.509 65.2112C116.149 65.1085 116.596 64.9037 116.79 64.9468C117.323 65.0653 117.446 65.7561 117.6 66.1862C118.6 68.987 119.514 73.6415 121.863 75.6554C123.274 76.8646 123.808 79.6937 124.607 81.2906C125.105 82.2878 124.788 83.4428 125.499 84.3313C125.736 84.6273 126.126 85.6342 126.16 85.2567C126.352 83.1458 125.5 81.0634 124.97 79.0762C124.564 77.5532 122.879 76.8611 122.574 75.4901C122.315 74.324 121.191 72.8204 120.574 71.7719C119.747 70.3654 117.841 69.4103 117.005 67.9049C116.727 67.4053 115.777 64.846 116.212 65.8392C116.626 66.7858 116.623 67.8911 117.005 68.7973C117.424 69.7931 116.946 70.9391 117.385 71.9041C118.114 73.509 118.329 76.2644 118.426 78.0185C118.514 79.608 119.021 81.0002 119.021 82.6291C119.021 83.6772 119.102 84.7761 119.847 85.5211C120.157 85.8306 120.231 86.688 120.657 86.3474C121.03 86.049 121.291 85.6436 121.698 85.3889C123.174 84.4666 121.379 80.9016 120.64 79.952C119.84 78.9227 120.179 78.975 120.211 80.1007C120.247 81.3991 120.262 82.5369 120.492 83.8025C120.981 86.4956 119.209 84.2594 118.955 82.4804C118.608 80.0529 118.426 77.7874 118.426 75.3414C118.426 73.1011 118.723 70.8149 118.723 68.6485C118.723 68.2895 118.354 67.0638 118.492 67.31C119.113 68.4135 119.748 69.2424 119.897 70.582C120.062 72.072 120.136 73.6864 120.574 75.11C120.93 76.2672 120.681 79.8698 121.037 78.7126C122.179 75.0022 119.607 69.5945 118.128 66.2689C117.81 65.5533 117.141 65.2975 116.707 64.8642C116.629 64.7856 116.545 64.1908 116.707 64.6989C116.952 65.4637 116.911 66.2345 117.087 67.0125C117.576 69.1618 117.425 70.9341 118.492 72.9617C119.005 73.9361 119.228 76.6348 120.211 77.1261" stroke="#FF0000" stroke-width="2"/>
<path d="M130.919 84.8601C130.919 82.4367 130.622 79.9401 130.622 77.5723C130.622 76.5824 129.943 74.9367 129.729 73.8706C129.331 71.8789 128.288 70.3158 127.928 68.3345C127.743 67.3145 127.467 66.228 127.35 65.2277C127.257 64.4396 126.2 64.341 126.292 63.5091C126.515 61.5057 127.901 67.3108 127.945 69.3261C127.993 71.5289 129.194 73.3544 129.961 75.3414C130.288 76.1908 131.297 79.8033 132.555 79.8033C133.408 79.8033 134.01 82.4809 134.34 83.2075C134.856 84.3427 135.791 85.6042 136.72 86.3474C137.311 86.8205 136.399 86.9819 136.042 86.8762C135.13 86.6058 134.435 86.0229 133.596 85.6037C133.112 85.3615 130.487 84.7963 130.638 84.1164C130.846 83.1833 133.612 82.6518 134.324 81.7368C134.808 81.1133 134.545 79.5618 134.043 79.0596C133.491 78.5082 132.403 78.6992 132.043 78.0185C131.608 77.1973 131.217 76.6258 131.217 75.6388C131.217 73.9548 130.473 71.8099 129.796 70.2846C129.609 69.8654 129.147 68.5111 129.151 68.5329C129.442 69.9889 130.324 70.917 130.324 72.5155C130.324 73.7232 131.224 76.3586 131.96 77.2583C132.225 77.582 133.131 79.0967 133.464 79.1918C135.284 79.7116 134.234 77.2524 133.894 76.4651C133.35 75.2062 132.504 74.5273 131.58 73.788C129.86 72.4115 130.546 69.6313 129.201 68.1362C129.061 67.9808 128.663 66.8932 128.556 67.6405C128.403 68.7117 128.564 69.8644 128.54 70.9456C128.51 72.2633 127.945 73.4333 127.945 74.7465C127.945 75.6464 128.079 76.6009 127.713 77.4236C127.386 78.1609 128.242 79.4779 128.242 78.316" stroke="#FF0000" stroke-width="2"/>
<path d="M141.925 91.9991C141.925 88.7183 141.737 85.5037 141.264 82.2491C141.12 81.2557 141.084 80.743 140.504 80.0346C139.305 78.5693 139.9 75.9741 138.587 74.5151C137.564 73.378 137.721 71.087 137.1 69.6896C137.003 69.4707 136.448 67.8485 136.34 67.971C135.815 68.5612 136.868 70.6002 136.868 71.3422C136.868 74.1604 138.712 77.0915 139.678 79.638C140.773 82.5258 141.33 85.3725 141.33 88.4296C141.33 89.3657 140.88 89.2899 141.628 89.6855C142.157 89.9656 142.697 91.2073 142.884 91.7678C143.038 92.2294 143.413 94.1561 143.413 93.6517C143.413 91.619 143.413 89.5864 143.413 87.5538C143.413 86.877 143.653 85.8379 142.983 85.455C142.278 85.0523 141.726 84.474 141.611 83.6702C141.489 82.8137 140.938 81.9792 140.752 81.1418C140.582 80.3774 140.889 79.5265 140.719 78.7622C140.471 77.6473 139.546 73.7045 139.546 76.8452C139.546 78.8505 139.248 80.7521 139.248 82.7779C139.248 84.6068 140.334 86.4533 140.438 88.4296C140.487 89.3701 141.728 88.3408 141.925 88.1321C142.424 87.6042 142.812 86.4114 143.264 86.0499C145.793 84.0267 139.601 81.1046 138.951 79.8033" stroke="#FF0000" stroke-width="2"/>
<path d="M107.766 95.9456C105.36 88.5875 104.811 80.7451 104.536 73.0194C104.489 71.7058 104.684 66.2646 103.93 65.6614C103.632 65.4232 105.528 67.2906 106.061 67.7701C107.277 68.8642 109.547 70.4774 110.189 71.9202C110.577 72.7947 111.397 73.9935 111.983 74.7467C112.754 75.7375 112.878 77.4383 113.419 78.5827C114.422 80.7065 115.31 82.7362 116.245 84.8414C116.686 85.8328 117.076 88.6891 117.861 89.0812" stroke="#FF0000" stroke-width="2"/>
<path d="M113.015 88.2737C112.613 85.9032 111.781 83.6255 110.794 81.4317C110.547 80.8825 110.189 79.2965 110.189 80.6017C110.189 81.9481 112.027 83.3976 112.836 84.4377C113.306 85.0426 113.433 85.4471 114.226 85.4471C114.663 85.4471 115.622 86.497 115.258 86.2547C113.311 84.9562 111.927 82.3994 110.413 80.6241C109.62 79.6943 107.67 78.0513 107.384 76.7657C107.024 75.1418 103.855 71.4679 105.343 72.2118C106.592 72.8364 107.626 74.7353 108.17 75.9581C108.827 77.4367 109.743 78.7633 110.503 80.1979C111.159 81.437 110.837 78.6291 110.772 78.3584C110.346 76.5952 109.542 74.1805 108.371 72.7502C107.409 71.5739 107.719 76.4909 107.766 77.3713C107.845 78.8791 109.645 81.304 110.189 82.8001C110.817 84.5274 110.996 81.9729 110.906 81.4092C110.55 79.1732 108.398 75.9738 106.644 74.5448C104.425 72.7365 107.068 75.7681 107.362 76.9451C107.855 78.9177 109.522 79.7734 110.592 81.3195C110.802 81.6225 113.729 83.7001 113.374 83.9666C112.694 84.4763 106.016 72.9625 105.365 70.6864C105.029 69.51 104.939 70.8362 104.939 71.4042C104.939 73.1522 105.311 74.1752 105.926 75.7562C106.557 77.3782 107.267 79.6915 107.362 81.4092C107.442 82.8568 108.17 84.0949 108.17 85.649C108.17 87.1716 108.216 88.5251 108.663 89.9785C108.84 90.5547 109.381 92.2414 109.381 91.6386C109.381 89.4581 108.521 87.1565 107.968 85.0658C107.604 83.6934 106.958 82.4399 106.958 81.0054C106.958 80.8179 107.391 79.4354 107.676 79.9735C108.665 81.8408 108.95 84.4162 109.403 86.4566C109.781 88.1579 111.053 87.3432 111.893 88.1839C112.862 89.1523 113.015 89.476 113.015 90.8983C113.015 91.4063 112.207 92.3517 112.207 91.504C112.207 90.0608 112.599 90.6676 110.996 89.8888C108.322 88.5901 107.447 79.7941 110.996 79.7941C112.669 79.7941 112.611 81.9785 112.611 83.2263C112.611 85.2363 112.725 85.3686 110.682 85.4471C109.336 85.4989 108.542 86.6585 107.16 86.6585C105.36 86.6585 105.631 86.4276 104.939 85.0433" stroke="#FF0000" stroke-width="2"/>
</svg>
