<svg width="256" height="256" viewBox="0 0 256 256" fill="none" xmlns="http://www.w3.org/2000/svg">
<path d="M99.8303 192.604C99.8303 191.318 99.2174 187.472 100.087 186.439C101.14 185.189 101.72 182.33 103.683 182.33C105.397 182.33 105.224 182.715 106.251 183.871C106.896 184.596 107.022 186.03 107.022 186.953C107.022 187.437 106.788 188.923 107.422 188.109C108.681 186.489 109.815 181.005 112.416 184.256C113.188 185.222 114.171 186.043 114.841 187.096C115.663 188.387 115.755 190.327 115.755 191.833" stroke="white" stroke-width="2"/>
<path d="M123.203 181.559C123.203 184.616 123.027 187.733 123.332 190.777C123.462 192.078 123.717 193.352 123.717 194.658" stroke="white" stroke-width="2"/>
<path d="M121.026 126C118.594 129.113 114.587 131.317 111.472 133.739C109.71 135.11 113.384 134.629 114.246 134.629C115.89 134.629 117.533 134.629 119.177 134.629" stroke="black" stroke-width="2" stroke-linecap="round"/>
</svg>
