<svg width="256" height="256" viewBox="0 0 256 256" fill="none" xmlns="http://www.w3.org/2000/svg">
<path d="M99.8303 192.604C99.8303 191.318 99.2174 187.472 100.087 186.439C101.14 185.189 101.72 182.33 103.683 182.33C105.397 182.33 105.224 182.715 106.251 183.871C106.896 184.596 107.022 186.03 107.022 186.953C107.022 187.437 106.788 188.923 107.422 188.109C108.681 186.489 109.815 181.005 112.416 184.256C113.188 185.222 114.171 186.043 114.841 187.096C115.663 188.387 115.755 190.327 115.755 191.833" stroke="white" stroke-width="2"/>
<path d="M123.203 181.559C123.203 184.616 123.027 187.733 123.332 190.777C123.462 192.078 123.717 193.352 123.717 194.658" stroke="white" stroke-width="2"/>
<path d="M118.752 121C117.77 122.204 117.081 123.763 116.195 124.79C115.685 125.383 116.307 126.65 115.876 127.371C115.282 128.364 114.779 129.43 114.229 130.453C113.584 131.65 114.48 131.607 114.745 132.714C115.238 134.774 117.413 133.741 119.195 133.741C121.009 133.741 121.72 131.215 120.08 130.453" stroke="black" stroke-width="2" stroke-linecap="round"/>
</svg>
