<svg width="256" height="256" viewBox="0 0 256 256" fill="none" xmlns="http://www.w3.org/2000/svg">
<g style="mix-blend-mode:darken">
<path d="M96.7337 226.559C83.7117 226.559 70.9498 228.843 57.9742 229.535C57.971 226.416 58.0115 223.415 58.7945 220.531C59.7987 216.832 60.3018 214.12 60.3018 210.097C60.3018 204.886 63.4024 200.313 63.4024 195.046C63.4024 189.919 60.792 185.43 60.3448 180.488C59.5525 171.733 60.3018 162.718 60.3018 153.946C60.3018 152.325 58.7667 139 61.5076 139C65.1954 139 68.6861 139.355 72.3596 139.634C81.6775 140.344 90.7332 142.511 100.136 142.772C104.156 142.883 108.35 143.015 112.366 142.772C113.36 142.711 114.017 142.062 114.993 142.208C128.012 144.145 141.961 142.172 155.128 142.172C157.407 142.172 169.877 141.14 170.416 143.124C170.82 144.612 172.007 145.729 172.698 147.002C175.612 152.368 180.891 156.697 183.981 162.053C185.975 165.509 184.487 170.722 184.153 174.39C183.771 178.591 183.55 182.724 183.55 186.939C183.55 195.737 182.775 204.463 182.775 213.234C182.775 215.274 181.774 217.181 181.397 219.227C181.291 219.802 181.43 222.005 181.611 223.49C182.536 223.241 182.149 223.681 182 224.655C181.902 225.297 181.745 224.591 181.611 223.49C181.345 223.562 180.97 223.69 180.45 223.88C178.131 224.723 174.43 223.852 171.923 224.162C158.155 225.863 143.809 223.16 130.065 224.796C118.952 226.119 107.969 226.559 96.7337 226.559Z" fill="#D50909"/>
<path d="M51 229.731C66.4004 229.731 81.3864 226.559 96.7337 226.559C107.969 226.559 118.952 226.119 130.065 224.796C143.809 223.16 158.155 225.863 171.923 224.162C174.43 223.852 178.131 224.723 180.45 223.88C182.778 223.033 182.192 223.401 182 224.655C181.77 226.163 181.212 220.228 181.397 219.227C181.774 217.181 182.775 215.274 182.775 213.234C182.775 204.463 183.55 195.737 183.55 186.939C183.55 182.724 183.772 178.591 184.153 174.39C184.487 170.722 185.975 165.509 183.981 162.053C180.891 156.697 175.612 152.368 172.698 147.002C172.007 145.729 170.82 144.612 170.416 143.124C169.877 141.14 157.407 142.172 155.128 142.172C141.961 142.172 128.012 144.145 114.993 142.208C114.017 142.062 113.36 142.711 112.366 142.772C108.35 143.015 104.156 142.883 100.136 142.772C90.7332 142.511 81.6775 140.344 72.3596 139.634C68.6861 139.355 65.1954 139 61.5076 139C58.7667 139 60.3018 152.325 60.3018 153.946C60.3018 162.718 59.5525 171.733 60.3448 180.488C60.792 185.43 63.4024 189.919 63.4024 195.046C63.4024 200.313 60.3018 204.886 60.3018 210.097C60.3018 214.12 59.7987 216.832 58.7945 220.531C57.8896 223.864 57.9763 227.353 57.9763 231" stroke="black" stroke-width="3" stroke-linecap="round"/>
</g>
<path d="M126.299 183.03C124.768 183.628 123.231 184.118 121.803 184.935C121.287 185.229 121.578 186.431 121.168 186.944C120.055 188.336 122.014 190.534 122.014 191.837C122.014 194.094 125.346 191.988 125.346 194.217C125.346 196.793 124.673 196.137 123.072 197.418C122.466 197.902 119.026 198.254 118.312 197.682C118.13 197.537 117.267 196.55 117.227 196.651C116.685 198.005 114.852 198.372 113.948 199.428C113.456 200.002 108.929 198.98 107.997 198.713C106.512 198.289 106.305 195.164 106.305 193.979C106.305 192.234 106.305 190.488 106.305 188.743C106.305 186.712 107.298 185.581 107.706 183.744C108.16 181.703 109.012 181.135 110.801 180.624C111.566 180.405 111.491 179.639 112.493 179.698C113.264 179.743 113.922 180.594 114.873 180.65C116.313 180.735 114.266 184.801 116.407 182.66C117.467 181.6 118.696 180.632 119.634 179.46C120.042 178.95 123.882 178.344 124.394 178.984C125.026 179.774 125.346 182.491 125.346 183.506" stroke="black" stroke-width="3" stroke-linecap="round"/>
<path d="M114.873 179.698C114.066 175.562 115.213 174.455 117.73 171.579C119.125 169.984 119.17 168.644 120.692 167.427C121.769 166.565 122.49 166.002 122.49 167.797C122.49 170.068 120.586 171.461 120.586 173.747C120.586 176.513 118.987 177.165 116.778 178.27" stroke="black" stroke-width="3" stroke-linecap="round"/>
</svg>
