<svg width="256" height="256" viewBox="0 0 256 256" fill="none" xmlns="http://www.w3.org/2000/svg">
<g style="mix-blend-mode:darken">
<path d="M96.7337 226.559C83.7117 226.559 70.9498 228.843 57.9742 229.535C57.971 226.416 58.0115 223.415 58.7945 220.531C59.7987 216.832 60.3018 214.12 60.3018 210.097C60.3018 204.886 63.4024 200.313 63.4024 195.046C63.4024 189.919 60.792 185.43 60.3448 180.488C59.5525 171.733 60.3018 162.718 60.3018 153.946C60.3018 152.325 58.7667 139 61.5076 139C65.1954 139 68.6861 139.355 72.3596 139.634C81.6775 140.344 90.7332 142.511 100.136 142.772C104.156 142.883 108.35 143.015 112.366 142.772C113.36 142.711 114.017 142.062 114.993 142.208C128.012 144.145 141.961 142.172 155.128 142.172C157.407 142.172 169.877 141.14 170.416 143.124C170.82 144.612 172.007 145.729 172.698 147.002C175.612 152.368 180.891 156.697 183.981 162.053C185.975 165.509 184.487 170.722 184.153 174.39C183.771 178.591 183.55 182.724 183.55 186.939C183.55 195.737 182.775 204.463 182.775 213.234C182.775 215.274 181.774 217.181 181.397 219.227C181.291 219.802 181.43 222.005 181.611 223.49C182.536 223.241 182.149 223.681 182 224.655C181.902 225.297 181.745 224.591 181.611 223.49C181.345 223.562 180.97 223.69 180.45 223.88C178.131 224.723 174.43 223.852 171.923 224.162C158.155 225.863 143.809 223.16 130.065 224.796C118.952 226.119 107.969 226.559 96.7337 226.559Z" fill="black"/>
<path d="M51 229.731C66.4004 229.731 81.3864 226.559 96.7337 226.559C107.969 226.559 118.952 226.119 130.065 224.796C143.809 223.16 158.155 225.863 171.923 224.162C174.43 223.852 178.131 224.723 180.45 223.88C182.778 223.033 182.192 223.401 182 224.655C181.77 226.163 181.212 220.228 181.397 219.227C181.774 217.181 182.775 215.274 182.775 213.234C182.775 204.463 183.55 195.737 183.55 186.939C183.55 182.724 183.772 178.591 184.153 174.39C184.487 170.722 185.975 165.509 183.981 162.053C180.891 156.697 175.612 152.368 172.698 147.002C172.007 145.729 170.82 144.612 170.416 143.124C169.877 141.14 157.407 142.172 155.128 142.172C141.961 142.172 128.012 144.145 114.993 142.208C114.017 142.062 113.36 142.711 112.366 142.772C108.35 143.015 104.156 142.883 100.136 142.772C90.7332 142.511 81.6775 140.344 72.3596 139.634C68.6861 139.355 65.1954 139 61.5076 139C58.7667 139 60.3018 152.325 60.3018 153.946C60.3018 162.718 59.5525 171.733 60.3448 180.488C60.792 185.43 63.4024 189.919 63.4024 195.046C63.4024 200.313 60.3018 204.886 60.3018 210.097C60.3018 214.12 59.7987 216.832 58.7945 220.531C57.8896 223.864 57.9763 227.353 57.9763 231" stroke="black" stroke-width="3" stroke-linecap="round"/>
</g>
<path d="M126.299 183.03C124.768 183.628 123.231 184.118 121.803 184.935C121.287 185.229 121.578 186.431 121.168 186.944C120.055 188.336 122.014 190.534 122.014 191.837C122.014 194.094 125.346 191.988 125.346 194.217C125.346 196.793 124.673 196.137 123.072 197.418C122.466 197.902 119.026 198.254 118.312 197.682C118.13 197.537 117.267 196.55 117.227 196.651C116.685 198.005 114.852 198.372 113.948 199.428C113.456 200.002 108.929 198.98 107.997 198.713C106.512 198.289 106.305 195.164 106.305 193.979C106.305 192.234 106.305 190.488 106.305 188.743C106.305 186.712 107.298 185.581 107.706 183.744C108.16 181.703 109.012 181.135 110.801 180.624C111.566 180.405 111.491 179.639 112.493 179.698C113.264 179.743 113.922 180.594 114.873 180.65C116.313 180.735 114.266 184.801 116.407 182.66C117.467 181.6 118.696 180.632 119.634 179.46C120.042 178.95 123.882 178.344 124.394 178.984C125.026 179.774 125.346 182.491 125.346 183.506" stroke="white" stroke-width="3" stroke-linecap="round"/>
<path d="M114.873 179.698C114.066 175.562 115.213 174.455 117.73 171.579C119.125 169.984 119.17 168.644 120.692 167.427C121.769 166.565 122.49 166.002 122.49 167.797C122.49 170.068 120.586 171.461 120.586 173.747C120.586 176.513 118.987 177.165 116.778 178.27" stroke="white" stroke-width="3" stroke-linecap="round"/>
<path d="M110.616 189.094C112.133 188.823 113.217 188.403 114.638 189.094C114.967 189.254 115.882 189.737 115.48 190.254C115.047 190.81 114.06 190.95 113.409 190.95C112.414 190.95 112.482 189.15 112.472 188.475C112.463 187.802 112.656 187.212 112.163 186.774C111.753 186.409 111.804 186.281 111.69 185.768C111.439 184.64 111.877 184.439 112.318 183.448C112.375 183.318 113.108 182.37 112.85 182.297C112.503 182.197 112.009 182.339 111.699 182.477C111.1 182.743 109.952 182.987 109.611 183.603C109.199 184.344 109.046 185.302 108.794 186.121C108.673 186.514 108.705 186.925 108.597 187.307C108.546 187.484 108.523 188.152 108.416 188.286C108.035 188.762 108.141 189.94 108.141 190.563C108.141 191.454 108.141 192.345 108.141 193.236C108.141 193.95 108.028 195.201 108.373 195.823C108.645 196.312 109.222 197.014 109.37 197.533C109.649 198.509 110.265 197.447 110.925 197.447C111.312 197.447 111.699 197.447 112.085 197.447C112.521 197.447 112.82 197.733 113.246 197.756C113.688 197.781 113.865 197.996 114.328 197.791C114.633 197.655 115.155 197.53 115.489 197.455C115.85 197.375 116.185 197.237 116.185 196.828C116.185 196.547 116.037 195.9 116.417 195.9C118.082 195.9 119.575 196.055 121.212 196.055C121.832 196.055 122.991 196.351 122.991 195.591C122.991 194.269 122.134 195.004 121.289 194.628C119.697 193.921 119.124 191.026 119.124 189.403C119.124 188.733 119.124 188.063 119.124 187.392C119.124 186.694 119.37 186.148 119.424 185.468C119.473 184.86 119.339 184.537 120.052 184.453C120.302 184.424 120.695 184.065 120.902 183.903C121.329 183.572 121.727 183.29 122.08 182.898C122.319 182.632 123.485 181.707 122.836 181.669C122.512 181.65 123.133 181.077 122.681 181.05C122.298 181.028 121.906 181.05 121.521 181.05C120.991 181.05 119.835 180.831 119.467 181.24C119.003 181.755 119.278 183.168 119.278 183.835C119.278 184.333 117.979 185.048 117.895 184.668C117.738 183.962 117.805 183.444 117.886 182.752C117.903 182.607 118.178 182.518 118.178 182.675C118.178 182.761 117.791 183.003 117.731 183.139C117.514 183.627 117.491 183.925 117.345 184.453C117.034 185.573 116.706 186.734 116.494 187.891C116.214 189.415 116.03 190.865 116.03 192.411C116.03 192.667 116.154 193.41 115.875 193.27" stroke="white" stroke-width="2"/>
<path d="M114.792 187.857C113.451 187.607 111.746 187.361 110.616 188.2C110.004 188.655 108.208 189.669 108.64 190.641C108.914 191.259 109.661 190.851 109.877 191.26C110.131 191.74 109.997 192.431 109.997 192.961C109.997 193.861 109.997 194.76 109.997 195.659C109.997 195.928 109.843 198.056 109.843 197.06C109.843 195.893 110.783 195.904 111.699 195.47C112.621 195.034 113.772 195.324 114.638 195.78C115.613 196.293 114.382 196.607 113.839 196.751C112.786 197.029 111.712 196.983 110.633 196.983C110.393 196.983 109.823 196.855 110.341 196.596C112.872 195.331 115.676 194.784 118.488 194.671C119.085 194.647 119.993 194.502 120.584 194.671C121.475 194.926 118.735 194.84 117.809 194.809C116.648 194.769 115.607 194.309 114.483 194.207C113.479 194.116 112.431 194.199 111.424 194.199C111.177 194.199 108.863 194.351 108.829 194.078C108.822 194.027 109.514 194.037 109.542 194.035C109.962 194.007 110.389 193.922 110.805 193.855C112.197 193.63 113.545 193.171 114.947 192.961C116.494 192.73 118.001 192.652 119.562 192.652C119.987 192.652 120.343 192.692 119.639 192.643C118.527 192.566 117.436 192.188 116.348 191.964C114.843 191.654 113.109 191.878 111.578 191.878C109.273 191.878 116.141 191.199 118.436 190.985C118.628 190.967 120.295 190.774 120.017 190.675C118.905 190.278 117.699 190.044 116.528 189.902C115.261 189.747 114.056 189.713 112.782 189.713C112.498 189.713 111.593 189.878 111.424 189.558C111.118 188.981 111.955 188.809 112.318 188.707C114.513 188.09 117.132 188.475 119.399 188.475C120.466 188.475 118.585 188.031 118.333 188.011C116.987 187.904 115.515 187.775 114.208 187.427C113.367 187.203 112.25 187.392 111.389 187.392C111.227 187.392 110.254 187.336 110.685 186.928C111.328 186.319 112.671 186.464 113.469 186.464C114.469 186.464 115.468 186.464 116.468 186.464C116.99 186.464 117.788 186.464 116.709 186.464C115.499 186.464 114.371 186.091 113.177 186.009C112.676 185.974 112.125 186.082 111.63 185.992C111.345 185.94 111.157 185.846 110.848 185.846C110.435 185.846 111.767 185.557 111.931 185.536C113.343 185.354 114.761 185.227 116.185 185.227C116.706 185.227 118.27 185.227 117.749 185.227C116.703 185.227 115.719 185.009 114.707 184.763C113.396 184.445 112.206 184.454 110.857 184.454C109.283 184.454 110.403 184.454 111.235 184.454C111.96 184.454 112.664 184.299 113.4 184.299" stroke="white" stroke-width="2"/>
<path d="M110.461 183.68C110.461 184.777 110.497 185.838 110.229 186.911C110.069 187.552 109.866 188.241 109.843 188.905C109.826 189.382 109.619 189.741 109.679 189.953C109.855 190.568 109.636 190.95 110.384 190.95C110.678 190.95 111.428 190.873 111.544 190.641" stroke="white" stroke-width="2"/>
<path d="M121.908 181.515C120.896 182.131 119.978 183.049 119.158 183.869C118.789 184.238 117.038 184.747 117.766 185.657C118.009 185.961 118.312 186.25 118.187 186.688C118.124 186.909 117.174 186.617 117.302 186.928C117.397 187.159 117.828 187.928 118.11 187.848C118.355 187.778 118.194 186.183 118.187 185.992C118.136 184.679 117.606 183.604 117.199 182.382C117.042 181.912 116.957 181.343 116.769 180.896C116.704 180.743 116.503 180.588 116.494 180.432C116.474 180.096 116.685 179.375 116.408 179.89C116.097 180.467 115.881 181.048 115.257 181.325C114.913 181.478 114.575 181.324 114.242 181.515C113.577 181.895 112.936 182.493 112.936 183.293C112.936 183.401 112.971 184.461 113.366 184.11C113.547 183.949 113.4 182.854 113.4 182.597" stroke="white" stroke-width="2"/>
<path d="M113.4 181.515C113.917 180.269 114.97 179.309 115.6 178.112C115.981 177.389 116.138 176.45 116.881 175.955C117.426 175.591 117.539 174.739 117.964 174.399C118.2 174.21 118.48 173.194 118.505 172.887C118.532 172.547 118.905 173.162 118.35 173.162" stroke="white" stroke-width="2"/>
<path d="M118.196 170.687C118.58 172.863 119.433 174.975 119.433 177.183C119.433 178.113 119.278 175.329 119.278 174.399" stroke="white" stroke-width="2"/>
</svg>
