<svg width="256" height="256" viewBox="0 0 256 256" fill="none" xmlns="http://www.w3.org/2000/svg">
<g style="mix-blend-mode:darken">
<path d="M96.7337 226.559C83.7117 226.559 70.9498 228.843 57.9742 229.535C57.971 226.416 58.0115 223.415 58.7945 220.531C59.7987 216.832 60.3018 214.12 60.3018 210.097C60.3018 204.886 63.4024 200.313 63.4024 195.046C63.4024 189.919 60.792 185.43 60.3448 180.488C59.5525 171.733 60.3018 162.718 60.3018 153.946C60.3018 152.325 58.7667 139 61.5076 139C65.1954 139 68.6861 139.355 72.3596 139.634C81.6775 140.344 90.7332 142.511 100.136 142.772C104.156 142.883 108.35 143.015 112.366 142.772C113.36 142.711 114.017 142.062 114.993 142.208C128.012 144.145 141.961 142.172 155.128 142.172C157.407 142.172 169.877 141.14 170.416 143.124C170.82 144.612 172.007 145.729 172.698 147.002C175.612 152.368 180.891 156.697 183.981 162.053C185.975 165.509 184.487 170.722 184.153 174.39C183.771 178.591 183.55 182.724 183.55 186.939C183.55 195.737 182.775 204.463 182.775 213.234C182.775 215.274 181.774 217.181 181.397 219.227C181.291 219.802 181.43 222.005 181.611 223.49C182.536 223.241 182.149 223.681 182 224.655C181.902 225.297 181.745 224.591 181.611 223.49C181.345 223.562 180.97 223.69 180.45 223.88C178.131 224.723 174.43 223.852 171.923 224.162C158.155 225.863 143.809 223.16 130.065 224.796C118.952 226.119 107.969 226.559 96.7337 226.559Z" fill="#D50909"/>
<path d="M51 229.731C66.4004 229.731 81.3864 226.559 96.7337 226.559C107.969 226.559 118.952 226.119 130.065 224.796C143.809 223.16 158.155 225.863 171.923 224.162C174.43 223.852 178.131 224.723 180.45 223.88C182.778 223.033 182.192 223.401 182 224.655C181.77 226.163 181.212 220.228 181.397 219.227C181.774 217.181 182.775 215.274 182.775 213.234C182.775 204.463 183.55 195.737 183.55 186.939C183.55 182.724 183.772 178.591 184.153 174.39C184.487 170.722 185.975 165.509 183.981 162.053C180.891 156.697 175.612 152.368 172.698 147.002C172.007 145.729 170.82 144.612 170.416 143.124C169.877 141.14 157.407 142.172 155.128 142.172C141.961 142.172 128.012 144.145 114.993 142.208C114.017 142.062 113.36 142.711 112.366 142.772C108.35 143.015 104.156 142.883 100.136 142.772C90.7332 142.511 81.6775 140.344 72.3596 139.634C68.6861 139.355 65.1954 139 61.5076 139C58.7667 139 60.3018 152.325 60.3018 153.946C60.3018 162.718 59.5525 171.733 60.3448 180.488C60.792 185.43 63.4024 189.919 63.4024 195.046C63.4024 200.313 60.3018 204.886 60.3018 210.097C60.3018 214.12 59.7987 216.832 58.7945 220.531C57.8896 223.864 57.9763 227.353 57.9763 231" stroke="black" stroke-width="3" stroke-linecap="round"/>
</g>
<path d="M105.824 169.038C105.824 174.21 105.824 179.382 105.824 184.554C105.824 185.289 105.559 185.95 106.428 185.559C108.026 184.84 110.578 185.325 112.309 185.325C113.006 185.325 120.39 185.847 120.587 185.157C121.088 183.404 119.699 181.869 119.699 180.181C119.699 177.787 119.832 175.35 119.699 172.959C119.631 171.745 119.868 169.038 118.492 169.038C116.12 169.038 113.435 168.319 111.187 167.597C110.403 167.345 105.983 166.308 105.523 167.228" stroke="black" stroke-width="3" stroke-linecap="round"/>
<path d="M125.43 169.038C125.43 173.73 124.511 179.57 126.787 183.666C127.342 184.666 126.826 184.807 128.01 184.269C129.354 183.658 131.79 184.118 133.272 184.118C134.349 184.118 135.603 183.914 136.589 184.353C137.184 184.617 138.588 184.053 139.002 184.571C139.75 185.506 139.606 182.284 139.606 182.024C139.606 181.036 139.002 180.087 139.002 179.142C139.002 175.146 138.934 171.196 138.701 167.228C138.624 165.927 133.698 166.748 132.819 166.943C131.806 167.168 130.666 167.399 129.652 167.68C128.698 167.945 127.783 167.71 126.938 168.133" stroke="black" stroke-width="3" stroke-linecap="round"/>
<path d="M104.015 192.865C104.015 196.135 103.245 200.483 104.551 203.422C104.933 204.282 105.221 205.798 105.221 206.74C105.221 207.046 105.125 209.259 105.757 208.248C106.911 206.402 110.288 207.041 112.091 207.041C113.622 207.041 115.152 207.041 116.683 207.041C117.487 207.041 118.291 207.041 119.096 207.041C120.409 207.041 120 206.026 120 204.913C120 203.773 119.386 203.006 119.112 202.048C118.69 200.571 118.794 199.091 118.794 197.54C118.794 196.993 119.246 191.448 118.911 191.374C116.397 190.815 114.195 191.96 111.84 191.96C109.634 191.96 107.427 191.96 105.221 191.96" stroke="black" stroke-width="3" stroke-linecap="round"/>
<path d="M126.334 193.167C126.334 195.725 126.334 198.283 126.334 200.841C126.334 201.593 126.083 203.007 126.401 203.723C126.811 204.645 127.88 204.327 128.764 204.327C130.991 204.327 133.172 204.628 135.383 204.628C135.955 204.628 140.656 204.948 140.795 204.461C141.339 202.556 139.907 200.711 139.907 198.898C139.907 197.643 140.346 190.194 139.605 190.151C137.959 190.054 136.278 190.151 134.629 190.151C133.084 190.151 131.679 189.849 130.105 189.849C129.25 189.849 128.395 189.849 127.541 189.849C126.615 189.849 126.938 190.939 126.938 191.659" stroke="black" stroke-width="3" stroke-linecap="round"/>
</svg>
